<svg width="727" height="384" viewBox="0 0 727 384" fill="none" xmlns="http://www.w3.org/2000/svg">
<g clip-path="url(#clip0)">
<path opacity="0.3" d="M162.626 328.631C238.41 328.631 299.844 264.344 299.844 185.041C299.844 105.739 238.41 41.4517 162.626 41.4517C86.8426 41.4517 25.408 105.739 25.408 185.041C25.408 264.344 86.8426 328.631 162.626 328.631Z" stroke="#FF9800" stroke-width="4" stroke-miterlimit="10" stroke-dasharray="12 12"/>
<path opacity="0.3" d="M524.52 300.229C600.304 300.229 661.738 235.941 661.738 156.639C661.738 77.3366 600.304 13.0493 524.52 13.0493C448.737 13.0493 387.302 77.3366 387.302 156.639C387.302 235.941 448.737 300.229 524.52 300.229Z" stroke="#FF9800" stroke-width="4" stroke-miterlimit="10" stroke-dasharray="12 12"/>
<path d="M577.568 212.126C571.657 205.549 568.362 196.863 568.355 187.834C568.389 181.606 569.964 175.494 572.926 170.092C575.888 164.69 580.137 160.183 585.258 157.01C582.967 153.528 581.737 149.403 581.73 145.176C581.73 133.27 591.275 123.621 603.051 123.621C607.6 123.573 612.043 125.055 615.726 127.849C619.408 130.643 622.136 134.601 623.506 139.14C626.413 134.354 630.434 130.419 635.192 127.705C639.95 124.99 645.289 123.585 650.708 123.621C668.252 123.621 682.479 138.004 682.479 155.74C682.482 159.528 681.823 163.284 680.534 166.824C681.175 166.777 681.824 166.722 682.479 166.722C696.563 166.722 707.978 178.264 707.978 192.505C707.978 193.374 707.935 194.244 707.85 195.108C719.114 200.016 727 211.337 727 224.521C727 242.201 712.826 256.536 695.334 256.536C693.497 256.534 691.664 256.37 689.853 256.047C689.944 257.112 690.004 258.193 690.004 259.282C690.004 279.124 674.096 295.211 654.47 295.211C647.267 295.233 640.221 293.005 634.234 288.813C629.391 292.968 623.316 295.23 617.052 295.211C602.388 295.211 590.506 283.195 590.506 268.387C590.506 267.748 590.558 267.116 590.604 266.485H590.506C574.808 266.485 562.082 253.617 562.082 237.744C562.114 232.385 563.583 227.144 566.32 222.615C569.058 218.087 572.955 214.453 577.568 212.126V212.126Z" fill="url(#paint0_linear)"/>
<path d="M580.44 212.008C574.786 205.711 571.635 197.398 571.627 188.757C571.659 182.796 573.166 176.944 576.002 171.773C578.837 166.602 582.904 162.288 587.806 159.25C585.608 155.911 584.431 151.952 584.429 147.897C584.429 136.505 593.567 127.266 604.838 127.266C609.194 127.221 613.448 128.639 616.977 131.311C620.505 133.984 623.121 137.77 624.441 142.114C627.221 137.544 631.063 133.785 635.607 131.19C640.152 128.594 645.252 127.247 650.429 127.274C667.227 127.274 680.836 141.041 680.836 158.043C680.838 161.67 680.207 165.266 678.974 168.655C679.592 168.607 680.21 168.56 680.836 168.56C694.316 168.56 705.241 179.606 705.241 193.239C705.239 194.071 705.197 194.904 705.113 195.732C715.894 200.465 723.441 211.266 723.441 223.882C723.441 240.805 709.87 254.525 693.133 254.525C691.364 254.525 689.599 254.369 687.855 254.059C687.946 255.077 687.998 256.11 687.998 257.152C687.998 276.142 672.769 291.535 653.988 291.535C647.094 291.554 640.35 289.422 634.619 285.412C630.001 289.38 624.211 291.549 618.236 291.55C604.205 291.55 592.828 280.047 592.828 265.862C592.828 265.247 592.873 264.647 592.918 264.039H592.828C577.802 264.039 565.618 251.724 565.618 236.529C565.649 231.4 567.055 226.383 569.675 222.048C572.296 217.714 576.025 214.235 580.44 212.008V212.008Z" fill="#12F436"/>
<path d="M642.89 176.039H632.945V367.148H642.89V176.039Z" fill="url(#paint1_linear)"/>
<path d="M640.839 176.039H635.335V367.148H640.839V176.039Z" fill="#795548"/>
<path d="M608 196.455L604.069 200.487L636.682 235.299L640.612 231.267L608 196.455Z" fill="#795548"/>
<path d="M670.871 235.994L637.064 260.821L640.225 265.535L674.033 240.709L670.871 235.994Z" fill="#795548"/>
<path d="M643.229 215.479C646.62 211.421 649.138 206.648 650.615 201.483C652.091 196.319 652.49 190.882 651.786 185.542C651.082 180.202 649.291 175.082 646.534 170.529C643.776 165.975 640.117 162.094 635.803 159.148C638.034 155.535 639.217 151.323 639.211 147.022C639.211 134.856 629.997 124.994 618.628 124.994C614.135 125.029 609.775 126.596 606.211 129.458C602.646 132.32 600.07 136.32 598.874 140.852C596.196 136.044 592.365 132.052 587.759 129.271C583.153 126.489 577.932 125.015 572.614 124.994C555.673 124.994 541.936 139.692 541.936 157.823C541.932 161.684 542.567 165.517 543.814 169.152C543.196 169.105 542.57 169.049 541.936 169.049C528.365 169.049 517.313 180.884 517.313 195.4C517.313 196.3 517.358 197.183 517.441 198.059C511.906 200.655 507.212 204.879 503.928 210.215C500.645 215.552 498.914 221.772 498.946 228.118C498.946 246.193 512.638 260.844 529.519 260.844C531.289 260.841 533.055 260.675 534.797 260.347C534.706 261.436 534.653 262.54 534.653 263.653C534.653 283.929 550.011 300.371 568.965 300.371C575.969 300.373 582.799 298.087 588.5 293.83C593.089 298.042 598.983 300.366 605.087 300.371C619.246 300.371 630.721 288.087 630.721 272.939C630.721 272.284 630.668 271.637 630.631 270.99H630.721C645.883 270.99 658.165 257.838 658.165 241.617C658.188 236.25 656.81 230.978 654.177 226.371C651.545 221.764 647.759 217.998 643.229 215.479V215.479Z" fill="url(#paint2_linear)"/>
<path d="M639.263 215.306C642.443 211.496 644.805 207.017 646.189 202.171C647.573 197.324 647.947 192.224 647.286 187.213C646.625 182.202 644.944 177.398 642.357 173.126C639.77 168.853 636.337 165.211 632.289 162.446C634.383 159.054 635.494 155.099 635.486 151.061C635.486 139.637 626.838 130.383 616.162 130.383C611.951 130.422 607.867 131.896 604.528 134.58C601.188 137.265 598.775 141.015 597.653 145.262C595.14 140.748 591.542 136.999 587.218 134.388C582.893 131.777 577.992 130.393 572.999 130.375C557.098 130.375 544.206 144.174 544.206 161.191C544.202 164.816 544.799 168.415 545.97 171.826C545.39 171.779 544.801 171.732 544.206 171.732C531.441 171.732 521.097 182.777 521.097 196.465C521.097 197.31 521.135 198.138 521.218 198.959C516.028 201.402 511.626 205.369 508.548 210.378C505.47 215.387 503.848 221.224 503.877 227.179C503.877 244.142 516.694 257.894 532.58 257.894C534.246 257.892 535.909 257.736 537.548 257.428C537.466 258.454 537.413 259.487 537.413 260.529C537.413 279.566 551.828 294.99 569.614 294.99C576.188 294.993 582.598 292.847 587.95 288.852C592.257 292.805 597.79 294.986 603.519 294.99C616.803 294.99 627.577 283.463 627.577 269.239C627.577 268.623 627.532 268.016 627.494 267.408H627.577C641.804 267.408 653.34 255.061 653.34 239.834C653.358 234.79 652.056 229.838 649.574 225.513C647.093 221.189 643.527 217.659 639.263 215.306V215.306Z" fill="#00897B"/>
<path d="M588.462 175.968H580.983V370.667H588.462V175.968Z" fill="url(#paint3_linear)"/>
<path d="M586.872 178.706H583.109V370.667H586.872V178.706Z" fill="#795548"/>
<path d="M613.634 200.343L582.755 235.238L585.515 237.913L616.395 203.018L613.634 200.343Z" fill="#795548"/>
<path d="M553.263 240.164L551.02 243.324L583.034 268.203L585.277 265.043L553.263 240.164Z" fill="#795548"/>
<path d="M499.12 272.41C495.092 267.923 492.849 261.999 492.847 255.842C492.871 251.599 493.945 247.434 495.964 243.753C497.982 240.073 500.878 237.002 504.367 234.84C502.802 232.462 501.963 229.642 501.962 226.753C501.962 218.643 508.469 212.063 516.491 212.063C519.59 212.03 522.617 213.04 525.127 214.943C527.637 216.847 529.496 219.543 530.431 222.635C532.413 219.374 535.154 216.693 538.397 214.844C541.639 212.995 545.278 212.038 548.971 212.063C560.928 212.063 570.624 221.862 570.624 233.949C570.626 236.532 570.176 239.093 569.297 241.507C569.734 241.507 570.172 241.436 570.624 241.436C580.222 241.436 587.965 249.325 587.965 259.006C587.964 259.599 587.934 260.191 587.874 260.781C591.702 262.396 594.985 265.163 597.308 268.732C599.631 272.3 600.89 276.51 600.925 280.828C600.925 292.876 591.267 302.643 579.347 302.643C578.084 302.644 576.823 302.533 575.577 302.312C575.645 303.038 575.683 303.771 575.683 304.513C575.683 318.036 564.841 328.97 551.466 328.97C546.586 328.994 541.808 327.503 537.737 324.686C534.431 327.505 530.292 329.033 526.028 329.01C516.038 329.01 507.933 320.821 507.933 310.722C507.933 310.28 507.933 309.854 508.001 309.428H507.933C497.235 309.428 488.565 300.663 488.565 289.846C488.591 286.198 489.594 282.631 491.46 279.549C493.325 276.467 495.979 273.994 499.12 272.41V272.41Z" fill="url(#paint4_linear)"/>
<path opacity="0.6" d="M634.947 283.693C620.235 311.408 590.343 329.94 559.377 342.161C517.682 358.62 471.765 365.147 426.479 362.387C418.539 361.908 410.627 361.138 402.742 360.076C375.345 356.421 348.636 349.315 323.378 338.96C316.103 335.96 308.957 332.697 301.94 329.171C290.257 323.26 279.063 316.578 268.448 309.178C265.778 307.317 263.145 305.409 260.549 303.454C258.748 302.099 256.965 300.713 255.153 299.368C251.331 296.532 247.398 293.837 243.011 291.819C241.687 291.21 240.33 290.663 238.945 290.181C225.051 285.357 209.031 287.177 194.567 290.939C183.577 293.776 172.869 297.695 161.862 300.491C156.974 301.773 151.992 302.739 146.955 303.383C135.706 304.691 124.279 303.783 113.447 300.718L112.522 300.456C110.971 300.011 109.433 299.523 107.907 298.994L106.982 298.671C105.505 298.151 104.059 297.594 102.645 296.997L101.72 296.613C100.243 295.986 98.7967 295.323 97.3823 294.625C96.8727 294.383 96.3686 294.12 95.87 293.872C87.8226 289.769 80.5076 284.571 74.1773 278.455C73.9945 278.288 73.8228 278.116 73.6234 277.949C72.7426 277.08 71.8784 276.195 71.0419 275.29C70.7317 274.956 70.4215 274.622 70.1169 274.278C69.1234 273.169 68.1651 272.038 67.2418 270.886C67.1034 270.719 66.9704 270.547 66.8375 270.38C63.0525 265.602 59.9147 260.424 57.4923 254.958C57.4148 254.791 57.3427 254.619 57.2763 254.452C56.5377 252.716 55.8637 250.951 55.2543 249.158C55.0051 248.41 54.7669 247.641 54.5564 246.893C54.4844 246.67 54.4179 246.443 54.3569 246.22C51.3268 235.238 51 223.815 51 212.459C51 211.134 51 209.811 51 208.489C51.0886 190.119 51.3988 171.436 54.368 153.319C54.368 153.192 54.4068 153.066 54.429 152.944C55.4227 146.845 56.7745 140.799 58.4783 134.832C60.2616 128.571 62.5407 122.437 65.2975 116.477C72.1277 101.814 82.06 88.4699 93.0892 76.1019C120.842 44.9998 157.275 18.8531 199.919 9.09922C245.869 -1.43331 296.938 8.65931 334.003 35.5949C345.303 43.8065 355.457 53.53 368.148 59.8253C379.227 65.3065 392.195 67.5768 404.061 63.2637C413.866 59.7242 420.247 57.9291 431.26 58.4702C454.058 59.6442 476.533 63.9378 497.933 71.2073C498.797 71.4955 499.662 71.7939 500.52 72.0922C556.309 91.5847 604.275 130.292 629.192 180.032C629.853 181.346 630.494 182.671 631.114 184.006C645.977 215.669 651.339 252.819 634.947 283.693Z" fill="url(#paint5_linear)"/>
<path d="M501.073 272.331C497.211 268.045 495.054 262.38 495.041 256.489C495.064 252.427 496.092 248.44 498.025 244.917C499.958 241.394 502.73 238.455 506.071 236.387C504.573 234.11 503.772 231.411 503.772 228.647C503.772 220.884 509.999 214.588 517.674 214.588C520.642 214.555 523.541 215.521 525.943 217.344C528.346 219.167 530.126 221.749 531.019 224.71C532.915 221.589 535.538 219.023 538.641 217.252C541.744 215.482 545.225 214.565 548.76 214.588C560.205 214.588 569.486 223.968 569.486 235.542C569.488 238.015 569.059 240.467 568.219 242.777C568.641 242.777 569.056 242.714 569.486 242.714C578.669 242.714 586.118 250.241 586.118 259.527C586.118 260.093 586.09 260.659 586.035 261.223C589.698 262.769 592.84 265.417 595.064 268.832C597.288 272.248 598.493 276.277 598.528 280.41C598.528 291.945 589.277 301.294 577.869 301.294C576.672 301.293 575.477 301.188 574.296 300.978C574.356 301.673 574.394 302.375 574.394 303.085C574.394 316.024 564.019 326.517 551.217 326.517C546.521 326.529 541.927 325.076 538.023 322.343C534.865 325.053 530.904 326.528 526.82 326.517C517.26 326.517 509.479 318.682 509.479 309.01C509.479 308.592 509.479 308.181 509.539 307.771H509.479C499.24 307.771 490.94 299.377 490.94 289.026C490.967 285.53 491.931 282.112 493.722 279.16C495.513 276.209 498.06 273.843 501.073 272.331V272.331Z" fill="#009688"/>
<path d="M543.633 247.819H536.855V378.051H543.633V247.819Z" fill="url(#paint6_linear)"/>
<path d="M542.231 247.819H538.483V378.051H542.231V247.819Z" fill="#795548"/>
<path d="M519.85 261.726L517.174 264.471L539.394 288.19L542.07 285.446L519.85 261.726Z" fill="#795548"/>
<path d="M562.704 288.668L539.666 305.586L541.819 308.796L564.857 291.878L562.704 288.668Z" fill="#795548"/>
<path d="M562.881 276.276C565.162 273.555 566.856 270.352 567.85 266.885C568.844 263.418 569.113 259.767 568.641 256.182C568.168 252.596 566.964 249.159 565.11 246.103C563.257 243.047 560.797 240.443 557.897 238.469C559.385 236.04 560.17 233.213 560.159 230.327C560.24 226.805 559.086 223.374 556.915 220.682C554.744 217.989 551.706 216.221 548.375 215.712C545.044 215.202 541.649 215.986 538.833 217.915C536.016 219.845 533.971 222.787 533.085 226.185C531.289 222.961 528.719 220.283 525.63 218.416C522.541 216.55 519.04 215.559 515.473 215.542C504.103 215.542 494.883 225.404 494.883 237.578C494.879 240.17 495.305 242.743 496.142 245.183C495.727 245.183 495.305 245.112 494.883 245.112C492.688 245.138 490.519 245.616 488.5 246.519C486.482 247.422 484.653 248.732 483.118 250.375C481.584 252.017 480.373 253.96 479.556 256.092C478.739 258.224 478.331 260.504 478.356 262.801C478.356 263.4 478.356 264 478.439 264.584C474.724 266.327 471.573 269.163 469.37 272.746C467.167 276.329 466.006 280.505 466.029 284.765C466.029 296.892 475.22 306.73 486.552 306.73C487.742 306.729 488.931 306.618 490.103 306.398C490.042 307.132 490.005 307.866 490.005 308.615C490.005 322.225 500.319 333.262 513.03 333.262C517.73 333.265 522.314 331.731 526.141 328.876C529.222 331.702 533.18 333.261 537.277 333.262C539.562 333.236 541.82 332.738 543.921 331.798C546.023 330.858 547.927 329.494 549.524 327.784C551.122 326.074 552.382 324.052 553.233 321.832C554.083 319.613 554.508 317.239 554.482 314.848C554.482 314.406 554.482 313.972 554.422 313.538H554.482C564.66 313.538 572.909 304.71 572.909 293.815C572.923 290.213 571.997 286.675 570.23 283.584C568.462 280.493 565.921 277.966 562.881 276.276V276.276Z" fill="url(#paint7_linear)"/>
<path d="M560.22 276.166C562.357 273.608 563.945 270.6 564.876 267.345C565.807 264.089 566.059 260.663 565.615 257.297C565.172 253.931 564.042 250.704 562.303 247.834C560.565 244.964 558.257 242.519 555.538 240.663C556.943 238.387 557.689 235.735 557.686 233.026C557.762 229.719 556.679 226.498 554.642 223.97C552.604 221.442 549.752 219.782 546.625 219.303C543.497 218.825 540.311 219.561 537.666 221.372C535.022 223.184 533.103 225.945 532.271 229.136C530.583 226.107 528.168 223.592 525.265 221.84C522.362 220.088 519.073 219.16 515.722 219.148C505.046 219.148 496.398 228.41 496.398 239.834C496.395 242.268 496.796 244.684 497.582 246.974C497.19 246.974 496.828 246.911 496.398 246.911C492.243 246.961 488.277 248.734 485.37 251.84C482.463 254.946 480.851 259.132 480.889 263.479C480.889 264.047 480.889 264.607 480.965 265.152C477.479 266.788 474.522 269.448 472.454 272.81C470.386 276.171 469.296 280.089 469.316 284.087C469.316 295.471 477.941 304.702 488.58 304.702C489.697 304.7 490.812 304.594 491.912 304.387C491.852 305.073 491.822 305.767 491.822 306.469C491.822 319.243 501.502 329.602 513.437 329.602C517.851 329.605 522.156 328.165 525.749 325.483C528.639 328.138 532.353 329.602 536.199 329.602C540.529 329.55 544.663 327.7 547.691 324.461C550.72 321.221 552.395 316.855 552.348 312.323C552.348 311.913 552.348 311.535 552.288 311.101H552.348C554.645 311.074 556.915 310.574 559.027 309.629C561.14 308.684 563.054 307.314 564.66 305.595C566.266 303.876 567.533 301.843 568.388 299.612C569.243 297.381 569.67 294.995 569.644 292.592C569.65 289.215 568.776 285.901 567.115 283.007C565.455 280.112 563.07 277.747 560.22 276.166V276.166Z" fill="#00897B"/>
<path d="M526.126 249.759H521.105V380.442H526.126V249.759Z" fill="url(#paint8_linear)"/>
<path d="M525.056 251.598H522.53V380.442H525.056V251.598Z" fill="#795548"/>
<path d="M543.013 266.111L522.287 289.532L524.14 291.328L544.866 267.906L543.013 266.111Z" fill="#795548"/>
<path d="M502.491 292.848L500.985 294.97L522.473 311.669L523.979 309.547L502.491 292.848Z" fill="#795548"/>
<path d="M518.157 185.665H305.544V383.692H518.157V185.665Z" fill="url(#paint9_linear)"/>
<path d="M512.879 185.665H166.064V377.381H512.879V185.665Z" fill="white"/>
<path d="M529.474 204.6H188.69V111.503H517.034C520.333 111.503 523.497 112.874 525.83 115.316C528.163 117.757 529.474 121.068 529.474 124.521V204.6Z" fill="url(#paint10_linear)"/>
<path d="M188.682 115.187H514.101C517.4 115.187 520.564 116.559 522.897 119C525.23 121.441 526.541 124.753 526.541 128.205V202.201H188.682V115.187Z" fill="#6C63FF"/>
<path opacity="0.7" d="M188.682 115.187H514.101C517.4 115.187 520.564 116.559 522.897 119C525.23 121.441 526.541 124.753 526.541 128.205V202.201H188.682V115.187Z" fill="white"/>
<path d="M187.929 10.5089L70.313 97.1834V170.217V383.684H305.544V170.217V97.1834L187.929 10.5089Z" fill="url(#paint11_linear)"/>
<path d="M300.267 95.7238L188.683 10.5089L77.0985 95.7238V167.511H300.267V95.7238Z" fill="#6C63FF"/>
<path opacity="0.5" d="M300.267 95.7238L188.683 10.5089L77.0985 95.7238V167.511H300.267V95.7238Z" fill="white"/>
<path d="M300.267 167.519H77.0985V377.381H300.267V167.519Z" fill="white"/>
<path d="M314.592 138.32L188.683 44.2367L61.2657 138.32L52.9723 105.231L188.683 1.86981L324.393 105.231L314.592 138.32Z" fill="url(#paint12_linear)"/>
<path d="M313.438 133.475L188.683 38.4615L63.9346 133.475L58.6042 103.724L188.683 4.66272L318.768 103.724L313.438 133.475Z" fill="#6C63FF"/>
<path opacity="0.2" d="M313.438 133.475L188.683 38.4615L63.9346 133.475L58.6042 103.724L188.683 4.66272L318.768 103.724L313.438 133.475Z" fill="black"/>
<path d="M252.014 213.278H125.351V377.381H252.014V213.278Z" fill="#F2F2F2"/>
<path d="M252.014 213.278H125.351V241.68H252.014V213.278Z" fill="#6C63FF"/>
<path d="M252.014 348.978H125.351V377.381H252.014V348.978Z" fill="#6C63FF"/>
<path d="M400.798 318.375C401.098 318.375 401.385 318.25 401.597 318.028C401.809 317.806 401.929 317.505 401.929 317.191C401.929 316.877 401.809 316.576 401.597 316.355C401.385 316.133 401.098 316.008 400.798 316.008C400.498 316.008 400.21 316.133 399.998 316.355C399.786 316.576 399.667 316.877 399.667 317.191C399.667 317.505 399.786 317.806 399.998 318.028C400.21 318.25 400.498 318.375 400.798 318.375V318.375Z" fill="#00FF00"/>
<path d="M431.453 257.46H369.63V377.381H431.453V257.46Z" fill="#F2F2F2"/>
<path d="M505.34 232.213H447.286V276.394H505.34V232.213Z" fill="#F2F2F2"/>
<path opacity="0.2" d="M505.34 232.213H447.286V251.937H505.34V232.213Z" fill="#6C63FF"/>
<path d="M45.7645 295.929C42.3918 292.199 40.5045 287.265 40.4869 282.13C40.5096 278.593 41.406 275.122 43.0891 272.055C44.7721 268.987 47.1845 266.427 50.0922 264.623C48.7874 262.642 48.0881 260.292 48.0867 257.886C48.1422 254.582 49.4487 251.437 51.7191 249.141C53.9895 246.845 57.0381 245.586 60.195 245.641C62.7838 245.611 65.3133 246.453 67.4096 248.042C69.5059 249.632 71.0578 251.886 71.836 254.469C73.4882 251.751 75.7732 249.516 78.4766 247.975C81.18 246.434 84.2132 245.636 87.2918 245.657C97.259 245.657 105.341 253.83 105.341 263.905C105.343 266.062 104.968 268.202 104.233 270.217C104.602 270.217 104.987 270.162 105.341 270.162C113.341 270.162 119.825 276.718 119.825 284.805C119.824 285.298 119.799 285.79 119.749 286.28C122.939 287.626 125.676 289.932 127.613 292.907C129.55 295.882 130.599 299.391 130.629 302.99C130.629 313.034 122.577 321.176 112.64 321.176C111.596 321.175 110.554 321.082 109.526 320.899C109.578 321.507 109.609 322.114 109.609 322.738C109.609 334.012 100.561 343.148 89.4255 343.148C85.3326 343.159 81.3294 341.893 77.9278 339.511C75.1756 341.873 71.7236 343.159 68.1642 343.148C59.8708 343.148 53.0853 336.323 53.0853 327.897C53.0853 327.535 53.0853 327.172 53.1381 326.817H53.0853C44.1661 326.817 36.9358 319.503 36.9358 310.493C36.955 307.444 37.7929 304.461 39.354 301.886C40.915 299.311 43.1363 297.247 45.7645 295.929V295.929Z" fill="url(#paint13_linear)"/>
<path d="M47.3705 295.866C44.1593 292.289 42.3695 287.567 42.3643 282.659C42.383 279.273 43.2393 275.95 44.8499 273.013C46.4605 270.076 48.7705 267.626 51.5549 265.901C50.3066 264.003 49.6388 261.752 49.6398 259.448C49.6654 257.881 49.9856 256.335 50.5822 254.898C51.1787 253.461 52.04 252.161 53.1168 251.072C54.1937 249.984 55.4649 249.127 56.8579 248.553C58.2509 247.978 59.7384 247.697 61.2355 247.724C63.7079 247.698 66.123 248.503 68.125 250.022C70.127 251.54 71.6102 253.691 72.3562 256.158C73.9374 253.556 76.1242 251.417 78.7116 249.942C81.299 248.467 84.2022 247.703 87.1487 247.724C96.6861 247.724 104.422 255.542 104.422 265.191C104.423 267.251 104.066 269.294 103.366 271.219C103.713 271.219 104.067 271.164 104.422 271.164C112.082 271.164 118.287 277.475 118.287 285.183C118.287 285.655 118.265 286.126 118.219 286.596C121.271 287.886 123.889 290.096 125.741 292.944C127.593 295.792 128.596 299.151 128.623 302.596C128.623 312.213 120.918 320.008 111.403 320.008C110.392 320.008 109.384 319.918 108.387 319.74C108.44 320.316 108.47 320.907 108.47 321.499C108.47 332.284 99.8225 341.034 89.1466 341.034C85.243 341.034 81.4273 339.82 78.1842 337.546C75.551 339.806 72.2482 341.036 68.8428 341.026C60.8736 341.026 54.4123 334.493 54.4123 326.43C54.4123 326.083 54.4123 325.736 54.4651 325.396H54.4123C45.8776 325.396 38.9564 318.398 38.9564 309.767C38.9787 306.859 39.7786 304.016 41.2657 301.559C42.7528 299.102 44.8675 297.13 47.3705 295.866V295.866Z" fill="#009688"/>
<path d="M82.8511 275.432H77.1965V384H82.8511V275.432Z" fill="url(#paint14_linear)"/>
<path d="M81.675 275.432H78.5536V384H81.675V275.432Z" fill="#795548"/>
<path d="M63.0196 287.024L60.7906 289.31L79.3161 309.085L81.545 306.799L63.0196 287.024Z" fill="#795548"/>
<path d="M98.7459 309.487L79.5404 323.591L81.3334 326.265L100.539 312.161L98.7459 309.487Z" fill="#795548"/>
<path d="M8.82114 295.929C5.44849 292.199 3.56117 287.265 3.54352 282.13C3.56626 278.593 4.46266 275.122 6.14569 272.055C7.82872 268.987 10.2412 266.427 13.1488 264.623C11.8441 262.642 11.1448 260.292 11.1433 257.886C11.1988 254.582 12.5053 251.437 14.7757 249.141C17.0462 246.845 20.0948 245.586 23.2517 245.641C25.8405 245.611 28.3699 246.453 30.4662 248.042C32.5626 249.632 34.1145 251.886 34.8926 254.469C36.5449 251.751 38.8299 249.516 41.5333 247.975C44.2367 246.434 47.2699 245.636 50.3485 245.657C60.3157 245.657 68.398 253.83 68.398 263.905C68.3999 266.062 68.0243 268.202 67.2897 270.217C67.6591 270.217 68.0436 270.162 68.398 270.162C76.3973 270.162 82.8813 276.718 82.8813 284.805C82.8804 285.298 82.8552 285.79 82.8059 286.28C85.996 287.626 88.7328 289.932 90.6695 292.907C92.6062 295.882 93.6558 299.391 93.6853 302.99C93.6853 313.034 85.6332 321.176 75.6962 321.176C74.6527 321.175 73.6111 321.082 72.5824 320.899C72.6351 321.507 72.6653 322.114 72.6653 322.738C72.6653 334.012 63.6179 343.148 52.4822 343.148C48.3892 343.159 44.386 341.893 40.9845 339.511C38.2322 341.873 34.7803 343.159 31.2209 343.148C22.9275 343.148 16.142 336.323 16.142 327.897C16.142 327.535 16.142 327.172 16.1947 326.817H16.142C7.22278 326.817 -0.00756836 319.503 -0.00756836 310.493C0.0116263 307.444 0.84955 304.461 2.4106 301.886C3.97165 299.311 6.19298 297.247 8.82114 295.929V295.929Z" fill="url(#paint15_linear)"/>
<path d="M10.4271 295.866C7.21597 292.289 5.4261 287.567 5.4209 282.659C5.4396 279.273 6.29595 275.95 7.90657 273.013C9.51718 270.076 11.8272 267.626 14.6115 265.901C13.3632 264.003 12.6954 261.752 12.6965 259.448C12.722 257.881 13.0422 256.335 13.6388 254.898C14.2354 253.461 15.0967 252.161 16.1735 251.072C17.2503 249.984 18.5215 249.127 19.9145 248.553C21.3075 247.978 22.7951 247.697 24.2922 247.724C26.7646 247.698 29.1796 248.503 31.1816 250.022C33.1836 251.54 34.6669 253.691 35.4129 256.158C36.994 253.556 39.1809 251.417 41.7683 249.942C44.3557 248.467 47.2588 247.703 50.2053 247.724C59.7427 247.724 67.4782 255.542 67.4782 265.191C67.4801 267.251 67.1224 269.294 66.4227 271.219C66.7695 271.219 67.1238 271.164 67.4782 271.164C75.1383 271.164 81.3432 277.475 81.3432 285.183C81.3439 285.655 81.3212 286.126 81.2754 286.596C84.3277 287.886 86.9454 290.096 88.7975 292.944C90.6496 295.792 91.6527 299.151 91.6798 302.596C91.6798 312.213 83.9745 320.008 74.4597 320.008C73.449 320.008 72.4402 319.918 71.4439 319.74C71.4967 320.316 71.5269 320.907 71.5269 321.499C71.5269 332.284 62.8791 341.034 52.2032 341.034C48.2996 341.034 44.4839 339.82 41.2409 337.546C38.6076 339.806 35.3049 341.036 31.8995 341.026C23.9303 341.026 17.469 334.493 17.469 326.43C17.469 326.083 17.4689 325.736 17.5217 325.396H17.469C8.93428 325.396 2.01306 318.398 2.01306 309.767C2.03533 306.859 2.83528 304.016 4.32234 301.559C5.8094 299.102 7.92415 297.13 10.4271 295.866V295.866Z" fill="#009688"/>
<path d="M45.9078 275.432H40.2532V384H45.9078V275.432Z" fill="url(#paint16_linear)"/>
<path d="M44.7316 275.432H41.6102V384H44.7316V275.432Z" fill="#795548"/>
<path d="M26.0828 287.025L23.8539 289.312L42.3793 309.087L44.6083 306.8L26.0828 287.025Z" fill="#795548"/>
<path d="M61.8033 309.493L42.5978 323.597L44.3908 326.27L63.5963 312.167L61.8033 309.493Z" fill="#795548"/>
<path d="M92.8636 296.789C94.7676 294.518 96.1825 291.844 97.0125 288.951C97.8426 286.057 98.0682 283.01 97.6742 280.017C97.2802 277.024 96.2758 274.155 94.729 271.603C93.1822 269.052 91.1292 266.879 88.7093 265.231C89.9578 263.209 90.6203 260.853 90.6168 258.446C90.6861 255.508 89.7251 252.646 87.9152 250.399C86.1053 248.153 83.5719 246.677 80.7934 246.252C78.015 245.827 75.1838 246.481 72.8348 248.091C70.4858 249.701 68.7814 252.155 68.0437 254.99C66.5452 252.3 64.4012 250.065 61.8238 248.509C59.2464 246.952 56.3252 246.126 53.3493 246.114C51.0688 246.138 48.8152 246.632 46.7175 247.569C44.6198 248.505 42.7192 249.865 41.1246 251.571C39.5299 253.277 38.2725 255.296 37.4244 257.511C36.5763 259.726 36.154 262.095 36.1819 264.481C36.1818 266.633 36.5364 268.768 37.2299 270.793C36.8831 270.793 36.5363 270.738 36.1819 270.738C34.3451 270.757 32.5301 271.157 30.8414 271.913C29.1527 272.669 27.6235 273.767 26.3419 275.144C25.0603 276.521 24.0516 278.15 23.3737 279.937C22.6959 281.723 22.3623 283.632 22.3923 285.554C22.3923 286.059 22.3923 286.556 22.4601 287.045C19.364 288.499 16.7382 290.863 14.9018 293.849C13.0655 296.835 12.0976 300.315 12.116 303.866C12.0737 308.665 13.85 313.286 17.0561 316.718C20.2622 320.15 24.637 322.113 29.223 322.178C30.2165 322.177 31.2081 322.085 32.186 321.901C32.1332 322.509 32.1031 323.124 32.1031 323.748C32.1031 335.093 40.6981 344.26 51.2985 344.26C55.2177 344.259 59.039 342.98 62.2308 340.6C64.7983 342.957 68.0964 344.257 71.5118 344.26C75.3552 344.21 79.0225 342.566 81.7083 339.689C84.3942 336.812 85.8791 332.937 85.8368 328.915C85.8368 328.544 85.8368 328.189 85.784 327.826H85.8368C89.9554 327.776 93.8866 326.017 96.7664 322.936C99.6461 319.854 101.239 315.702 101.195 311.393C101.207 308.396 100.437 305.452 98.9694 302.879C97.5014 300.305 95.3903 298.2 92.8636 296.789V296.789Z" fill="url(#paint17_linear)"/>
<path d="M90.6469 296.694C92.4278 294.563 93.7506 292.056 94.5259 289.343C95.3011 286.63 95.5107 283.774 95.1404 280.97C94.7701 278.165 93.8287 275.476 92.3797 273.084C90.9307 270.693 89.008 268.655 86.7414 267.109C87.9117 265.211 88.5323 263 88.5283 260.742C88.5985 257.982 87.699 255.291 86.0003 253.178C84.3017 251.065 81.9217 249.678 79.311 249.278C76.7003 248.879 74.0403 249.495 71.8345 251.01C69.6288 252.525 68.0305 254.834 67.3424 257.499C65.9355 254.973 63.9223 252.875 61.5023 251.414C59.0822 249.953 56.3393 249.178 53.5452 249.168C49.2299 249.23 45.1143 251.081 42.1011 254.314C39.0878 257.547 37.4227 261.898 37.4711 266.414C37.4695 268.442 37.8036 270.455 38.4587 272.363C38.1345 272.363 37.8028 272.308 37.4711 272.308C34.003 272.349 30.6927 273.83 28.268 276.425C25.8433 279.02 24.5027 282.517 24.5409 286.146C24.5409 286.619 24.5409 287.085 24.6087 287.542C21.7035 288.906 19.2392 291.123 17.5153 293.924C15.7914 296.725 14.8821 299.99 14.8979 303.322C14.8517 307.828 16.5172 312.17 19.5285 315.392C22.5398 318.614 26.6504 320.453 30.957 320.505C31.8898 320.504 32.8208 320.417 33.739 320.245C33.6938 320.821 33.6636 321.396 33.6636 321.98C33.6636 332.631 41.7309 341.262 51.6829 341.262C55.3615 341.265 58.9489 340.065 61.9441 337.83C64.3528 340.036 67.4441 341.252 70.6447 341.254C72.4328 341.234 74.1996 340.845 75.844 340.11C77.4885 339.375 78.9785 338.308 80.2289 336.97C81.4793 335.632 82.4657 334.05 83.1316 332.313C83.7976 330.576 84.1301 328.719 84.1101 326.848C84.1101 326.501 84.1101 326.162 84.0649 325.823H84.1101C86.025 325.8 87.9169 325.383 89.6777 324.595C91.4385 323.807 93.0338 322.664 94.3724 321.231C95.711 319.798 96.7668 318.103 97.4794 316.243C98.192 314.383 98.5475 312.394 98.5256 310.391C98.5293 307.573 97.7973 304.808 96.4088 302.394C95.0202 299.981 93.0279 298.01 90.6469 296.694V296.694Z" fill="#00897B"/>
<path d="M62.2157 274.682H58.0312V383.629H62.2157V274.682Z" fill="url(#paint18_linear)"/>
<path d="M61.3259 276.213H59.2224V383.629H61.3259V276.213Z" fill="#795548"/>
<path d="M76.32 288.316L59.0414 307.842L60.5848 309.337L77.8634 289.812L76.32 288.316Z" fill="#795548"/>
<path d="M42.5166 310.601L41.2625 312.368L59.1788 326.291L60.433 324.524L42.5166 310.601Z" fill="#795548"/>
<path d="M537.812 41.641C527.15 30.0334 514.376 20.7752 500.243 14.4113C486.11 8.04738 470.903 4.70645 455.517 4.58515C440.132 4.46385 424.878 7.56462 410.655 13.7049C396.432 19.8453 383.526 28.9011 372.698 40.3392C329.037 86.3984 328.298 161.389 371.002 208.387C389.759 229.06 414.904 242.119 441.981 245.251C469.059 248.383 496.321 241.386 518.941 225.499L602.328 316.229C602.838 316.786 603.449 317.232 604.124 317.542C604.8 317.852 605.527 318.019 606.264 318.035C607.002 318.05 607.735 317.913 608.422 317.632C609.108 317.35 609.735 316.93 610.267 316.394L631.038 295.495C631.57 294.961 631.997 294.322 632.293 293.615C632.589 292.908 632.749 292.147 632.764 291.376C632.778 290.604 632.647 289.837 632.378 289.118C632.11 288.399 631.708 287.743 631.196 287.187L547.81 196.458C563.799 173.539 571.561 145.458 569.732 117.146C567.904 88.8337 556.603 62.1008 537.812 41.641V41.641ZM511.839 187.535C500.079 199.372 485.229 207.295 469.166 210.301C453.103 213.307 436.549 211.261 421.597 204.421C406.645 197.582 393.967 186.257 385.166 171.878C376.366 157.499 371.837 140.712 372.153 123.64C372.47 106.568 377.617 89.9771 386.944 75.966C396.27 61.9548 409.358 51.1524 424.552 44.9249C439.746 38.6974 456.363 37.3244 472.303 40.9795C488.242 44.6346 502.788 53.1537 514.101 65.4596C521.612 73.6305 527.512 83.2696 531.464 93.8265C535.415 104.383 537.341 115.652 537.131 126.987C536.921 138.323 534.579 149.504 530.24 159.893C525.9 170.282 519.647 179.674 511.839 187.535V187.535Z" fill="url(#paint19_linear)"/>
<path d="M393.552 101.294C384.271 101.294 384.256 116.379 393.552 116.379C402.848 116.379 402.841 101.294 393.552 101.294Z" fill="url(#paint20_linear)"/>
<path d="M458.226 52.9625C433.255 52.3708 410.524 65.4832 398.445 85.3097C394.502 91.7633 405.698 97.4674 409.619 91.0454C419.624 74.6588 438.638 64.2209 459.183 64.7968C480.731 65.3649 500.341 78.2643 510.723 96.1657C514.666 102.959 524.98 96.7811 521.067 90.0276C508.469 68.2761 484.026 53.57 458.226 52.9625Z" fill="url(#paint21_linear)"/>
<path d="M546.86 37.0492C536.197 25.4416 523.424 16.1834 509.29 9.81948C495.157 3.45558 479.95 0.114657 464.565 -0.00664459C449.179 -0.127946 433.926 2.97282 419.703 9.11315C405.479 15.2535 392.574 24.3093 381.745 35.7475C338.084 81.8066 337.346 156.797 380.049 203.795C398.807 224.468 423.951 237.527 451.028 240.659C478.106 243.791 505.369 236.794 527.988 220.907L611.375 311.637C611.885 312.194 612.496 312.64 613.171 312.95C613.847 313.26 614.574 313.427 615.311 313.443C616.049 313.458 616.782 313.321 617.469 313.04C618.156 312.758 618.782 312.338 619.314 311.803L640.093 290.895C640.625 290.361 641.051 289.722 641.347 289.016C641.644 288.309 641.804 287.548 641.818 286.776C641.833 286.004 641.702 285.237 641.433 284.519C641.164 283.8 640.762 283.144 640.251 282.588L556.864 191.858C572.851 168.939 580.61 140.859 578.78 112.549C576.951 84.2384 565.649 57.5075 546.86 37.0492V37.0492ZM520.886 182.943C509.126 194.78 494.276 202.703 478.213 205.709C462.15 208.715 445.596 206.669 430.644 199.83C415.693 192.99 403.015 181.665 394.214 167.286C385.413 152.907 380.884 136.12 381.201 119.048C381.517 101.976 386.664 85.3853 395.991 71.3742C405.318 57.363 418.406 46.5607 433.599 40.3331C448.793 34.1056 465.411 32.7326 481.35 36.3877C497.29 40.0428 511.835 48.562 523.148 60.8678C530.659 69.0387 536.559 78.6778 540.511 89.2347C544.462 99.7917 546.388 111.06 546.178 122.395C545.968 133.731 543.626 144.913 539.287 155.301C534.947 165.69 528.695 175.083 520.886 182.943V182.943Z" fill="#13C725"/>
<path d="M402.6 96.6785C393.319 96.6785 393.303 111.763 402.6 111.763C411.896 111.763 411.888 96.6785 402.6 96.6785Z" fill="#6C63FF"/>
<path d="M467.273 48.3708C442.302 47.7791 419.571 60.8915 407.493 80.7179C403.55 87.1716 414.746 92.8757 418.666 86.4537C428.671 70.0671 447.686 59.6292 468.231 60.2051C489.778 60.7732 509.389 73.6726 519.77 91.574C523.714 98.3669 534.028 92.1893 530.115 85.4359C517.516 63.7002 493.073 48.9862 467.273 48.3708Z" fill="#6C63FF"/>
<path d="M128.641 146H125.248V134.17H112.346V146H108.971V120.406H112.346V131.41H125.248V120.406H128.641V146ZM154.322 134.029C154.322 136.537 153.9 138.729 153.057 140.604C152.213 142.467 151.018 143.891 149.471 144.875C147.924 145.859 146.119 146.352 144.057 146.352C142.041 146.352 140.254 145.859 138.695 144.875C137.137 143.879 135.924 142.467 135.057 140.639C134.201 138.799 133.762 136.672 133.738 134.258V132.412C133.738 129.951 134.166 127.777 135.021 125.891C135.877 124.004 137.084 122.562 138.643 121.566C140.213 120.559 142.006 120.055 144.021 120.055C146.072 120.055 147.877 120.553 149.436 121.549C151.006 122.533 152.213 123.969 153.057 125.855C153.9 127.73 154.322 129.916 154.322 132.412V134.029ZM150.965 132.377C150.965 129.342 150.355 127.016 149.137 125.398C147.918 123.77 146.213 122.955 144.021 122.955C141.889 122.955 140.207 123.77 138.977 125.398C137.758 127.016 137.131 129.266 137.096 132.148V134.029C137.096 136.971 137.711 139.285 138.941 140.973C140.184 142.648 141.889 143.486 144.057 143.486C146.236 143.486 147.924 142.695 149.119 141.113C150.314 139.52 150.93 137.24 150.965 134.275V132.377ZM166.926 134.592C164.031 133.76 161.922 132.74 160.598 131.533C159.285 130.314 158.629 128.814 158.629 127.033C158.629 125.018 159.432 123.354 161.037 122.041C162.654 120.717 164.752 120.055 167.33 120.055C169.088 120.055 170.652 120.395 172.023 121.074C173.406 121.754 174.473 122.691 175.223 123.887C175.984 125.082 176.365 126.389 176.365 127.807H172.973C172.973 126.26 172.48 125.047 171.496 124.168C170.512 123.277 169.123 122.832 167.33 122.832C165.666 122.832 164.365 123.201 163.428 123.939C162.502 124.666 162.039 125.68 162.039 126.98C162.039 128.023 162.479 128.908 163.357 129.635C164.248 130.35 165.754 131.006 167.875 131.604C170.008 132.201 171.672 132.863 172.867 133.59C174.074 134.305 174.965 135.143 175.539 136.104C176.125 137.064 176.418 138.195 176.418 139.496C176.418 141.57 175.609 143.234 173.992 144.488C172.375 145.73 170.213 146.352 167.506 146.352C165.748 146.352 164.107 146.018 162.584 145.35C161.061 144.67 159.883 143.744 159.051 142.572C158.23 141.4 157.82 140.07 157.82 138.582H161.213C161.213 140.129 161.781 141.354 162.918 142.256C164.066 143.146 165.596 143.592 167.506 143.592C169.287 143.592 170.652 143.229 171.602 142.502C172.551 141.775 173.025 140.785 173.025 139.531C173.025 138.277 172.586 137.311 171.707 136.631C170.828 135.939 169.234 135.26 166.926 134.592ZM198.443 123.184H190.217V146H186.859V123.184H178.65V120.406H198.443V123.184ZM216.707 134.17H205.615V143.24H218.5V146H202.24V120.406H218.324V123.184H205.615V131.41H216.707V134.17ZM226.094 143.24H238.223V146H222.701V120.406H226.094V143.24ZM249.613 134.592C246.719 133.76 244.609 132.74 243.285 131.533C241.973 130.314 241.316 128.814 241.316 127.033C241.316 125.018 242.119 123.354 243.725 122.041C245.342 120.717 247.439 120.055 250.018 120.055C251.775 120.055 253.34 120.395 254.711 121.074C256.094 121.754 257.16 122.691 257.91 123.887C258.672 125.082 259.053 126.389 259.053 127.807H255.66C255.66 126.26 255.168 125.047 254.184 124.168C253.199 123.277 251.811 122.832 250.018 122.832C248.354 122.832 247.053 123.201 246.115 123.939C245.189 124.666 244.727 125.68 244.727 126.98C244.727 128.023 245.166 128.908 246.045 129.635C246.936 130.35 248.441 131.006 250.562 131.604C252.695 132.201 254.359 132.863 255.555 133.59C256.762 134.305 257.652 135.143 258.227 136.104C258.812 137.064 259.105 138.195 259.105 139.496C259.105 141.57 258.297 143.234 256.68 144.488C255.062 145.73 252.9 146.352 250.193 146.352C248.436 146.352 246.795 146.018 245.271 145.35C243.748 144.67 242.57 143.744 241.738 142.572C240.918 141.4 240.508 140.07 240.508 138.582H243.9C243.9 140.129 244.469 141.354 245.605 142.256C246.754 143.146 248.283 143.592 250.193 143.592C251.975 143.592 253.34 143.229 254.289 142.502C255.238 141.775 255.713 140.785 255.713 139.531C255.713 138.277 255.273 137.311 254.395 136.631C253.516 135.939 251.922 135.26 249.613 134.592Z" fill="black"/>
</g>
<defs>
<linearGradient id="paint0_linear" x1="644.548" y1="295.187" x2="644.548" y2="123.59" gradientUnits="userSpaceOnUse">
<stop stop-color="#808080" stop-opacity="0.25"/>
<stop offset="0.54" stop-color="#808080" stop-opacity="0.12"/>
<stop offset="1" stop-color="#808080" stop-opacity="0.1"/>
</linearGradient>
<linearGradient id="paint1_linear" x1="9047.15" y1="89112.2" x2="9047.15" y2="42818.1" gradientUnits="userSpaceOnUse">
<stop stop-color="#808080" stop-opacity="0.25"/>
<stop offset="0.54" stop-color="#808080" stop-opacity="0.12"/>
<stop offset="1" stop-color="#808080" stop-opacity="0.1"/>
</linearGradient>
<linearGradient id="paint2_linear" x1="145974" y1="110646" x2="145974" y2="71659.4" gradientUnits="userSpaceOnUse">
<stop stop-color="#808080" stop-opacity="0.25"/>
<stop offset="0.54" stop-color="#808080" stop-opacity="0.12"/>
<stop offset="1" stop-color="#808080" stop-opacity="0.1"/>
</linearGradient>
<linearGradient id="paint3_linear" x1="6381.42" y1="91649.1" x2="6381.42" y2="43601.5" gradientUnits="userSpaceOnUse">
<stop stop-color="#808080" stop-opacity="0.25"/>
<stop offset="0.54" stop-color="#808080" stop-opacity="0.12"/>
<stop offset="1" stop-color="#808080" stop-opacity="0.1"/>
</linearGradient>
<linearGradient id="paint4_linear" x1="98113.1" y1="78155.4" x2="98113.1" y2="60822.6" gradientUnits="userSpaceOnUse">
<stop stop-color="#808080" stop-opacity="0.25"/>
<stop offset="0.54" stop-color="#808080" stop-opacity="0.12"/>
<stop offset="1" stop-color="#808080" stop-opacity="0.1"/>
</linearGradient>
<linearGradient id="paint5_linear" x1="576.5" y1="-90.5" x2="11.5" y2="438" gradientUnits="userSpaceOnUse">
<stop stop-color="#00FF19"/>
<stop offset="1" stop-color="#0038FF" stop-opacity="0.95"/>
</linearGradient>
<linearGradient id="paint6_linear" x1="5393.71" y1="62652.8" x2="5393.71" y2="41155.2" gradientUnits="userSpaceOnUse">
<stop stop-color="#808080" stop-opacity="0.25"/>
<stop offset="0.54" stop-color="#808080" stop-opacity="0.12"/>
<stop offset="1" stop-color="#808080" stop-opacity="0.1"/>
</linearGradient>
<linearGradient id="paint7_linear" x1="89743.9" y1="79308" x2="89743.9" y2="61743" gradientUnits="userSpaceOnUse">
<stop stop-color="#808080" stop-opacity="0.25"/>
<stop offset="0.54" stop-color="#808080" stop-opacity="0.12"/>
<stop offset="1" stop-color="#808080" stop-opacity="0.1"/>
</linearGradient>
<linearGradient id="paint8_linear" x1="4008.36" y1="63266.1" x2="4008.36" y2="41619.9" gradientUnits="userSpaceOnUse">
<stop stop-color="#808080" stop-opacity="0.25"/>
<stop offset="0.54" stop-color="#808080" stop-opacity="0.12"/>
<stop offset="1" stop-color="#808080" stop-opacity="0.1"/>
</linearGradient>
<linearGradient id="paint9_linear" x1="116447" y1="96492.4" x2="116447" y2="46787.5" gradientUnits="userSpaceOnUse">
<stop stop-color="#808080" stop-opacity="0.25"/>
<stop offset="0.54" stop-color="#808080" stop-opacity="0.12"/>
<stop offset="1" stop-color="#808080" stop-opacity="0.1"/>
</linearGradient>
<linearGradient id="paint10_linear" x1="212350" y1="47478.1" x2="212350" y2="36492.7" gradientUnits="userSpaceOnUse">
<stop stop-color="#808080" stop-opacity="0.25"/>
<stop offset="0.54" stop-color="#808080" stop-opacity="0.12"/>
<stop offset="1" stop-color="#808080" stop-opacity="0.1"/>
</linearGradient>
<linearGradient id="paint11_linear" x1="58704" y1="181497" x2="58704" y2="4984.93" gradientUnits="userSpaceOnUse">
<stop stop-color="#808080" stop-opacity="0.25"/>
<stop offset="0.54" stop-color="#808080" stop-opacity="0.12"/>
<stop offset="1" stop-color="#808080" stop-opacity="0.1"/>
</linearGradient>
<linearGradient id="paint12_linear" x1="67978.7" y1="23925.6" x2="67978.7" y2="325.257" gradientUnits="userSpaceOnUse">
<stop stop-color="#808080" stop-opacity="0.25"/>
<stop offset="0.54" stop-color="#808080" stop-opacity="0.12"/>
<stop offset="1" stop-color="#808080" stop-opacity="0.1"/>
</linearGradient>
<linearGradient id="paint13_linear" x1="24156.3" y1="66976.7" x2="24156.3" y2="54928.5" gradientUnits="userSpaceOnUse">
<stop stop-color="#808080" stop-opacity="0.25"/>
<stop offset="0.54" stop-color="#808080" stop-opacity="0.12"/>
<stop offset="1" stop-color="#808080" stop-opacity="0.1"/>
</linearGradient>
<linearGradient id="paint14_linear" x1="677.375" y1="53117.7" x2="677.375" y2="38177.6" gradientUnits="userSpaceOnUse">
<stop stop-color="#808080" stop-opacity="0.25"/>
<stop offset="0.54" stop-color="#808080" stop-opacity="0.12"/>
<stop offset="1" stop-color="#808080" stop-opacity="0.1"/>
</linearGradient>
<linearGradient id="paint15_linear" x1="19528.4" y1="66976.7" x2="19528.4" y2="54928.5" gradientUnits="userSpaceOnUse">
<stop stop-color="#808080" stop-opacity="0.25"/>
<stop offset="0.54" stop-color="#808080" stop-opacity="0.12"/>
<stop offset="1" stop-color="#808080" stop-opacity="0.1"/>
</linearGradient>
<linearGradient id="paint16_linear" x1="363.356" y1="53117.7" x2="363.356" y2="38177.6" gradientUnits="userSpaceOnUse">
<stop stop-color="#808080" stop-opacity="0.25"/>
<stop offset="0.54" stop-color="#808080" stop-opacity="0.12"/>
<stop offset="1" stop-color="#808080" stop-opacity="0.1"/>
</linearGradient>
<linearGradient id="paint17_linear" x1="19741.6" y1="67559.5" x2="19741.6" y2="55351.2" gradientUnits="userSpaceOnUse">
<stop stop-color="#808080" stop-opacity="0.25"/>
<stop offset="0.54" stop-color="#808080" stop-opacity="0.12"/>
<stop offset="1" stop-color="#808080" stop-opacity="0.1"/>
</linearGradient>
<linearGradient id="paint18_linear" x1="391.737" y1="53250.1" x2="391.737" y2="38205.6" gradientUnits="userSpaceOnUse">
<stop stop-color="#808080" stop-opacity="0.25"/>
<stop offset="0.54" stop-color="#808080" stop-opacity="0.12"/>
<stop offset="1" stop-color="#808080" stop-opacity="0.1"/>
</linearGradient>
<linearGradient id="paint19_linear" x1="486.122" y1="318.059" x2="486.122" y2="4.5917" gradientUnits="userSpaceOnUse">
<stop stop-color="#B3B3B3" stop-opacity="0.25"/>
<stop offset="0.54" stop-color="#B3B3B3" stop-opacity="0.1"/>
<stop offset="1" stop-color="#B3B3B3" stop-opacity="0.05"/>
</linearGradient>
<linearGradient id="paint20_linear" x1="393.552" y1="116.387" x2="393.552" y2="101.294" gradientUnits="userSpaceOnUse">
<stop stop-opacity="0.12"/>
<stop offset="0.55" stop-opacity="0.09"/>
<stop offset="1" stop-opacity="0.02"/>
</linearGradient>
<linearGradient id="paint21_linear" x1="94399.4" y1="17368.5" x2="94399.4" y2="14668.5" gradientUnits="userSpaceOnUse">
<stop stop-opacity="0.12"/>
<stop offset="0.55" stop-opacity="0.09"/>
<stop offset="1" stop-opacity="0.02"/>
</linearGradient>
<clipPath id="clip0">
<rect width="727" height="384" fill="white"/>
</clipPath>
</defs>
</svg>
