<svg width="1137" height="532" viewBox="0 0 1137 532" fill="none" xmlns="http://www.w3.org/2000/svg">
<path d="M112.613 529L111 528.612C128.985 443.196 174.184 365.63 238.27 310.203C286.721 268.363 344.346 240.381 405.719 228.89C467.092 217.4 530.194 222.779 589.083 244.521C647.972 266.264 700.711 303.654 742.333 353.172C783.955 402.69 813.092 462.707 827 527.57L825.389 527.961C787.317 349.441 640.81 224.761 469.111 224.761C299.661 224.761 149.732 352.711 112.613 529Z" fill="#3F3D56"/>
<path d="M877.571 488.556L880 507.296L863 509L865.429 486L877.571 488.556Z" fill="#A0616A"/>
<path d="M795.61 222C795.61 222 797.296 245.797 797.296 246.678C797.296 247.559 785.494 308.373 785.494 308.373C785.494 308.373 768.633 341.864 785.494 340.983C802.354 340.102 797.296 309.254 797.296 309.254L815 258.136L807.413 222H795.61Z" fill="#A0616A"/>
<path d="M822.571 488.556L820 507.296L838 509L835.429 486L822.571 488.556Z" fill="#A0616A"/>
<path d="M804.206 306.416L800.096 312.599C800.096 312.599 797.63 339.096 800.096 347.929C802.562 356.761 807.494 397.39 807.494 400.04C807.494 402.69 808.316 404.456 807.494 405.339C806.672 406.223 804.206 406.223 805.85 407.989C807.494 409.756 807.494 415.055 807.494 415.055V419.471L818.18 484.831C818.18 484.831 811.604 492.78 816.536 492.78C821.468 492.78 839.552 492.78 838.73 483.948L837.086 483.065C837.086 483.065 834.62 424.771 835.442 422.121C836.264 419.471 835.442 414.172 835.442 414.172C835.442 414.172 833.798 411.522 835.442 410.639C837.086 409.756 837.086 402.69 837.086 402.69L844.484 348.812C844.484 348.812 851.06 385.025 855.17 388.558C859.28 392.091 858.458 400.923 858.458 400.923L861.747 478.649C861.747 478.649 858.458 487.481 861.747 489.247C865.035 491.014 879.009 497.197 879.831 488.364C880.653 479.532 884.763 402.69 884.763 399.157C884.763 395.624 883.941 393.857 884.763 391.208C885.585 388.558 883.941 388.558 884.763 388.558C885.585 388.558 883.119 385.908 883.119 384.142V340.863C883.119 340.863 883.941 332.03 884.763 330.264C885.585 328.497 883.941 326.731 884.763 324.081C885.585 321.431 883.119 312.599 883.119 312.599L846.128 302L804.206 306.416Z" fill="#2F2E41"/>
<path d="M832.544 504.346C832.544 504.346 836.688 500 830.887 500C827.163 500.08 823.495 500.967 820.115 502.607L815.972 518.252C815.972 518.252 798.984 532.592 818.043 530.854C837.102 529.116 834.202 530.419 834.202 530.419C834.202 530.419 840.002 528.681 840.831 526.943C841.66 525.205 839.174 500 839.174 500C839.174 500 836.688 506.953 832.544 504.346Z" fill="#2F2E41"/>
<path d="M868.736 504.346C868.736 504.346 864.642 500 870.374 500C874.053 500.08 877.677 500.967 881.018 502.607L885.112 518.252C885.112 518.252 901.896 532.592 883.065 530.854C864.233 529.116 864.642 530.419 864.642 530.419C864.642 530.419 858.911 528.681 858.092 526.943C857.273 525.205 862.186 500 862.186 500C862.186 500 864.642 506.953 868.736 504.346Z" fill="#2F2E41"/>
<path d="M252 219H245V529H252V219Z" fill="#3F3D56"/>
<path d="M319.998 258.647C320.467 366.895 248.849 455 248.849 455C248.849 455 176.471 367.601 176.002 259.353C175.533 151.105 247.151 63 247.151 63C247.151 63 319.529 150.399 319.998 258.647Z" fill="#05C73B"/>
<path d="M764 401H195V530H764V401Z" fill="#F2F2F2"/>
<path d="M177 415L238.952 277H733.742L780 415H177Z" fill="#3F3D56"/>
<path d="M561 286H331V367H561V286Z" fill="#F2F2F2"/>
<path d="M346.267 219L310 301H582L560.57 219H346.267Z" fill="#3F3D56"/>
<path d="M533 427H351V530H533V427Z" fill="#CCCCCC"/>
<path d="M314 430H217V530H314V430Z" fill="#CCCCCC"/>
<path d="M614 436H564V530H614V436Z" fill="#3F3D56"/>
<path d="M1137 529H0V531H1137V529Z" fill="#3F3D56"/>
<path d="M162 325H157V529H162V325Z" fill="#3F3D56"/>
<path d="M206.998 351.267C207.308 422.788 160.06 481 160.06 481C160.06 481 112.311 423.254 112.002 351.733C111.692 280.212 158.94 222 158.94 222C158.94 222 206.689 279.746 206.998 351.267Z" fill="#6C63FF"/>
<path opacity="0.1" d="M206.998 351.267C207.308 422.788 160.06 481 160.06 481C160.06 481 112.311 423.254 112.002 351.733C111.692 280.212 158.94 222 158.94 222C158.94 222 206.689 279.746 206.998 351.267Z" fill="#05C73B"/>
<path d="M99 325H94V529H99V325Z" fill="#3F3D56"/>
<path d="M143.998 351.267C144.308 422.788 97.0604 481 97.0604 481C97.0604 481 49.311 423.254 49.0015 351.733C48.692 280.212 95.9396 222 95.9396 222C95.9396 222 143.689 279.746 143.998 351.267Z" fill="#05C73B"/>
<path d="M693 442H668V466H693V442Z" fill="#3F3D56"/>
<path d="M725 442H701V466H725V442Z" fill="#3F3D56"/>
<path d="M693 475H668V500H693V475Z" fill="#3F3D56"/>
<path d="M725 475H701V500H725V475Z" fill="#3F3D56"/>
<path d="M371 308H352V327H371V308Z" fill="#3F3D56"/>
<path d="M397 308H378V327H397V308Z" fill="#3F3D56"/>
<path d="M371 334H352V353H371V334Z" fill="#3F3D56"/>
<path d="M397 334H378V353H397V334Z" fill="#3F3D56"/>
<path d="M514 308H495V327H514V308Z" fill="#3F3D56"/>
<path d="M540 308H521V327H540V308Z" fill="#3F3D56"/>
<path d="M514 334H495V353H514V334Z" fill="#3F3D56"/>
<path d="M540 334H521V353H540V334Z" fill="#3F3D56"/>
<path d="M443 308H424V327H443V308Z" fill="#3F3D56"/>
<path d="M469 308H450V327H469V308Z" fill="#3F3D56"/>
<path d="M443 334H424V353H443V334Z" fill="#3F3D56"/>
<path d="M469 334H450V353H469V334Z" fill="#3F3D56"/>
<path d="M587 446H575V458H587V446Z" fill="#F2F2F2"/>
<path d="M604 446H592V458H604V446Z" fill="#F2F2F2"/>
<path d="M587 462H575V474H587V462Z" fill="#F2F2F2"/>
<path d="M604 462H592V474H604V462Z" fill="#F2F2F2"/>
<path d="M607.5 493C609.433 493 611 491.433 611 489.5C611 487.567 609.433 486 607.5 486C605.567 486 604 487.567 604 489.5C604 491.433 605.567 493 607.5 493Z" fill="#F2F2F2"/>
<path d="M533 438H351V439H533V438Z" fill="#F2F2F2"/>
<path d="M533 446H351V447H533V446Z" fill="#F2F2F2"/>
<path d="M533 453H351V455H533V453Z" fill="#F2F2F2"/>
<path d="M533 461H351V463H533V461Z" fill="#F2F2F2"/>
<path d="M533 469H351V471H533V469Z" fill="#F2F2F2"/>
<path d="M533 477H351V479H533V477Z" fill="#F2F2F2"/>
<path d="M533 485H351V487H533V485Z" fill="#F2F2F2"/>
<path d="M533 493H351V495H533V493Z" fill="#F2F2F2"/>
<path d="M533 501H351V503H533V501Z" fill="#F2F2F2"/>
<path d="M635 506H415V508H635V506Z" fill="#F2F2F2"/>
<path d="M635 515H415V517H635V515Z" fill="#F2F2F2"/>
<path d="M314 438H217V439H314V438Z" fill="#F2F2F2"/>
<path d="M314 446H217V447H314V446Z" fill="#F2F2F2"/>
<path d="M314 453H217V455H314V453Z" fill="#F2F2F2"/>
<path d="M314 461H217V463H314V461Z" fill="#F2F2F2"/>
<path d="M314 469H217V471H314V469Z" fill="#F2F2F2"/>
<path d="M314 477H217V479H314V477Z" fill="#F2F2F2"/>
<path d="M314 485H217V487H314V485Z" fill="#F2F2F2"/>
<path d="M314 493H217V495H314V493Z" fill="#F2F2F2"/>
<path d="M314 501H217V503H314V501Z" fill="#F2F2F2"/>
<path d="M369.5 506H252.5V508H369.5V506Z" fill="#F2F2F2"/>
<path d="M369.5 515H252.5V517H369.5V515Z" fill="#F2F2F2"/>
<path d="M814.5 152C826.374 152 836 141.926 836 129.5C836 117.074 826.374 107 814.5 107C802.626 107 793 117.074 793 129.5C793 141.926 802.626 152 814.5 152Z" fill="#A0616A"/>
<path d="M807 145.889C807 145.889 810.3 163.667 810.3 166.333C810.3 169 824.325 177 824.325 177L840 155.667C840 155.667 830.1 140.556 830.1 137L807 145.889Z" fill="#A0616A"/>
<path d="M819.276 169.473C819.276 169.473 812.063 167.426 809.876 164.037C809.876 164.037 787 188.002 787 192.413L805.207 226.824C805.207 226.824 805.207 239.177 806.862 240.059C808.517 240.942 806.862 240.059 806.862 243.589C806.862 247.118 801.897 270.059 803.552 273.588C805.207 277.117 806.862 274.47 805.207 279.765C803.552 285.059 799.414 313.293 799.414 313.293C799.414 313.293 814.31 307.999 835.828 316.823C857.345 325.646 883 313.293 883 313.293C883 313.293 876.379 297.411 878.034 292.117C879.69 286.823 873.897 277.117 873.897 277.117L869.759 195.943C869.759 195.943 875.552 159.767 871.414 158.002L863.138 154.473L836.635 151C836.635 151 830.034 168.59 819.276 169.473Z" fill="#05C73B"/>
<path d="M796.038 186L787.825 192.087C787.825 192.087 783.719 205.13 787.825 211.217C791.932 217.304 793.574 226 793.574 226L810 224.261L796.038 186Z" fill="#2300EB"/>
<path d="M856.719 194C856.719 194 851.963 207.156 852.956 220.173C853.138 222.503 853.867 224.746 855.076 226.69V226.69L796.81 256.447C796.81 256.447 770.483 259.379 777.053 271.748C783.623 284.117 807.441 265.564 807.441 265.564C807.441 265.564 869.859 255.845 874.787 246.127C879.715 236.408 883 195.767 883 195.767L856.719 194Z" fill="#A0616A"/>
<path d="M798.262 105.132L794.515 103.539C794.515 103.539 802.35 94.3824 813.251 95.1787L810.185 91.5956C810.185 91.5956 817.679 88.4106 824.492 96.7711C828.073 101.166 832.217 106.332 834.8 112.151H838.813L837.138 116.066L843 119.981L836.983 119.278C837.553 122.658 837.358 126.133 836.414 129.417L836.576 132.511C836.576 132.511 829.601 121.056 829.601 119.464V123.445C829.601 123.445 825.854 119.862 825.854 117.473L823.811 120.26L822.789 115.881L810.185 120.26L812.229 116.677L804.394 117.871L807.46 113.492C807.46 113.492 798.603 118.668 798.262 123.047C797.922 127.426 793.494 133 793.494 133L791.45 129.019C791.45 129.019 788.384 111.103 798.262 105.132Z" fill="#2F2E41"/>
<path d="M859.74 158H872.041C872.041 158 881.061 159.745 883.521 177.191C885.981 194.638 888.441 199 885.981 199C883.521 199 854 198.128 854 197.255C854 196.383 859.74 158 859.74 158Z" fill="#2600FF"/>
<path d="M957 234.217V285H635V251.734C646.468 251.066 662.481 248.495 683.028 241.393C707.602 232.895 740.991 230.66 766.833 230.425C784.537 230.263 802.167 231.316 818.994 233.424C837.924 235.791 874.41 238.646 902.134 230.359C932.785 221.195 949.083 228.753 954.706 232.457C956.26 233.483 957 234.217 957 234.217Z" fill="#6C63FF"/>
<path d="M957 319.429V285H635V307.553C646.468 308.006 662.481 309.749 683.028 314.564C707.602 320.325 740.991 321.841 766.833 322C784.537 322.11 802.167 321.396 818.994 319.967C837.924 318.362 874.41 316.426 902.134 322.045C932.785 328.257 949.083 323.134 954.706 320.622C956.26 319.927 957 319.429 957 319.429Z" fill="#6C63FF"/>
<path d="M670.971 292V266.406H679.338C682.115 266.406 684.201 266.98 685.596 268.129C687.002 269.277 687.705 270.977 687.705 273.227C687.705 274.422 687.365 275.482 686.686 276.408C686.006 277.322 685.08 278.031 683.908 278.535C685.291 278.922 686.381 279.66 687.178 280.75C687.986 281.828 688.391 283.117 688.391 284.617C688.391 286.914 687.646 288.719 686.158 290.031C684.67 291.344 682.566 292 679.848 292H670.971ZM674.346 280.029V289.24H679.918C681.488 289.24 682.725 288.836 683.627 288.027C684.541 287.207 684.998 286.082 684.998 284.652C684.998 281.57 683.322 280.029 679.971 280.029H674.346ZM674.346 277.322H679.443C680.92 277.322 682.098 276.953 682.977 276.215C683.867 275.477 684.312 274.475 684.312 273.209C684.312 271.803 683.902 270.783 683.082 270.15C682.262 269.506 681.014 269.184 679.338 269.184H674.346V277.322ZM692.029 282.314C692.029 280.451 692.393 278.775 693.119 277.287C693.857 275.799 694.877 274.65 696.178 273.842C697.49 273.033 698.984 272.629 700.66 272.629C703.25 272.629 705.342 273.525 706.936 275.318C708.541 277.111 709.344 279.496 709.344 282.473V282.701C709.344 284.553 708.986 286.217 708.271 287.693C707.568 289.158 706.555 290.301 705.23 291.121C703.918 291.941 702.406 292.352 700.695 292.352C698.117 292.352 696.025 291.455 694.42 289.662C692.826 287.869 692.029 285.496 692.029 282.543V282.314ZM695.299 282.701C695.299 284.811 695.785 286.504 696.758 287.781C697.742 289.059 699.055 289.697 700.695 289.697C702.348 289.697 703.66 289.053 704.633 287.764C705.605 286.463 706.092 284.646 706.092 282.314C706.092 280.229 705.594 278.541 704.598 277.252C703.613 275.951 702.301 275.301 700.66 275.301C699.055 275.301 697.76 275.939 696.775 277.217C695.791 278.494 695.299 280.322 695.299 282.701ZM725.164 292C724.977 291.625 724.824 290.957 724.707 289.996C723.195 291.566 721.391 292.352 719.293 292.352C717.418 292.352 715.877 291.824 714.67 290.77C713.475 289.703 712.877 288.355 712.877 286.727C712.877 284.746 713.627 283.211 715.127 282.121C716.639 281.02 718.76 280.469 721.49 280.469H724.654V278.975C724.654 277.838 724.314 276.936 723.635 276.268C722.955 275.588 721.953 275.248 720.629 275.248C719.469 275.248 718.496 275.541 717.711 276.127C716.926 276.713 716.533 277.422 716.533 278.254H713.264C713.264 277.305 713.598 276.391 714.266 275.512C714.945 274.621 715.859 273.918 717.008 273.402C718.168 272.887 719.439 272.629 720.822 272.629C723.014 272.629 724.73 273.18 725.973 274.281C727.215 275.371 727.859 276.877 727.906 278.799V287.553C727.906 289.299 728.129 290.688 728.574 291.719V292H725.164ZM719.768 289.521C720.787 289.521 721.754 289.258 722.668 288.73C723.582 288.203 724.244 287.518 724.654 286.674V282.771H722.105C718.121 282.771 716.129 283.938 716.129 286.27C716.129 287.289 716.469 288.086 717.148 288.66C717.828 289.234 718.701 289.521 719.768 289.521ZM742.197 275.898C741.705 275.816 741.172 275.775 740.598 275.775C738.465 275.775 737.018 276.684 736.256 278.5V292H733.004V272.98H736.168L736.221 275.178C737.287 273.479 738.799 272.629 740.756 272.629C741.389 272.629 741.869 272.711 742.197 272.875V275.898ZM744.061 282.332C744.061 279.414 744.752 277.07 746.135 275.301C747.518 273.52 749.328 272.629 751.566 272.629C753.793 272.629 755.557 273.391 756.857 274.914V265H760.109V292H757.121L756.963 289.961C755.662 291.555 753.852 292.352 751.531 292.352C749.328 292.352 747.529 291.449 746.135 289.645C744.752 287.84 744.061 285.484 744.061 282.578V282.332ZM747.312 282.701C747.312 284.857 747.758 286.545 748.648 287.764C749.539 288.982 750.77 289.592 752.34 289.592C754.402 289.592 755.908 288.666 756.857 286.814V278.078C755.885 276.285 754.391 275.389 752.375 275.389C750.781 275.389 749.539 276.004 748.648 277.234C747.758 278.465 747.312 280.287 747.312 282.701ZM768.705 292H765.453V272.98H768.705V292ZM765.189 267.936C765.189 267.408 765.348 266.963 765.664 266.6C765.992 266.236 766.473 266.055 767.105 266.055C767.738 266.055 768.219 266.236 768.547 266.6C768.875 266.963 769.039 267.408 769.039 267.936C769.039 268.463 768.875 268.902 768.547 269.254C768.219 269.605 767.738 269.781 767.105 269.781C766.473 269.781 765.992 269.605 765.664 269.254C765.348 268.902 765.189 268.463 765.189 267.936ZM777.002 272.98L777.107 275.371C778.561 273.543 780.459 272.629 782.803 272.629C786.822 272.629 788.85 274.896 788.885 279.432V292H785.633V279.414C785.621 278.043 785.305 277.029 784.684 276.373C784.074 275.717 783.119 275.389 781.818 275.389C780.764 275.389 779.838 275.67 779.041 276.232C778.244 276.795 777.623 277.533 777.178 278.447V292H773.926V272.98H777.002ZM793.016 282.332C793.016 279.367 793.701 277.012 795.072 275.266C796.443 273.508 798.26 272.629 800.521 272.629C802.842 272.629 804.652 273.449 805.953 275.09L806.111 272.98H809.082V291.543C809.082 294.004 808.35 295.943 806.885 297.361C805.432 298.779 803.475 299.488 801.014 299.488C799.643 299.488 798.301 299.195 796.988 298.609C795.676 298.023 794.674 297.221 793.982 296.201L795.67 294.25C797.064 295.973 798.77 296.834 800.785 296.834C802.367 296.834 803.598 296.389 804.477 295.498C805.367 294.607 805.812 293.354 805.812 291.736V290.102C804.512 291.602 802.736 292.352 800.486 292.352C798.26 292.352 796.455 291.455 795.072 289.662C793.701 287.869 793.016 285.426 793.016 282.332ZM796.285 282.701C796.285 284.846 796.725 286.533 797.604 287.764C798.482 288.982 799.713 289.592 801.295 289.592C803.346 289.592 804.852 288.66 805.812 286.797V278.113C804.816 276.297 803.322 275.389 801.33 275.389C799.748 275.389 798.512 276.004 797.621 277.234C796.73 278.465 796.285 280.287 796.285 282.701ZM826.818 281.98V292H823.443V266.406H832.883C835.684 266.406 837.875 267.121 839.457 268.551C841.051 269.98 841.848 271.873 841.848 274.229C841.848 276.713 841.068 278.629 839.51 279.977C837.963 281.312 835.742 281.98 832.848 281.98H826.818ZM826.818 279.221H832.883C834.688 279.221 836.07 278.799 837.031 277.955C837.992 277.1 838.473 275.869 838.473 274.264C838.473 272.74 837.992 271.521 837.031 270.607C836.07 269.693 834.752 269.219 833.076 269.184H826.818V279.221ZM849.178 292H845.926V265H849.178V292ZM866.141 292C865.953 291.625 865.801 290.957 865.684 289.996C864.172 291.566 862.367 292.352 860.27 292.352C858.395 292.352 856.854 291.824 855.646 290.77C854.451 289.703 853.854 288.355 853.854 286.727C853.854 284.746 854.604 283.211 856.104 282.121C857.615 281.02 859.736 280.469 862.467 280.469H865.631V278.975C865.631 277.838 865.291 276.936 864.611 276.268C863.932 275.588 862.93 275.248 861.605 275.248C860.445 275.248 859.473 275.541 858.688 276.127C857.902 276.713 857.51 277.422 857.51 278.254H854.24C854.24 277.305 854.574 276.391 855.242 275.512C855.922 274.621 856.836 273.918 857.984 273.402C859.145 272.887 860.416 272.629 861.799 272.629C863.99 272.629 865.707 273.18 866.949 274.281C868.191 275.371 868.836 276.877 868.883 278.799V287.553C868.883 289.299 869.105 290.688 869.551 291.719V292H866.141ZM860.744 289.521C861.764 289.521 862.73 289.258 863.645 288.73C864.559 288.203 865.221 287.518 865.631 286.674V282.771H863.082C859.098 282.771 857.105 283.938 857.105 286.27C857.105 287.289 857.445 288.086 858.125 288.66C858.805 289.234 859.678 289.521 860.744 289.521ZM881.609 289.697C882.77 289.697 883.783 289.346 884.65 288.643C885.518 287.939 885.998 287.061 886.092 286.006H889.168C889.109 287.096 888.734 288.133 888.043 289.117C887.352 290.102 886.426 290.887 885.266 291.473C884.117 292.059 882.898 292.352 881.609 292.352C879.02 292.352 876.957 291.49 875.422 289.768C873.898 288.033 873.137 285.666 873.137 282.666V282.121C873.137 280.27 873.477 278.623 874.156 277.182C874.836 275.74 875.809 274.621 877.074 273.824C878.352 273.027 879.857 272.629 881.592 272.629C883.725 272.629 885.494 273.268 886.9 274.545C888.318 275.822 889.074 277.48 889.168 279.52H886.092C885.998 278.289 885.529 277.281 884.686 276.496C883.854 275.699 882.822 275.301 881.592 275.301C879.939 275.301 878.656 275.898 877.742 277.094C876.84 278.277 876.389 279.994 876.389 282.244V282.859C876.389 285.051 876.84 286.738 877.742 287.922C878.645 289.105 879.934 289.697 881.609 289.697ZM900.717 292.352C898.139 292.352 896.041 291.508 894.424 289.82C892.807 288.121 891.998 285.854 891.998 283.018V282.42C891.998 280.533 892.355 278.852 893.07 277.375C893.797 275.887 894.805 274.727 896.094 273.895C897.395 273.051 898.801 272.629 900.312 272.629C902.785 272.629 904.707 273.443 906.078 275.072C907.449 276.701 908.135 279.033 908.135 282.068V283.422H895.25C895.297 285.297 895.842 286.814 896.885 287.975C897.939 289.123 899.275 289.697 900.893 289.697C902.041 289.697 903.014 289.463 903.811 288.994C904.607 288.525 905.305 287.904 905.902 287.131L907.889 288.678C906.295 291.127 903.904 292.352 900.717 292.352ZM900.312 275.301C899 275.301 897.898 275.781 897.008 276.742C896.117 277.691 895.566 279.027 895.355 280.75H904.883V280.504C904.789 278.852 904.344 277.574 903.547 276.672C902.75 275.758 901.672 275.301 900.312 275.301ZM922.988 286.955C922.988 286.076 922.654 285.396 921.986 284.916C921.33 284.424 920.176 284.002 918.523 283.65C916.883 283.299 915.576 282.877 914.604 282.385C913.643 281.893 912.928 281.307 912.459 280.627C912.002 279.947 911.773 279.139 911.773 278.201C911.773 276.643 912.43 275.324 913.742 274.246C915.066 273.168 916.754 272.629 918.805 272.629C920.961 272.629 922.707 273.186 924.043 274.299C925.391 275.412 926.064 276.836 926.064 278.57H922.795C922.795 277.68 922.414 276.912 921.652 276.268C920.902 275.623 919.953 275.301 918.805 275.301C917.621 275.301 916.695 275.559 916.027 276.074C915.359 276.59 915.025 277.264 915.025 278.096C915.025 278.881 915.336 279.473 915.957 279.871C916.578 280.27 917.697 280.65 919.314 281.014C920.943 281.377 922.262 281.811 923.27 282.314C924.277 282.818 925.021 283.428 925.502 284.143C925.994 284.846 926.24 285.707 926.24 286.727C926.24 288.426 925.561 289.791 924.201 290.822C922.842 291.842 921.078 292.352 918.91 292.352C917.387 292.352 916.039 292.082 914.867 291.543C913.695 291.004 912.775 290.254 912.107 289.293C911.451 288.32 911.123 287.271 911.123 286.146H914.375C914.434 287.236 914.867 288.104 915.676 288.748C916.496 289.381 917.574 289.697 918.91 289.697C920.141 289.697 921.125 289.451 921.863 288.959C922.613 288.455 922.988 287.787 922.988 286.955Z" fill="white"/>
</svg>
