<svg width="1135" height="813" viewBox="0 0 1135 813" fill="none" xmlns="http://www.w3.org/2000/svg">
<g clip-path="url(#clip0)">
<path opacity="0.1" d="M600.04 812.32C694.309 812.32 770.73 803.867 770.73 793.44C770.73 783.013 694.309 774.56 600.04 774.56C505.77 774.56 429.35 783.013 429.35 793.44C429.35 803.867 505.77 812.32 600.04 812.32Z" fill="#F9A826"/>
<path opacity="0.4" d="M1079.17 551.22C1052.61 606.03 998.65 642.68 942.75 666.85C867.48 699.4 784.59 712.31 702.84 706.85C688.507 705.903 674.223 704.38 659.99 702.28C610.532 695.052 562.316 680.998 516.72 660.52C503.587 654.587 490.687 648.133 478.02 641.16C456.93 629.471 436.723 616.255 417.56 601.62C412.74 597.94 407.987 594.167 403.3 590.3C400.05 587.62 396.83 584.88 393.56 582.22C386.66 576.61 379.56 571.28 371.64 567.29C369.25 566.085 366.8 565.004 364.3 564.05C339.22 554.51 310.3 558.11 284.19 565.55C264.35 571.16 245.02 578.91 225.15 584.44C216.325 586.975 207.333 588.886 198.24 590.16C177.932 592.747 157.305 590.95 137.75 584.89L136.08 584.37C133.28 583.49 130.503 582.527 127.75 581.48L126.08 580.84C123.413 579.813 120.803 578.71 118.25 577.53L116.58 576.77C113.913 575.53 111.303 574.22 108.75 572.84C107.83 572.36 106.92 571.84 106.02 571.35C91.4927 563.236 78.2876 552.955 66.86 540.86C66.53 540.53 66.22 540.19 65.86 539.86C64.27 538.14 62.71 536.39 61.2 534.6C60.64 533.94 60.08 533.28 59.53 532.6C57.7367 530.407 56.0067 528.17 54.34 525.89C54.09 525.56 53.85 525.22 53.61 524.89C46.7774 515.441 41.1129 505.2 36.74 494.39C36.6 494.06 36.47 493.72 36.35 493.39C35.0167 489.957 33.8 486.467 32.7 482.92C32.25 481.44 31.82 479.92 31.44 478.44C31.31 478 31.19 477.55 31.08 477.11C25.61 455.39 25.02 432.8 25.02 410.34C25.02 407.72 25.02 405.103 25.02 402.49C25.18 366.16 25.74 329.21 31.1 293.38C31.1 293.13 31.17 292.88 31.21 292.64C33.004 280.578 35.4442 268.621 38.52 256.82C41.7392 244.438 45.8534 232.306 50.83 220.52C63.16 191.52 81.09 165.13 101 140.67C151.1 79.16 216.87 27.45 293.85 8.16C376.8 -12.67 468.99 7.29 535.9 60.56C556.3 76.8 574.63 96.03 597.54 108.48C617.54 119.32 640.95 123.81 662.37 115.28C680.07 108.28 691.59 104.73 711.47 105.8C752.625 108.122 793.198 116.613 831.83 130.99C833.39 131.56 834.95 132.15 836.5 132.74C937.21 171.29 1023.8 247.84 1068.78 346.21C1069.97 348.81 1071.13 351.43 1072.25 354.07C1099.08 416.69 1108.76 490.16 1079.17 551.22Z" fill="url(#paint0_linear)"/>
<path opacity="0.6" d="M225.15 205.28V584.44C216.325 586.975 207.333 588.886 198.24 590.16C177.932 592.747 157.305 590.95 137.75 584.89L136.08 584.37C133.28 583.49 130.503 582.527 127.75 581.48L126.08 580.84C123.413 579.813 120.803 578.71 118.25 577.53L116.58 576.77C113.913 575.53 111.303 574.22 108.75 572.84C107.83 572.36 106.92 571.84 106.02 571.35C91.4927 563.236 78.2876 552.955 66.86 540.86C66.53 540.53 66.22 540.19 65.86 539.86C64.27 538.14 62.71 536.39 61.2 534.6C60.64 533.94 60.08 533.28 59.53 532.6C57.7367 530.407 56.0067 528.17 54.34 525.89C54.09 525.56 53.85 525.22 53.61 524.89C46.7774 515.441 41.1129 505.2 36.74 494.39C36.6 494.06 36.47 493.72 36.35 493.39C35.0167 489.957 33.8 486.467 32.7 482.92C32.25 481.44 31.82 479.92 31.44 478.44C31.31 478 31.19 477.55 31.08 477.11C25.61 455.39 25.02 432.8 25.02 410.34C25.02 407.72 25.02 405.103 25.02 402.49C25.18 366.16 25.74 329.21 31.1 293.38C31.1 293.13 31.17 292.88 31.21 292.64C33.004 280.578 35.4442 268.621 38.52 256.82H140.61V205.28H161.02V163.89H204.84V205.28H225.15Z" fill="#00FF47"/>
<path d="M1079.17 551.22C1052.61 606.03 998.65 642.68 942.75 666.85C867.48 699.4 784.59 712.31 702.84 706.85C688.507 705.903 674.223 704.38 659.99 702.28C610.532 695.052 562.316 680.998 516.72 660.52C503.587 654.587 490.687 648.133 478.02 641.16C456.93 629.471 436.723 616.255 417.56 601.62C412.74 597.94 407.987 594.167 403.3 590.3C400.05 587.62 396.83 584.88 393.56 582.22C386.66 576.61 379.56 571.28 371.64 567.29C369.25 566.085 366.8 565.004 364.3 564.05V408.89H549.89V443.42H631.34V190.84H727.21V291.84H774.63V232.04H813.81V168.16H831.81V130.94C833.37 131.51 834.93 132.1 836.48 132.69V168.16H854.02V232.08H893.19V291.88H950.92V519.71H1042.68V354.02H1072.25C1099.08 416.69 1108.76 490.16 1079.17 551.22Z" fill="#858786"/>
<path opacity="0.1" d="M702.84 228.84H659.99V271.69H702.84V228.84Z" fill="#0CE72F"/>
<path opacity="0.1" d="M702.84 317.67H659.99V360.52H702.84V317.67Z" fill="#F9A826"/>
<path opacity="0.1" d="M702.84 406.49H659.99V449.34H702.84V406.49Z" fill="#F9A826"/>
<path opacity="0.1" d="M702.84 495.32H659.99V538.17H702.84V495.32Z" fill="#F9A826"/>
<path opacity="0.1" d="M702.84 584.15H659.99V627H702.84V584.15Z" fill="#F9A826"/>
<path opacity="0.1" d="M702.84 672.97V706.81C688.507 705.863 674.223 704.34 659.99 702.24V672.97H702.84Z" fill="#F9A826"/>
<path opacity="0.1" d="M528.42 464.27H378.43V483.68H528.42V464.27Z" fill="#F9A826"/>
<path opacity="0.1" d="M528.42 523.21H378.43V542.62H528.42V523.21Z" fill="#F9A826"/>
<path opacity="0.1" d="M528.42 582.16V601.56H417.58C412.76 597.88 408.007 594.107 403.32 590.24C400.07 587.56 396.85 584.82 393.58 582.16H528.42Z" fill="#F9A826"/>
<path opacity="0.1" d="M528.42 641.16V660.57H516.72C503.587 654.603 490.687 648.133 478.02 641.16H528.42Z" fill="#F9A826"/>
<path opacity="0.1" d="M802.3 344.87H774.41V372.76H802.3V344.87Z" fill="#F9A826"/>
<path opacity="0.1" d="M198.3 214.89H170.41V242.78H198.3V214.89Z" fill="#F9A826"/>
<path opacity="0.1" d="M198.3 279.69H170.41V307.58H198.3V279.69Z" fill="#F9A826"/>
<path opacity="0.1" d="M198.3 344.49H170.41V372.38H198.3V344.49Z" fill="#F9A826"/>
<path opacity="0.1" d="M198.3 409.28H170.41V437.17H198.3V409.28Z" fill="#F9A826"/>
<path opacity="0.1" d="M198.3 474.08H170.41V501.97H198.3V474.08Z" fill="#F9A826"/>
<path opacity="0.1" d="M198.3 538.88H170.41V566.77H198.3V538.88Z" fill="#F9A826"/>
<path opacity="0.1" d="M908.8 344.87H880.91V372.76H908.8V344.87Z" fill="#F9A826"/>
<path opacity="0.1" d="M802.3 413.68H774.41V441.57H802.3V413.68Z" fill="#F9A826"/>
<path opacity="0.1" d="M908.8 413.68H880.91V441.57H908.8V413.68Z" fill="#F9A826"/>
<path opacity="0.1" d="M802.3 482.48H774.41V510.37H802.3V482.48Z" fill="#F9A826"/>
<path opacity="0.1" d="M908.8 482.48H880.91V510.37H908.8V482.48Z" fill="#F9A826"/>
<path opacity="0.1" d="M802.3 551.29H774.41V579.18H802.3V551.29Z" fill="#F9A826"/>
<path opacity="0.1" d="M908.8 551.29H880.91V579.18H908.8V551.29Z" fill="#F9A826"/>
<path opacity="0.1" d="M802.3 620.1H774.41V647.99H802.3V620.1Z" fill="#F9A826"/>
<path opacity="0.1" d="M908.8 620.1H880.91V647.99H908.8V620.1Z" fill="#F9A826"/>
<path opacity="0.1" d="M774.41 706.89V688.9H802.3V704.33L774.41 706.89Z" fill="#F9A826"/>
<path opacity="0.1" d="M31.08 292.64V308.64H137.75V292.64H31.08ZM40.58 307.64H32.75V293.64H40.58V307.64ZM50.08 307.64H42.25V293.64H50.08V307.64ZM59.58 307.64H51.75V293.64H59.58V307.64ZM69.08 307.64H61.25V293.64H69.08V307.64ZM78.58 307.64H70.75V293.64H78.58V307.64ZM88.08 307.64H80.25V293.64H88.08V307.64ZM97.58 307.64H89.75V293.64H97.58V307.64ZM107.08 307.64H99.25V293.64H107.08V307.64ZM116.58 307.64H108.75V293.64H116.58V307.64ZM126.08 307.64H118.25V293.64H126.08V307.64ZM136.08 307.64H127.75V293.64H136.08V307.64Z" fill="#F9A826"/>
<path opacity="0.1" d="M31.08 339.1V355.05H137.75V339.1H31.08ZM40.58 354.05H32.75V340.1H40.58V354.05ZM50.08 354.05H42.25V340.1H50.08V354.05ZM59.58 354.05H51.75V340.1H59.58V354.05ZM69.08 354.05H61.25V340.1H69.08V354.05ZM78.58 354.05H70.75V340.1H78.58V354.05ZM88.08 354.05H80.25V340.1H88.08V354.05ZM97.58 354.05H89.75V340.1H97.58V354.05ZM107.08 354.05H99.25V340.1H107.08V354.05ZM116.58 354.05H108.75V340.1H116.58V354.05ZM126.08 354.05H118.25V340.1H126.08V354.05ZM136.08 354.05H127.75V340.1H136.08V354.05Z" fill="#F9A826"/>
<path opacity="0.1" d="M31.08 385.55V401.5H137.75V385.55H31.08ZM40.58 400.5H32.75V386.55H40.58V400.5ZM50.08 400.5H42.25V386.55H50.08V400.5ZM59.58 400.5H51.75V386.55H59.58V400.5ZM69.08 400.5H61.25V386.55H69.08V400.5ZM78.58 400.5H70.75V386.55H78.58V400.5ZM88.08 400.5H80.25V386.55H88.08V400.5ZM97.58 400.5H89.75V386.55H97.58V400.5ZM107.08 400.5H99.25V386.55H107.08V400.5ZM116.58 400.5H108.75V386.55H116.58V400.5ZM126.08 400.5H118.25V386.55H126.08V400.5ZM136.08 400.5H127.75V386.55H136.08V400.5Z" fill="#F9A826"/>
<path opacity="0.1" d="M31.08 432V448H137.75V432H31.08ZM40.58 447H32.75V433H40.58V447ZM50.08 447H42.25V433H50.08V447ZM59.58 447H51.75V433H59.58V447ZM69.08 447H61.25V433H69.08V447ZM78.58 447H70.75V433H78.58V447ZM88.08 447H80.25V433H88.08V447ZM97.58 447H89.75V433H97.58V447ZM107.08 447H99.25V433H107.08V447ZM116.58 447H108.75V433H116.58V447ZM126.08 447H118.25V433H126.08V447ZM136.08 447H127.75V433H136.08V447Z" fill="#F9A826"/>
<path opacity="0.1" d="M31.49 478.45C31.87 479.95 32.3 481.45 32.75 482.93V479.45H40.58V493.45H36.4C36.52 493.78 36.65 494.12 36.79 494.45H137.79V478.45H31.49ZM50.08 493.45H42.25V479.45H50.08V493.45ZM59.58 493.45H51.75V479.45H59.58V493.45ZM69.08 493.45H61.25V479.45H69.08V493.45ZM78.58 493.45H70.75V479.45H78.58V493.45ZM88.08 493.45H80.25V479.45H88.08V493.45ZM97.58 493.45H89.75V479.45H97.58V493.45ZM107.08 493.45H99.25V479.45H107.08V493.45ZM116.58 493.45H108.75V479.45H116.58V493.45ZM126.08 493.45H118.25V479.45H126.08V493.45ZM136.08 493.45H127.75V479.45H136.08V493.45Z" fill="#F9A826"/>
<path opacity="0.1" d="M53.66 524.9C53.9 525.23 54.14 525.57 54.39 525.9H59.58V532.61C60.13 533.28 60.69 533.94 61.25 534.61V525.91H69.08V539.91H65.91C66.22 540.24 66.53 540.58 66.91 540.91H137.8V524.91L53.66 524.9ZM78.58 539.9H70.75V525.9H78.58V539.9ZM88.08 539.9H80.25V525.9H88.08V539.9ZM97.58 539.9H89.75V525.9H97.58V539.9ZM107.08 539.9H99.25V525.9H107.08V539.9ZM116.58 539.9H108.75V525.9H116.58V539.9ZM126.08 539.9H118.25V525.9H126.08V539.9ZM136.08 539.9H127.75V525.9H136.08V539.9Z" fill="#F9A826"/>
<path opacity="0.1" d="M106.02 571.35C106.92 571.86 107.83 572.35 108.75 572.84V572.35H116.58V576.77L118.25 577.53V572.35H126.08V580.84L127.75 581.48V572.35H136.08V584.35L137.75 584.87V571.35H106.02Z" fill="#F9A826"/>
<path opacity="0.1" d="M434.94 154.16C434.94 154.16 411.11 152.73 413.94 169.43C413.794 170.276 413.92 171.147 414.299 171.917C414.678 172.688 415.291 173.319 416.05 173.72C416.05 173.72 416.1 172.48 418.5 172.9C419.355 173.049 420.225 173.093 421.09 173.03C422.258 172.951 423.368 172.491 424.25 171.72V171.72C424.25 171.72 430.95 168.95 433.56 158C433.56 158 435.49 155.61 435.41 155L431.41 156.72C431.41 156.72 432.78 159.62 431.7 162.03C431.7 162.03 431.57 156.82 430.8 156.95C430.64 156.95 428.71 157.95 428.71 157.95C428.71 157.95 431.07 163.01 429.29 166.68C429.29 166.68 429.97 160.45 427.97 158.32L425.14 159.97C425.14 159.97 427.9 165.19 426.03 169.45C426.03 169.45 426.51 162.92 424.54 160.37L421.98 162.37C421.98 162.37 424.57 167.52 422.98 171.05C422.98 171.05 422.77 163.45 421.41 162.87C420.439 163.694 419.569 164.63 418.82 165.66C418.82 165.66 420.6 169.4 419.5 171.37C419.5 171.37 418.82 166.3 418.27 166.28C418.27 166.28 416.03 169.64 415.8 171.94C415.909 169.806 416.574 167.737 417.73 165.94C416.439 166.183 415.246 166.798 414.3 167.71C414.3 167.71 414.65 165.34 418.3 165.13C418.3 165.13 420.15 162.58 420.64 162.43C420.64 162.43 417.03 162.13 414.84 163.1C414.84 163.1 416.77 160.86 421.3 161.87L423.84 159.81C423.84 159.81 419.02 159.16 417.02 159.86C417.02 159.86 419.34 157.86 424.47 159.32L427.23 157.67C425.106 157.205 422.932 157.017 420.76 157.11C420.76 157.11 423.31 155.74 428.03 157.23L430.03 156.34C430.03 156.34 427.03 155.76 426.19 155.67C425.35 155.58 425.27 155.33 425.27 155.33C427.152 155.017 429.083 155.232 430.85 155.95C430.85 155.95 435.02 154.39 434.94 154.16Z" fill="#F9A826"/>
<path opacity="0.1" d="M372.36 235.39C372.36 235.39 364.22 257.84 381.03 259.89C381.802 260.268 382.674 260.393 383.521 260.248C384.368 260.103 385.148 259.694 385.75 259.08C385.75 259.08 384.57 258.68 385.66 256.5C386.037 255.719 386.322 254.897 386.51 254.05C386.767 252.909 386.644 251.715 386.16 250.65V250.65C386.16 250.65 385.41 243.44 375.64 237.83C375.64 237.83 373.9 235.3 373.29 235.2L373.8 239.54C373.8 239.54 376.97 239.05 378.97 240.77C378.97 240.77 373.97 239.42 373.84 240.19C373.84 240.35 374.21 242.48 374.21 242.48C374.21 242.48 379.73 241.65 382.75 244.41C382.75 244.41 376.97 241.99 374.35 243.3L375.13 246.48C375.13 246.48 380.93 245.31 384.48 248.32C384.48 248.32 378.35 246 375.35 247.17L376.54 250.17C376.54 250.17 382.21 249.17 385.15 251.67C385.15 251.67 377.8 249.67 376.86 250.85C377.372 252.014 378.024 253.112 378.8 254.12C378.8 254.12 382.89 253.48 384.47 255.12C384.47 255.12 379.42 254.33 379.24 254.86C379.24 254.86 381.82 257.96 383.96 258.86C381.951 258.152 380.162 256.932 378.77 255.32C378.643 256.624 378.897 257.937 379.5 259.1C379.5 259.1 377.32 258.1 378.16 254.56C378.16 254.56 376.24 252.06 376.23 251.56C376.23 251.56 374.92 254.93 375.23 257.3C375.23 257.3 373.62 254.82 375.89 250.76L374.62 247.76C374.62 247.76 372.62 252.13 372.77 254.26C372.77 254.26 371.53 251.48 374.37 246.97L373.57 243.86C372.521 245.748 371.725 247.765 371.2 249.86C371.2 249.86 370.61 247.03 373.38 242.92L373.09 240.77C373.09 240.77 371.68 243.45 371.35 244.26C371.02 245.07 370.77 245.05 370.77 245.05C371.001 243.157 371.756 241.367 372.95 239.88C372.95 239.88 372.64 235.4 372.36 235.39Z" fill="#F9A826"/>
<path opacity="0.1" d="M530.4 216.48C530.4 216.48 522.25 238.92 539.07 240.97C539.839 241.352 540.711 241.479 541.557 241.334C542.404 241.188 543.182 240.777 543.78 240.16C543.78 240.16 542.61 239.77 543.69 237.58C544.068 236.802 544.357 235.983 544.55 235.14C544.803 233.994 544.677 232.798 544.19 231.73V231.73C544.19 231.73 543.44 224.52 533.68 218.91C533.68 218.91 531.94 216.39 531.33 216.28L531.83 220.63C531.83 220.63 535.02 220.16 537.02 221.86C537.02 221.86 532.02 220.5 531.89 221.28C531.89 221.44 532.26 223.57 532.26 223.57C532.26 223.57 537.78 222.74 540.79 225.49C540.79 225.49 535.01 223.07 532.4 224.38L533.18 227.56C533.18 227.56 538.97 226.4 542.52 229.4C542.52 229.4 536.39 227.09 533.4 228.25L534.59 231.25C534.59 231.25 540.26 230.25 543.2 232.74C543.2 232.74 535.84 230.74 534.91 231.92C535.422 233.088 536.073 234.189 536.85 235.2C536.85 235.2 540.94 234.55 542.51 236.2C542.51 236.2 537.46 235.41 537.28 235.93C537.28 235.93 539.87 239.03 542.01 239.93C540 239.219 538.211 237.995 536.82 236.38C536.687 237.688 536.941 239.005 537.55 240.17C537.55 240.17 535.37 239.17 536.2 235.62C536.2 235.62 534.28 233.13 534.28 232.62C534.28 232.62 532.96 235.99 533.28 238.37C533.28 238.37 531.68 235.89 533.94 231.83L532.68 228.83C532.68 228.83 530.68 233.2 530.82 235.34C530.82 235.34 529.58 232.55 532.42 228.04L531.63 224.93C530.583 226.819 529.787 228.836 529.26 230.93C529.26 230.93 528.66 228.1 531.43 223.99L531.14 221.85C531.14 221.85 529.74 224.53 529.4 225.34C529.06 226.15 528.83 226.12 528.83 226.12C529.06 224.229 529.812 222.439 531 220.95C531 220.95 530.67 216.48 530.4 216.48Z" fill="#F9A826"/>
<path opacity="0.1" d="M304.49 399.96C304.49 399.96 296.35 422.41 313.16 424.45C313.931 424.831 314.804 424.958 315.652 424.813C316.5 424.667 317.28 424.257 317.88 423.64C317.88 423.64 316.7 423.25 317.79 421.07C318.17 420.29 318.455 419.468 318.64 418.62C318.897 417.475 318.774 416.278 318.29 415.21V415.21C318.29 415.21 317.54 408 307.78 402.39C307.78 402.39 306.03 399.87 305.42 399.76L305.93 404.11C305.93 404.11 309.1 403.62 311.11 405.34C311.11 405.34 306.11 403.98 305.97 404.76C305.97 404.92 306.34 407.05 306.34 407.05C306.34 407.05 311.86 406.22 314.88 408.97C314.88 408.97 309.1 406.55 306.48 407.86L307.27 411.04C307.27 411.04 313.06 409.88 316.61 412.88C316.61 412.88 310.48 410.57 307.48 411.73L308.67 414.73C308.67 414.73 314.34 413.73 317.28 416.22C317.28 416.22 309.93 414.22 308.99 415.4C309.502 416.57 310.157 417.671 310.94 418.68C310.94 418.68 315.02 418.03 316.6 419.68C316.6 419.68 311.55 418.89 311.37 419.41C311.37 419.41 313.95 422.51 316.09 423.41C314.084 422.697 312.299 421.474 310.91 419.86C310.777 421.166 311.027 422.483 311.63 423.65C311.63 423.65 309.46 422.65 310.29 419.1C310.29 419.1 308.37 416.61 308.36 416.1C308.36 416.1 307.05 419.48 307.36 421.85C307.36 421.85 305.76 419.37 308.02 415.31L306.76 412.31C306.76 412.31 304.76 416.68 304.9 418.82C304.9 418.82 303.66 416.03 306.5 411.53L305.7 408.41C304.653 410.299 303.857 412.316 303.33 414.41C303.33 414.41 302.74 411.58 305.51 407.47L305.22 405.33C305.22 405.33 303.81 408.01 303.48 408.82C303.15 409.63 302.9 409.6 302.9 409.6C303.137 407.709 303.891 405.92 305.08 404.43C305.08 404.43 304.77 399.96 304.49 399.96Z" fill="#F9A826"/>
<path opacity="0.1" d="M272.17 188.36C272.17 188.36 264.02 210.81 280.83 212.86C281.602 213.238 282.474 213.363 283.321 213.218C284.168 213.073 284.948 212.664 285.55 212.05C285.55 212.05 284.38 211.65 285.46 209.47C285.842 208.691 286.127 207.868 286.31 207.02C286.566 205.875 286.443 204.679 285.96 203.61V203.61C285.96 203.61 285.21 196.4 275.45 190.8C275.45 190.8 273.71 188.27 273.09 188.17L273.6 192.51C273.6 192.51 276.77 192.02 278.78 193.74C278.78 193.74 273.78 192.39 273.65 193.16C273.65 193.32 274.02 195.45 274.02 195.45C274.02 195.45 279.53 194.62 282.55 197.37C282.55 197.37 276.77 194.96 274.16 196.26L274.94 199.45C274.94 199.45 280.73 198.28 284.28 201.29C284.28 201.29 278.15 198.97 275.16 200.13L276.35 203.13C276.35 203.13 282.02 202.13 284.95 204.62C284.95 204.62 277.6 202.62 276.66 203.81C277.173 204.976 277.828 206.075 278.61 207.08C278.61 207.08 282.69 206.44 284.27 208.08C284.27 208.08 279.22 207.29 279.04 207.82C279.04 207.82 281.63 210.92 283.76 211.82C281.754 211.113 279.968 209.892 278.58 208.28C278.448 209.584 278.702 210.899 279.31 212.06C279.31 212.06 277.13 211.06 277.96 207.52C277.96 207.52 276.04 205.02 276.03 204.52C276.03 204.52 274.72 207.9 275.03 210.27C275.03 210.27 273.43 207.79 275.69 203.73L274.43 200.73C274.43 200.73 272.43 205.1 272.57 207.23C272.57 207.23 271.33 204.45 274.17 199.94L273.37 196.83C272.326 198.72 271.53 200.737 271 202.83C271 202.83 270.41 199.99 273.18 195.89L272.89 193.74C272.89 193.74 271.49 196.42 271.15 197.23C270.81 198.04 270.57 198.01 270.57 198.01C270.807 196.119 271.561 194.33 272.75 192.84C272.75 192.84 272.44 188.37 272.17 188.36Z" fill="#F9A826"/>
<path opacity="0.1" d="M332.6 310.57C332.6 310.57 338.89 333.57 353.8 325.57C354.649 325.436 355.434 325.036 356.043 324.429C356.652 323.822 357.053 323.039 357.19 322.19C357.19 322.19 356 322.55 355.63 320.14C355.486 319.283 355.248 318.445 354.92 317.64C354.463 316.56 353.671 315.655 352.66 315.06V315.06C352.66 315.06 347.89 309.61 336.66 310.65C336.66 310.65 333.78 309.59 333.23 309.86L336.14 313.12C336.14 313.12 338.45 310.89 341.08 311.12C341.08 311.12 336.19 312.91 336.56 313.6C336.63 313.75 338.18 315.26 338.18 315.26C338.18 315.26 342.18 311.4 346.26 311.91C346.26 311.91 340.14 313.27 338.76 315.84L341.24 318C341.24 318 345.29 313.7 349.93 314.11C349.93 314.11 343.59 315.75 341.81 318.43L344.53 320.22C344.53 320.22 348.53 316.11 352.42 316.47C352.42 316.47 345.28 319.11 345.18 320.58C346.268 321.241 347.433 321.765 348.65 322.14C348.65 322.14 351.65 319.26 353.84 319.67C353.84 319.67 349.26 321.93 349.41 322.47C349.41 322.47 353.31 323.47 355.56 322.99C353.511 323.57 351.345 323.601 349.28 323.08C349.928 324.224 350.893 325.155 352.06 325.76C352.06 325.76 349.7 326.19 348.34 322.82C348.34 322.82 345.34 321.89 345.03 321.47C345.03 321.47 345.9 324.98 347.52 326.74C347.52 326.74 344.78 325.64 344.29 321.02L341.52 319.28C341.52 319.28 342.43 323.99 343.76 325.67C343.76 325.67 341.14 324.11 340.86 318.79L338.41 316.71C338.648 318.869 339.169 320.987 339.96 323.01C339.96 323.01 337.84 321.01 337.73 316.08L336.26 314.5C336.26 314.5 336.66 317.5 336.85 318.35C337.04 319.2 336.85 319.35 336.85 319.35C335.948 317.671 335.532 315.773 335.65 313.87C335.65 313.87 332.82 310.41 332.6 310.57Z" fill="#F9A826"/>
<path opacity="0.1" d="M503.23 331.16C503.23 331.16 509.52 354.16 524.44 346.16C525.288 346.025 526.071 345.626 526.678 345.018C527.285 344.411 527.685 343.628 527.82 342.78C527.82 342.78 526.64 343.14 526.26 340.73C526.125 339.871 525.887 339.032 525.55 338.23C525.098 337.15 524.309 336.245 523.3 335.65V335.65C523.3 335.65 518.53 330.2 507.3 331.24C507.3 331.24 504.42 330.18 503.86 330.45L506.78 333.71C506.78 333.71 509.09 331.48 511.72 331.71C511.72 331.71 506.83 333.5 507.19 334.2C507.26 334.34 508.81 335.85 508.81 335.85C508.81 335.85 512.81 331.99 516.89 332.5C516.89 332.5 510.78 333.86 509.4 336.43L511.87 338.59C511.87 338.59 515.93 334.29 520.56 334.7C520.56 334.7 514.22 336.34 512.44 339.02L515.16 340.81C515.16 340.81 519.16 336.7 523.06 337.06C523.06 337.06 515.92 339.7 515.81 341.18C516.902 341.837 518.071 342.358 519.29 342.73C519.29 342.73 522.29 339.85 524.47 340.26C524.47 340.26 519.89 342.53 520.05 343.06C520.05 343.06 523.95 344.06 526.2 343.58C524.151 344.16 521.985 344.191 519.92 343.67C520.565 344.816 521.531 345.748 522.7 346.35C522.7 346.35 520.34 346.78 518.97 343.41C518.97 343.41 515.97 342.48 515.66 342.06C515.66 342.06 516.54 345.57 518.16 347.34C518.16 347.34 515.42 346.23 514.93 341.61L512.16 339.87C512.16 339.87 513.06 344.58 514.39 346.26C514.39 346.26 511.77 344.7 511.49 339.38L509.05 337.3C509.288 339.458 509.806 341.576 510.59 343.6C510.59 343.6 508.47 341.6 508.37 336.67L506.9 335.09C506.9 335.09 507.3 338.09 507.49 338.94C507.68 339.79 507.49 339.94 507.49 339.94C506.588 338.261 506.172 336.363 506.29 334.46C506.29 334.46 503.46 330.95 503.23 331.16Z" fill="#F9A826"/>
<path d="M922.97 672.03L933.04 682.66L949.01 654.52L947.57 651.36L922.97 672.03Z" fill="#F9A826"/>
<path opacity="0.2" d="M922.97 672.03L933.04 682.66L949.01 654.52L947.57 651.36L922.97 672.03Z" fill="black"/>
<path d="M215.07 647.94C215.07 701.34 178.5 712.67 141.85 712.67C105.2 712.67 84.5699 667.67 84.5699 614.25C84.5699 560.83 114.28 517.55 150.93 517.55C187.58 517.55 215.07 594.54 215.07 647.94Z" fill="#636780"/>
<path opacity="0.2" d="M215.07 647.94C215.07 701.34 178.5 712.67 141.85 712.67C105.2 712.67 84.5699 667.67 84.5699 614.25C84.5699 560.83 114.28 517.55 150.93 517.55C187.58 517.55 215.07 594.54 215.07 647.94Z" fill="black"/>
<path d="M189.73 615.97C189.73 669.37 166.19 712.67 137.15 712.67C108.11 712.67 83.42 669.37 83.42 615.97C83.42 608.59 82.28 601.41 83.13 594.51C88.44 551.44 112.13 519.28 137.13 519.28C166.19 519.28 189.73 562.57 189.73 615.97Z" fill="#636780"/>
<path d="M184.49 380.59C184.49 380.59 138.4 432.27 123.76 475.34L521.76 519.28L734.96 475.34C734.96 475.34 650.52 374.16 627.7 370.25C604.88 366.34 184.49 380.59 184.49 380.59Z" fill="#F9A826"/>
<path opacity="0.4" d="M184.49 380.59C184.49 380.59 138.4 432.27 123.76 475.34L521.76 519.28L734.96 475.34C734.96 475.34 650.52 374.16 627.7 370.25C604.88 366.34 184.49 380.59 184.49 380.59Z" fill="black"/>
<path d="M476.53 512.06L540.41 691.28V645.92L558.19 595.14L607.45 573.33L669.91 601.67L692.25 608.65L694.2 567.31L619.94 530.7L585.37 514.11L506.24 507.21L484.41 503.31L476.53 512.06Z" fill="#F9A826"/>
<path d="M505.02 530.7L563.14 537.37C560.5 514.16 577.73 514.16 577.73 514.16L519.59 504.1H492.45" fill="#F9A826"/>
<path d="M540.41 718.84H581.61L700.92 714.84C700.92 714.84 703.5 737.59 734.92 732.24C734.92 732.24 752.22 733.35 754.08 723.95C755.94 714.55 714.68 627.68 714.68 627.68L658.43 585.68L607.43 573.3L570.82 584.07L547.56 621.07L532.92 671.72L540.41 718.84Z" fill="#636780"/>
<path opacity="0.2" d="M540.41 718.84H581.61L700.92 714.84C700.92 714.84 703.5 737.59 734.92 732.24C734.92 732.24 752.22 733.35 754.08 723.95C755.94 714.55 714.68 627.68 714.68 627.68L658.43 585.68L607.43 573.3L570.82 584.07L547.56 621.07L532.92 671.72L540.41 718.84Z" fill="black"/>
<path d="M192.51 392.96C186.61 397.78 167.97 415.07 152.44 451.63C151.901 452.887 151.662 454.252 151.74 455.617C151.818 456.982 152.212 458.311 152.89 459.498C153.569 460.685 154.513 461.699 155.65 462.459C156.786 463.22 158.084 463.706 159.44 463.88L253.02 476.01C256.471 476.459 259.966 475.62 262.837 473.653C265.708 471.687 267.753 468.73 268.58 465.35L285.03 398.24C285.276 397.242 285.288 396.202 285.067 395.198C284.847 394.195 284.398 393.256 283.756 392.453C283.114 391.651 282.296 391.007 281.366 390.571C280.435 390.135 279.417 389.919 278.39 389.94L196.62 391.46C195.12 391.481 193.671 392.009 192.51 392.96Z" fill="#F9A826"/>
<path opacity="0.2" d="M192.51 392.96C186.61 397.78 167.97 415.07 152.44 451.63C151.901 452.887 151.662 454.252 151.74 455.617C151.818 456.982 152.212 458.311 152.89 459.498C153.569 460.685 154.513 461.699 155.65 462.459C156.786 463.22 158.084 463.706 159.44 463.88L253.02 476.01C256.471 476.459 259.966 475.62 262.837 473.653C265.708 471.687 267.753 468.73 268.58 465.35L285.03 398.24C285.276 397.242 285.288 396.202 285.067 395.198C284.847 394.195 284.398 393.256 283.756 392.453C283.114 391.651 282.296 391.007 281.366 390.571C280.435 390.135 279.417 389.919 278.39 389.94L196.62 391.46C195.12 391.481 193.671 392.009 192.51 392.96Z" fill="white"/>
<path d="M328.5 389.79L433.88 388.79C441.47 388.72 448.27 393.79 450.83 401.53L483.69 476.16C486.6 484.9 480.31 494 471.69 493.5L317.87 483.37C305.11 482.63 296.08 469.62 299.03 456.21L310.18 405.54C312.19 396.38 319.75 389.87 328.5 389.79Z" fill="#F9A826"/>
<path opacity="0.2" d="M328.5 389.79L433.88 388.79C441.47 388.72 448.27 393.79 450.83 401.53L483.69 476.16C486.6 484.9 480.31 494 471.69 493.5L317.87 483.37C305.11 482.63 296.08 469.62 299.03 456.21L310.18 405.54C312.19 396.38 319.75 389.87 328.5 389.79Z" fill="white"/>
<path d="M492.31 388.59C521.12 388.07 597.47 385.89 635.45 377.14C635.45 377.14 700.63 426.24 720.16 463.28C720.16 463.28 618.56 488.01 548.39 491.36C543.187 491.6 538.027 490.306 533.552 487.64C529.078 484.973 525.485 481.051 523.22 476.36L485.91 399.04C485.373 397.942 485.122 396.727 485.179 395.506C485.237 394.286 485.602 393.099 486.24 392.057C486.878 391.015 487.769 390.151 488.83 389.545C489.891 388.939 491.088 388.61 492.31 388.59Z" fill="#F9A826"/>
<path opacity="0.2" d="M492.31 388.59C521.12 388.07 597.47 385.89 635.45 377.14C635.45 377.14 700.63 426.24 720.16 463.28C720.16 463.28 618.56 488.01 548.39 491.36C543.187 491.6 538.027 490.306 533.552 487.64C529.078 484.973 525.485 481.051 523.22 476.36L485.91 399.04C485.373 397.942 485.122 396.727 485.179 395.506C485.237 394.286 485.602 393.099 486.24 392.057C486.878 391.015 487.769 390.151 488.83 389.545C489.891 388.939 491.088 388.61 492.31 388.59Z" fill="white"/>
<path opacity="0.1" d="M528.84 399.78C540.84 399.57 564.25 398.95 587.11 397.24C603.945 395.956 620.849 398.582 636.501 404.912C652.153 411.242 666.13 421.105 677.34 433.73L678.08 434.57C679.703 436.44 680.811 438.702 681.293 441.131C681.775 443.56 681.616 446.073 680.83 448.421C680.045 450.77 678.66 452.873 676.814 454.523C674.967 456.173 672.722 457.313 670.3 457.83C645.08 463.24 602.12 471.5 568.96 473.1C565.228 473.288 561.523 472.372 558.308 470.465C555.094 468.558 552.514 465.746 550.89 462.38L524.27 407.21C523.893 406.428 523.718 405.563 523.762 404.695C523.806 403.828 524.068 402.985 524.523 402.245C524.978 401.505 525.612 400.892 526.367 400.461C527.121 400.03 527.971 399.796 528.84 399.78V399.78Z" fill="white"/>
<path d="M540.41 691.28V718.84L235.75 672.33C220.82 667.16 211.91 670.33 211.91 670.33C200.91 664.96 192.91 644.01 192.68 643.33L198.43 626.68L151.73 549.44L89.6 552.02C99.37 473.91 127.5 470.18 127.5 470.18L492.5 504.06L540.41 691.28Z" fill="#F9A826"/>
<path opacity="0.1" d="M474.75 526.77C472.36 529.39 467.99 531.77 459.93 531.55C447.58 531.25 445.24 520.71 444.93 514.42C444.852 512.879 444.896 511.334 445.06 509.8L461.24 504.85L464.55 507.94L474.32 517.09C475.647 518.325 476.436 520.031 476.516 521.842C476.596 523.653 475.962 525.422 474.75 526.77V526.77Z" fill="black"/>
<path d="M474.75 525.91C472.36 528.53 467.99 530.91 459.93 530.69C447.58 530.39 445.24 519.85 444.93 513.56C444.852 512.019 444.896 510.474 445.06 508.94L461.24 503.99L464.55 507.08L474.32 516.23C475.647 517.465 476.436 519.171 476.516 520.982C476.596 522.793 475.962 524.563 474.75 525.91V525.91Z" fill="#DCE0ED"/>
<path opacity="0.1" d="M464.56 507.08C462.49 512.35 456.37 513.78 456.37 513.78L444.94 513.56C444.862 512.019 444.906 510.474 445.07 508.94L461.25 503.99L464.56 507.08Z" fill="black"/>
<path d="M423.32 466.73C423.32 466.73 397.48 470.19 404.37 493.55C409.59 511.25 421.24 512.44 426.58 511.99C429.688 511.712 432.81 511.598 435.93 511.65L456.36 512.06C456.36 512.06 467.9 509.37 464.67 497.74C461.44 486.11 446.58 464.79 423.32 466.73Z" fill="#F0F0F4"/>
<path opacity="0.2" d="M283.41 537.37C289.993 537.37 295.33 530.426 295.33 521.86C295.33 513.294 289.993 506.35 283.41 506.35C276.827 506.35 271.49 513.294 271.49 521.86C271.49 530.426 276.827 537.37 283.41 537.37Z" fill="black"/>
<path opacity="0.1" d="M303.927 519.052L270 515.433C267.117 515.125 264.53 517.213 264.223 520.096L264.222 520.106C263.914 522.989 266.002 525.576 268.885 525.883L302.812 529.503C305.695 529.811 308.282 527.723 308.59 524.84L308.591 524.83C308.898 521.947 306.81 519.36 303.927 519.052Z" fill="black"/>
<path d="M303.929 518.187L270.001 514.568C267.118 514.26 264.531 516.348 264.224 519.231L264.223 519.241C263.915 522.124 266.003 524.711 268.886 525.018L302.814 528.638C305.697 528.946 308.283 526.858 308.591 523.975L308.592 523.965C308.9 521.082 306.812 518.495 303.929 518.187Z" fill="#F0F0F4"/>
<path opacity="0.1" d="M85.86 623.08C85.86 623.08 64.47 601.97 90.45 551.16C90.45 551.16 123.76 500.76 175.45 555.9C175.45 555.9 205.17 589.06 213.78 642.04L193.54 642.47C193.54 642.47 174.15 548.57 117.3 553.31C117.3 553.3 75.95 560.62 85.86 623.08Z" fill="black"/>
<path opacity="0.1" d="M85.02 625.66C85.02 625.66 63.62 604.56 89.61 553.73C89.61 553.73 122.92 503.34 174.61 558.47C174.61 558.47 204.33 591.64 212.95 644.61L192.7 645.04C192.7 645.04 173.29 551.16 116.44 555.89C116.44 555.89 75.09 563.21 85.02 625.66Z" fill="black"/>
<path d="M85.02 623.94C85.02 623.94 63.62 602.83 89.61 552.01C89.61 552.01 122.92 501.62 174.61 556.75C174.61 556.75 204.33 589.91 212.95 642.89L192.7 643.32C192.7 643.32 173.29 549.43 116.44 554.16C116.44 554.16 75.09 561.49 85.02 623.94Z" fill="#F9A826"/>
<path opacity="0.2" d="M85.02 623.94C85.02 623.94 63.62 602.83 89.61 552.01C89.61 552.01 122.92 501.62 174.61 556.75C174.61 556.75 204.33 589.91 212.95 642.89L192.7 643.32C192.7 643.32 173.29 549.43 116.44 554.16C116.44 554.16 75.09 561.49 85.02 623.94Z" fill="black"/>
<path opacity="0.1" d="M540.41 690.42V717.98L235.75 671.46C220.82 666.3 211.91 669.46 211.91 669.46C200.91 664.09 192.91 643.14 192.68 642.46L212.93 642.03L271.51 650.21L484.42 680.79C484.42 680.79 522.18 685.1 524.33 686.79C526.48 688.48 540.41 690.42 540.41 690.42Z" fill="black"/>
<path d="M540.41 691.28V718.84L235.75 672.33C220.82 667.16 211.91 670.33 211.91 670.33C200.91 664.96 192.91 644.01 192.68 643.33L212.93 642.9L271.51 651.08L484.42 681.66C484.42 681.66 522.18 685.97 524.33 687.66C526.48 689.35 540.41 691.28 540.41 691.28Z" fill="#F9A826"/>
<path opacity="0.2" d="M540.41 691.28V718.84L235.75 672.33C220.82 667.16 211.91 670.33 211.91 670.33C200.91 664.96 192.91 644.01 192.68 643.33L212.93 642.9L271.51 651.08L484.42 681.66C484.42 681.66 522.18 685.97 524.33 687.66C526.48 689.35 540.41 691.28 540.41 691.28Z" fill="black"/>
<path opacity="0.2" d="M271.08 651.16C252.15 590.38 253.16 547.99 257.34 523.16C261.88 496.16 271.06 483.43 271.15 483.31L271.84 483.82C271.75 483.94 262.68 496.58 258.18 523.38C254.02 548.16 253.02 590.33 271.91 650.95L271.08 651.16Z" fill="black"/>
<path d="M954.46 624.53C955.22 627.36 956.99 635.18 954.18 637.29C953.11 638.09 952.18 640.06 951.46 642.4C950.333 646.371 949.518 650.423 949.02 654.52L919.72 687.25L870.19 706.64L751.74 714.82L680.24 598.53L519.59 504.05L563.45 501.62C607.32 499.18 731.85 471.62 731.85 471.62L872.72 502.74C895.504 507.737 915.631 520.992 929.22 539.95C946.37 563.95 954.22 589.95 954.22 589.95C956.34 592.49 957.16 596.65 957.28 601.21C957.44 608.64 955.74 617.1 954.81 621.14C954.46 622.65 954.22 623.55 954.22 623.55C954.22 623.55 954.3 623.89 954.46 624.53Z" fill="#F9A826"/>
<path opacity="0.1" d="M524.32 685.96C524.32 685.96 515.71 593.83 580.32 568.83C580.32 568.83 671.2 530.47 724.61 634.71L751.74 694.16C751.74 694.16 759.49 708.8 780.6 708.37C780.6 708.37 880.09 705.37 932.6 671.76L948.97 652.76C948.97 652.76 940.79 679.46 932.6 685.49C932.6 685.49 900.3 723.39 782.71 730.29C782.71 730.29 734.62 735.45 720.12 689.8C720.12 689.8 700.45 586.43 600.52 587.29C600.52 587.29 541.81 588.44 540.37 689.51L524.32 685.96Z" fill="black"/>
<path d="M524.32 687.68C524.32 687.68 515.71 595.56 580.32 570.55C580.32 570.55 671.2 532.2 724.61 636.43L751.74 695.87C751.74 695.87 759.49 710.51 780.6 710.08C780.6 710.08 880.09 707.08 932.6 673.47L949.02 654.52C949.02 654.52 940.84 681.22 932.65 687.25C932.65 687.25 900.35 725.16 782.76 732.05C782.76 732.05 734.67 737.22 720.17 691.56C720.17 691.56 700.5 588.19 600.57 589.05C600.57 589.05 541.86 590.21 540.42 691.28L524.32 687.68Z" fill="#F9A826"/>
<path opacity="0.2" d="M524.32 687.68C524.32 687.68 515.71 595.56 580.32 570.55C580.32 570.55 671.2 532.2 724.61 636.43L751.74 695.87C751.74 695.87 759.49 710.51 780.6 710.08C780.6 710.08 880.09 707.08 932.6 673.47L949.02 654.52C949.02 654.52 940.84 681.22 932.65 687.25C932.65 687.25 900.35 725.16 782.76 732.05C782.76 732.05 734.67 737.22 720.17 691.56C720.17 691.56 700.5 588.19 600.57 589.05C600.57 589.05 541.86 590.21 540.42 691.28L524.32 687.68Z" fill="black"/>
<path opacity="0.2" d="M509.4 684.9L505.51 556.73C506.034 548.052 505.699 539.343 504.51 530.73C504.39 530.19 501.3 516.97 497.17 509.46C494.52 505.59 492.27 504.41 492.17 504.39L489.88 503.77L492.44 503.58C494.21 503.92 495.89 505.76 497.44 508.33C500.26 512.2 503.58 519 505.33 530.59C506.526 539.232 506.861 547.972 506.33 556.68L510.22 684.82L509.4 684.9Z" fill="black"/>
<path opacity="0.2" d="M588.49 589.84L587.65 589.98C587.65 589.88 585.86 579.25 579.96 570.8C567.59 553.09 563.55 541.08 563.09 533.06C562.865 530.281 563.205 527.484 564.09 524.84C566.02 519.43 571.19 515.43 578.21 513.45L579.71 513.7C572.96 515.6 566.71 520 564.86 525.13C563.977 527.737 563.637 530.497 563.86 533.24C564.36 541.09 568.41 552.87 580.58 570.32C586.68 578.92 588.48 589.73 588.49 589.84Z" fill="black"/>
<path opacity="0.2" d="M864.37 548.07C809.49 515.32 693.31 484.86 692.14 484.56L692.36 483.72C693.53 484.03 809.83 514.52 864.81 547.33L864.37 548.07Z" fill="black"/>
<path opacity="0.2" d="M944.16 593.46C923.44 557.01 867.65 526.96 824.49 508.16C795.296 495.533 765.352 484.712 734.83 475.76L735.06 474.93C765.621 483.891 795.601 494.725 824.83 507.37C868.11 526.22 924.07 556.37 944.91 593.03L944.16 593.46Z" fill="black"/>
<path opacity="0.1" d="M945.467 583.045C949.842 579.748 942.035 562.008 928.029 543.421C914.022 524.834 899.121 512.439 894.746 515.736C890.37 519.033 898.177 536.774 912.184 555.361C926.19 573.948 941.091 586.342 945.467 583.045Z" fill="black"/>
<path d="M945.471 581.322C949.847 578.024 942.04 560.284 928.033 541.697C914.027 523.11 899.126 510.715 894.751 514.013C890.375 517.31 898.182 535.05 912.188 553.637C926.195 572.224 941.096 584.619 945.471 581.322Z" fill="#DCE0ED"/>
<path opacity="0.1" d="M942.197 575.549C945.037 573.409 937.963 559.231 926.397 543.881C914.83 528.532 903.151 517.824 900.31 519.964C897.47 522.105 904.544 536.283 916.11 551.633C927.677 566.982 939.356 577.69 942.197 575.549Z" fill="black"/>
<path d="M942.199 574.693C945.04 572.552 937.966 558.374 926.399 543.024C914.833 527.675 903.153 516.967 900.313 519.108C897.472 521.248 904.546 535.426 916.113 550.776C927.679 566.125 939.359 576.833 942.199 574.693Z" fill="#F0F0F4"/>
<path opacity="0.1" d="M816.56 613.82C816.56 613.82 819.36 592.71 835.95 587.97C835.95 587.97 892.37 571.65 904.65 571.41C904.65 571.41 917.35 567.52 925.75 576.99L934.36 588.62C934.36 588.62 940.36 598.1 927.04 599.82C927.04 599.82 858.85 624.82 829.28 627.42C827.6 627.572 825.93 627.826 824.28 628.18C819.96 629.08 810.89 629.34 816.56 613.82Z" fill="black"/>
<path d="M817.43 612.96C817.43 612.96 820.23 591.85 836.81 587.11C836.81 587.11 893.23 570.79 905.51 570.55C905.51 570.55 918.21 566.65 926.61 576.13L935.23 587.76C935.23 587.76 941.23 597.23 927.9 598.96C927.9 598.96 859.72 623.96 830.15 626.56C828.469 626.712 826.8 626.965 825.15 627.32C820.82 628.22 811.75 628.48 817.43 612.96Z" fill="#F0F0F4"/>
<path opacity="0.1" d="M823.37 611.16C823.37 611.16 825.98 593.11 841.37 589.06C841.37 589.06 893.83 575.06 905.24 574.89C905.24 574.89 917.05 571.56 924.86 579.66L932.86 589.61C932.86 589.61 938.46 597.72 926.05 599.19C926.05 599.19 862.66 620.59 835.17 622.8C833.623 622.932 832.084 623.149 830.56 623.45C826.53 624.16 818.1 624.42 823.37 611.16Z" fill="black"/>
<path d="M824.24 610.28C824.24 610.28 826.84 592.28 842.24 588.18C842.24 588.18 894.7 574.18 906.11 574.01C906.11 574.01 917.92 570.67 925.73 578.78L933.73 588.78C933.73 588.78 939.33 596.88 926.92 598.36C926.92 598.36 863.52 619.76 836.03 621.97C834.489 622.102 832.957 622.319 831.44 622.62C827.39 623.34 818.96 623.56 824.24 610.28Z" fill="#636780"/>
<path d="M828.67 599.16L828.56 598.3C829.33 598.21 905.95 588.69 922.44 575.96L922.97 576.64C906.29 589.49 831.83 598.75 828.67 599.16Z" fill="#F0F0F4"/>
<path d="M824.64 609.08L824.49 608.23C825.33 608.08 909.62 592.47 927.8 581.23L928.26 581.96C909.94 593.29 825.49 608.92 824.64 609.08Z" fill="#F0F0F4"/>
<path d="M822.65 617.25L822.49 616.41C823.49 616.22 920.49 597.91 932.49 587.18L933.06 587.82C920.93 598.71 826.65 616.5 822.65 617.25Z" fill="#F0F0F4"/>
<path opacity="0.1" d="M923.6 617.69C923.6 617.69 887.04 632.94 848.6 639.78C845.2 640.393 841.837 641.153 838.51 642.06C834.61 643.12 829.07 644.32 826.06 643.54C821.11 642.24 818.37 648.27 823.72 653.01L824.06 653.31C825.993 655.011 828.25 656.304 830.696 657.111C833.141 657.919 835.724 658.225 838.29 658.01L846.52 657.32C846.52 657.32 913.29 642.68 931.91 631.26C931.91 631.26 940.41 625.43 941.06 618.87C941.71 612.31 942.48 607.14 935.74 611.02C929 614.9 923.6 617.69 923.6 617.69Z" fill="black"/>
<path d="M924.42 616.85C923.06 617.41 887.17 632.21 849.42 638.92C846.02 639.527 842.657 640.287 839.33 641.2C835.44 642.26 829.89 643.46 826.88 642.68C821.88 641.38 819.19 647.41 824.54 652.15L824.7 652.29C826.689 654.051 829.015 655.39 831.536 656.227C834.058 657.064 836.723 657.382 839.37 657.16L847.29 656.5H847.42C849.71 656 914.42 641.69 932.72 630.5H932.79C933.36 630.09 941.28 624.45 941.9 618.13C942.55 611.57 943.33 606.4 936.58 610.28C930.17 613.96 924.98 616.68 924.5 616.93L924.42 616.85Z" fill="#F0F0F4"/>
<path opacity="0.1" d="M919.54 621.67C919.54 621.67 889.54 634.15 857.33 641.24C854.13 641.94 850.96 642.76 847.81 643.67C844.66 644.58 840.16 645.67 837.66 645.35C833.38 644.78 831.34 649.05 836.14 651.92L836.29 652.01C839.923 654.18 844.19 655.041 848.38 654.45L855.8 653.45C855.8 653.45 911.99 639.31 927.29 630.39C927.29 630.39 934.29 625.9 934.47 621.39C934.65 616.88 935.09 613.39 929.54 616.39C923.99 619.39 919.54 621.67 919.54 621.67Z" fill="black"/>
<path d="M920.39 620.81C919.75 621.08 890.05 633.36 858.2 640.38C855 641.08 851.82 641.9 848.67 642.81C845.52 643.72 841.03 644.81 838.52 644.49C834.24 643.92 832.2 648.18 837.01 651.06C840.735 653.289 845.111 654.174 849.41 653.57L856.63 652.57C857.79 652.28 912.93 638.35 928.09 629.57C928.33 629.41 935.09 625 935.26 620.57C935.43 616.14 935.88 612.52 930.33 615.57C924.78 618.62 920.58 620.73 920.33 620.85L920.39 620.81Z" fill="#636780"/>
<path opacity="0.1" d="M798.066 657.788C798.378 651.541 794.884 646.29 790.261 646.059C785.639 645.828 781.638 650.704 781.326 656.951C781.014 663.197 784.508 668.448 789.13 668.679C793.753 668.91 797.754 664.034 798.066 657.788Z" fill="black"/>
<path d="M797.823 657.734C798.133 651.495 794.642 646.252 790.026 646.022C785.409 645.792 781.414 650.663 781.104 656.902C780.793 663.14 784.284 668.384 788.901 668.614C793.518 668.844 797.512 663.973 797.823 657.734Z" fill="#F0F0F4"/>
<path opacity="0.1" d="M838.88 665.93C838.88 665.93 795.03 672.61 783.4 673.26C771.77 673.91 770.02 680.36 770.02 680.36C770.02 680.36 767.22 696.73 783.37 691.99L840.65 685.53C840.65 685.53 848.41 685.75 848.41 675.19V672.82C848.433 671.494 848.567 670.173 848.81 668.87C849.12 667.22 848.27 664.54 838.88 665.93Z" fill="black"/>
<path d="M839.74 665.07C839.74 665.07 795.89 671.75 784.26 672.39C772.63 673.03 770.91 679.5 770.91 679.5C770.91 679.5 768.11 695.87 784.26 691.13L841.55 684.67C841.55 684.67 849.3 684.89 849.3 674.33V671.96C849.323 670.634 849.457 669.313 849.7 668.01C850.02 666.36 849.13 663.68 839.74 665.07Z" fill="#F0F0F4"/>
<path d="M954.18 637.29C953.11 638.09 952.18 640.06 951.46 642.4L937.26 652.46C937.087 652.582 936.883 652.655 936.672 652.67C936.46 652.685 936.249 652.642 936.06 652.545C935.871 652.448 935.713 652.301 935.602 652.12C935.491 651.94 935.431 651.732 935.43 651.52V640.96C935.429 639.446 935.82 637.958 936.565 636.64C937.31 635.323 938.383 634.22 939.68 633.44L954.46 624.53C955.22 627.36 957.02 635.16 954.18 637.29Z" fill="#F0F0F4"/>
<path d="M853.68 666.48L853.02 677.16C852.936 678.224 853.093 679.293 853.477 680.289C853.862 681.285 854.465 682.181 855.243 682.913C856.02 683.644 856.952 684.191 857.969 684.515C858.986 684.838 860.063 684.928 861.12 684.78C885.303 680.923 908.55 672.572 929.66 660.16L931.53 638.34C931.584 637.808 931.498 637.271 931.281 636.782C931.064 636.293 930.722 635.869 930.291 635.553C929.859 635.237 929.353 635.039 928.821 634.978C928.289 634.918 927.751 634.998 927.26 635.21C915.26 640.56 883.09 654.27 862.67 656.89C860.294 657.204 858.1 658.33 856.461 660.079C854.822 661.827 853.84 664.089 853.68 666.48V666.48Z" fill="#636780"/>
<path d="M860.28 660.98V678.34C860.28 678.34 913.69 665.72 925.53 657.21V640.74C904.731 650.24 882.804 657.041 860.28 660.98V660.98Z" fill="#F9A826"/>
<path d="M953.91 621.97C951.2 621.78 949.03 617.13 949.03 611.44C949.03 605.75 951.29 600.9 954.03 600.9C954.469 600.92 954.899 601.031 955.293 601.225C955.688 601.42 956.037 601.694 956.32 602.03C956.54 609.46 954.84 617.92 953.91 621.97Z" fill="#F9A826"/>
<path d="M954.77 621.1C952.06 620.92 949.9 616.27 949.9 610.58C949.9 604.89 952.15 600.03 954.9 600.03C955.341 600.053 955.773 600.166 956.168 600.362C956.564 600.558 956.915 600.833 957.2 601.17C957.4 608.6 955.7 617.06 954.77 621.1Z" fill="#F0F0F4"/>
<path d="M709.1 694.68C709.1 789.33 669.1 791.38 616.93 791.38C575.25 791.38 558.19 748.09 558.19 694.68C558.19 641.27 571.58 598.1 613.25 598.1C654.92 598.1 709.1 641.28 709.1 694.68Z" fill="#636780"/>
<path opacity="0.2" d="M709.1 694.68C709.1 789.33 669.1 791.38 616.93 791.38C575.25 791.38 558.19 748.09 558.19 694.68C558.19 641.27 571.58 598.1 613.25 598.1C654.92 598.1 709.1 641.28 709.1 694.68Z" fill="black"/>
<path d="M610.77 791.38C639.809 791.38 663.35 748.086 663.35 694.68C663.35 641.274 639.809 597.98 610.77 597.98C581.731 597.98 558.19 641.274 558.19 694.68C558.19 748.086 581.731 791.38 610.77 791.38Z" fill="#636780"/>
<path d="M160.23 637.29C160.23 666.29 151.83 689.55 134.38 689.55C116.93 689.55 96.1899 666.02 96.1899 637C96.1899 607.98 103.44 582.45 120.89 582.45C138.34 582.45 160.23 608.27 160.23 637.29Z" fill="#F0F0F4"/>
<path d="M160.22 636.16C160.22 638.36 160.16 640.52 160.04 642.64C159.791 648.215 158.973 653.751 157.6 659.16C154.77 669.84 149.6 677.26 142.06 678.67C141.173 678.832 140.272 678.913 139.37 678.91C135.383 678.781 131.514 677.526 128.21 675.29C121.02 670.71 114.39 662.16 111.02 651.47C109.76 647.542 108.984 643.476 108.71 639.36C108.63 638.24 108.59 637.1 108.59 635.96C108.5 628.06 109.288 620.175 110.94 612.45C111.881 607.746 113.598 603.231 116.02 599.09C119.1 594.24 123.19 591.35 128.43 591.35C132.351 591.511 136.144 592.791 139.36 595.04C144.165 598.314 148.249 602.538 151.36 607.45C157.015 615.968 160.092 625.937 160.22 636.16V636.16Z" fill="#636780"/>
<path d="M160.02 642.68C159.775 648.241 158.964 653.763 157.6 659.16C157.24 658.75 147.36 647.33 139.94 654.66C134.49 660.03 139.08 672.26 142.06 678.66C141.173 678.822 140.272 678.903 139.37 678.9C135.383 678.771 131.514 677.516 128.21 675.28V674.46C128.21 674.46 132.6 660.78 120.89 652.35C120.89 652.35 115.2 650.09 110.97 651.45C109.71 647.522 108.934 643.456 108.66 639.34C109.66 638.55 116.51 632.68 113.71 621.62C112.954 618.503 112.012 615.434 110.89 612.43C111.849 607.73 113.583 603.222 116.02 599.09C116.02 599.09 118.27 611.3 126.88 612.03C135.49 612.76 139.25 595.51 139.36 595.03C144.165 598.304 148.249 602.528 151.36 607.44C151.36 607.44 137.61 613.16 141.62 628.38C144.56 639.16 154.52 641.97 160.02 642.68Z" fill="#F0F0F4"/>
<path d="M132.365 644.844C135.897 644.344 138.059 638.975 137.193 632.851C136.327 626.728 132.761 622.168 129.229 622.668C125.697 623.167 123.536 628.536 124.402 634.66C125.268 640.784 128.833 645.343 132.365 644.844Z" fill="#636780"/>
<path d="M619.94 698.72C619.94 733.49 612.53 761.34 597.14 761.34C581.75 761.34 563.45 733.15 563.45 698.34C563.45 663.53 569.85 632.98 585.24 632.98C600.63 632.98 619.94 663.95 619.94 698.72Z" fill="#F0F0F4"/>
<path d="M619.94 697.41C619.94 700.077 619.887 702.667 619.78 705.18C619.558 711.812 618.836 718.417 617.62 724.94C615.13 737.74 610.62 746.62 603.91 748.32C603.134 748.505 602.338 748.599 601.54 748.6C598.32 748.6 594.94 747.06 591.7 744.26C585.32 738.77 579.5 728.47 576.49 715.71C575.387 710.944 574.717 706.087 574.49 701.2C574.42 699.86 574.38 698.5 574.38 697.12C574.296 687.692 574.992 678.273 576.46 668.96C577.272 663.45 578.805 658.07 581.02 652.96C583.74 647.15 587.35 643.69 591.97 643.69C595.08 643.69 598.39 645.28 601.61 648.11C605.46 651.5 609.17 656.65 612.23 662.98C617.311 673.746 619.944 685.505 619.94 697.41V697.41Z" fill="#636780"/>
<path d="M619.78 705.16C619.558 711.792 618.836 718.397 617.62 724.92C617.31 724.42 608.62 710.74 602.04 719.52C597.24 725.96 601.28 740.61 603.91 748.3C603.134 748.485 602.338 748.579 601.54 748.58C598.32 748.58 594.94 747.04 591.7 744.24V743.24C591.7 743.24 595.57 726.85 585.24 716.75C585.24 716.75 580.24 714.04 576.49 715.67C575.387 710.904 574.717 706.047 574.49 701.16C575.37 700.21 581.41 693.16 578.94 679.93C578 674.93 577.16 671.36 576.46 668.93C577.272 663.42 578.805 658.04 581.02 652.93C581.02 652.93 583.02 667.57 590.6 668.43C598.18 669.29 601.51 648.65 601.6 648.08C605.45 651.47 609.16 656.62 612.22 662.95C612.22 662.95 600.09 669.81 603.63 688.04C606.12 701.01 614.91 704.33 619.78 705.16Z" fill="#F0F0F4"/>
<path d="M592.521 709.302C595.669 709.044 597.733 702.869 597.131 695.51C596.528 688.15 593.487 682.393 590.339 682.651C587.19 682.909 585.126 689.084 585.729 696.443C586.331 703.803 589.372 709.56 592.521 709.302Z" fill="#636780"/>
<path opacity="0.2" d="M736.65 547.31L736.3 548.1C735.96 547.94 706.18 535.1 595.75 516.36C590.59 515.487 585.257 514.597 579.75 513.69C579.24 513.62 578.75 513.53 578.22 513.45C560.55 510.57 541.04 507.58 519.52 504.45L519.64 503.59C548.79 507.79 574.24 511.79 596.44 515.59C706.59 534.31 736.3 547.16 736.65 547.31Z" fill="black"/>
<path opacity="0.1" d="M176.88 383.67C176.88 383.67 186.88 366.67 221.1 365.16C221.1 365.16 471.2 332.49 629.1 366.44C629.1 366.44 642.58 372.44 627.95 375.96C613.32 379.48 277.09 391.65 176.88 383.67Z" fill="black"/>
<path d="M176.88 381.95C176.88 381.95 186.88 364.95 221.1 363.43C221.1 363.43 471.2 330.77 629.1 364.72C629.1 364.72 642.58 370.72 627.95 374.24C613.32 377.76 277.09 389.93 176.88 381.95Z" fill="white"/>
<path opacity="0.1" d="M153.47 453.36C169 416.8 187.64 399.51 193.54 394.68C194.7 393.735 196.144 393.207 197.64 393.18L279.46 391.66C280.566 391.635 281.66 391.888 282.644 392.394C283.627 392.901 284.468 393.645 285.09 394.56C284.646 393.196 283.776 392.011 282.608 391.179C281.439 390.347 280.034 389.913 278.6 389.94L196.78 391.46C195.283 391.48 193.837 392.009 192.68 392.96C186.78 397.78 168.14 415.07 152.61 451.63C152.038 452.962 151.804 454.415 151.927 455.859C152.051 457.303 152.53 458.695 153.32 459.91C152.525 457.789 152.579 455.443 153.47 453.36V453.36Z" fill="black"/>
<path opacity="0.1" d="M300.75 457.44L311.9 406.77C313.9 397.6 321.48 391.1 330.22 391.02L435.6 390.02C439.617 389.992 443.514 391.388 446.6 393.96C444.986 392.207 443.026 390.808 440.843 389.852C438.66 388.897 436.303 388.406 433.92 388.41L328.54 389.41C319.79 389.5 312.23 396 310.22 405.17L299.02 455.83C298.08 459.916 298.274 464.181 299.581 468.164C300.889 472.147 303.261 475.697 306.44 478.43C303.846 475.664 301.971 472.304 300.979 468.644C299.987 464.984 299.908 461.137 300.75 457.44V457.44Z" fill="black"/>
<path opacity="0.1" d="M528.6 478.78L491.3 401.46C490.772 400.364 490.528 399.153 490.59 397.938C490.652 396.723 491.019 395.543 491.656 394.506C492.293 393.47 493.18 392.61 494.237 392.006C495.293 391.402 496.484 391.074 497.7 391.05C526.11 390.53 600.78 388.4 639.26 379.95C636.84 378.06 635.45 377.01 635.45 377.01C597.45 385.76 521.12 387.94 492.31 388.46C491.094 388.484 489.903 388.812 488.847 389.416C487.79 390.02 486.903 390.88 486.266 391.916C485.629 392.953 485.262 394.133 485.2 395.348C485.138 396.563 485.382 397.774 485.91 398.87L523.22 476.16C524.742 479.321 526.874 482.149 529.493 484.483C532.111 486.817 535.166 488.61 538.48 489.76C534.215 487.107 530.789 483.3 528.6 478.78Z" fill="black"/>
<path d="M540.41 687.68H524.33V692.63H540.41V687.68Z" fill="#F9A826"/>
<path opacity="0.2" d="M540.41 687.68H524.33V692.63H540.41V687.68Z" fill="black"/>
<path d="M212.18 638.69L192.41 642.1C192.532 642.784 192.723 643.454 192.98 644.1C193.37 645.1 214.98 643.33 214.98 643.33L212.9 642.9L212.18 638.69Z" fill="#F9A826"/>
<path opacity="0.2" d="M212.18 638.69L192.41 642.1C192.532 642.784 192.723 643.454 192.98 644.1C193.37 645.1 214.98 643.33 214.98 643.33L212.9 642.9L212.18 638.69Z" fill="black"/>
<path opacity="0.1" d="M137.59 687.16C120.15 687.16 99.3999 663.63 99.3999 634.61C99.3999 614.72 102.81 596.46 110.57 586.95C100.57 595.02 96.1899 615.37 96.1899 637.82C96.1899 666.82 116.94 690.37 134.38 690.37C140.28 690.37 145.13 687.71 148.99 683.07C145.793 685.738 141.754 687.187 137.59 687.16Z" fill="black"/>
<path opacity="0.1" d="M600.56 757.48C584.94 757.48 566.36 729.23 566.36 694.38C566.36 670.49 569.36 648.57 576.36 637.15C567.36 646.84 563.49 671.28 563.49 698.24C563.49 733.09 582.07 761.34 597.69 761.34C602.97 761.34 607.32 758.14 610.77 752.58C607.87 755.74 604.47 757.48 600.56 757.48Z" fill="black"/>
<path opacity="0.1" d="M786.304 622.104C796.356 612.052 788.597 587.995 768.973 568.371C749.349 548.747 725.292 540.988 715.24 551.04C705.188 561.092 712.947 585.149 732.571 604.773C752.195 624.397 776.252 632.156 786.304 622.104Z" fill="black"/>
<path d="M787.164 621.248C797.216 611.196 789.457 587.139 769.833 567.515C750.209 547.891 726.152 540.132 716.1 550.184C706.048 560.236 713.807 584.293 733.431 603.917C753.055 623.541 777.112 631.3 787.164 621.248Z" fill="#DCE0ED"/>
<path opacity="0.1" d="M784.249 615.12C791.619 607.751 784.093 588.278 767.441 571.626C750.789 554.974 731.316 547.449 723.947 554.818C716.578 562.187 724.103 581.66 740.755 598.312C757.407 614.964 776.88 622.489 784.249 615.12Z" fill="black"/>
<path d="M784.251 614.252C791.62 606.883 784.095 587.41 767.443 570.758C750.791 554.106 731.318 546.581 723.949 553.95C716.58 561.319 724.105 580.792 740.757 597.444C757.409 614.096 776.882 621.621 784.251 614.252Z" fill="#F0F0F4"/>
<path d="M1052.49 751.29C1052.49 751.29 1010.21 748.74 1015.19 778.37C1015.19 778.37 1014.19 783.6 1018.95 785.98C1018.95 785.98 1019.02 783.79 1023.29 784.53C1024.81 784.786 1026.35 784.86 1027.88 784.75C1029.95 784.611 1031.92 783.796 1033.49 782.43V782.43C1033.49 782.43 1045.38 777.52 1050 758.1C1050 758.1 1053.42 753.86 1053.28 752.77L1046.15 755.77C1046.15 755.77 1048.59 760.92 1046.67 765.2C1046.67 765.2 1046.44 755.96 1045.07 756.2C1044.79 756.2 1041.36 757.98 1041.36 757.98C1041.36 757.98 1045.56 766.98 1042.36 773.46C1042.36 773.46 1043.56 762.46 1040.02 758.63L1035.02 761.56C1035.02 761.56 1039.92 770.82 1036.6 778.38C1036.6 778.38 1037.45 766.79 1033.96 762.27L1029.41 765.82C1029.41 765.82 1034.02 774.95 1031.21 781.22C1031.21 781.22 1030.84 767.73 1028.42 766.71C1028.42 766.71 1024.42 770.22 1023.84 771.66C1023.84 771.66 1026.99 778.28 1025.03 781.78C1025.03 781.78 1023.83 772.78 1022.85 772.78C1022.85 772.78 1018.85 778.78 1018.47 782.78C1018.47 782.78 1018.64 776.71 1021.89 772.17C1019.6 772.604 1017.49 773.699 1015.82 775.32C1015.82 775.32 1016.43 771.11 1022.82 770.74C1022.82 770.74 1026.1 766.22 1026.97 765.95C1026.97 765.95 1020.57 765.41 1016.69 767.13C1016.69 767.13 1020.11 763.13 1028.15 764.96L1032.64 761.3C1032.64 761.3 1024.21 760.14 1020.64 761.42C1020.64 761.42 1024.75 757.9 1033.85 760.42L1038.74 757.5C1038.74 757.5 1031.56 755.95 1027.28 756.5C1027.28 756.5 1031.79 754.06 1040.18 756.7L1043.67 755.13C1043.67 755.13 1038.41 754.13 1036.87 753.94C1035.33 753.75 1035.24 753.35 1035.24 753.35C1038.57 752.794 1042 753.175 1045.13 754.45C1045.13 754.45 1052.61 751.76 1052.49 751.29Z" fill="#F9A826"/>
<path opacity="0.1" d="M1023.37 793.62C1039.89 793.62 1053.29 791.355 1053.29 788.56C1053.29 785.765 1039.89 783.5 1023.37 783.5C1006.85 783.5 993.45 785.765 993.45 788.56C993.45 791.355 1006.85 793.62 1023.37 793.62Z" fill="#F9A826"/>
<path opacity="0.1" d="M1117.17 697.09C1126.49 697.09 1134.04 695.814 1134.04 694.24C1134.04 692.666 1126.49 691.39 1117.17 691.39C1107.85 691.39 1100.3 692.666 1100.3 694.24C1100.3 695.814 1107.85 697.09 1117.17 697.09Z" fill="#F9A826"/>
<path d="M992.9 687.72C992.9 687.72 964.12 685.99 967.51 706.15C967.335 707.174 967.489 708.228 967.948 709.16C968.408 710.092 969.151 710.855 970.07 711.34C970.07 711.34 970.12 709.84 973.07 710.34C974.104 710.515 975.154 710.565 976.2 710.49C977.611 710.392 978.952 709.837 980.02 708.91V708.91C980.02 708.91 988.11 705.57 991.26 692.35C991.26 692.35 993.58 689.46 993.49 688.72L988.64 690.79C988.64 690.79 990.29 694.3 988.99 697.21C988.99 697.21 988.83 690.92 987.9 691.07C987.71 691.07 985.38 692.28 985.38 692.28C985.38 692.28 988.23 698.39 986.08 702.82C986.08 702.82 986.89 695.3 984.48 692.73L981.07 694.73C981.07 694.73 984.4 701.04 982.14 706.18C982.14 706.18 982.72 698.29 980.35 695.18L977.25 697.59C977.25 697.59 980.38 703.81 978.47 708.07C978.47 708.07 978.22 698.89 976.58 698.19C976.58 698.19 973.87 700.58 973.45 701.57C973.45 701.57 975.6 706.08 974.27 708.46C974.27 708.46 973.45 702.34 972.78 702.31C972.78 702.31 970.08 706.31 969.78 709.14C969.915 706.571 970.718 704.083 972.11 701.92C970.552 702.217 969.113 702.96 967.97 704.06C967.97 704.06 968.39 701.2 972.77 700.95C972.77 700.95 975.01 697.87 975.6 697.68C975.6 697.68 971.25 697.32 968.6 698.49C968.6 698.49 970.93 695.79 976.4 697.02L979.46 694.52C979.46 694.52 973.72 693.73 971.29 694.6C971.29 694.6 974.09 692.21 980.29 693.95L983.62 691.95C983.62 691.95 978.73 690.9 975.82 691.28C975.82 691.28 978.89 689.62 984.6 691.42L986.98 690.35C986.98 690.35 983.4 689.64 982.35 689.53C981.3 689.42 981.24 689.13 981.24 689.13C983.509 688.752 985.839 689.012 987.97 689.88C987.97 689.88 993.02 688.04 992.9 687.72Z" fill="#F9A826"/>
<path opacity="0.1" d="M973.08 716.53C984.33 716.53 993.45 714.99 993.45 713.09C993.45 711.19 984.33 709.65 973.08 709.65C961.83 709.65 952.71 711.19 952.71 713.09C952.71 714.99 961.83 716.53 973.08 716.53Z" fill="#F9A826"/>
<path opacity="0.1" d="M29.92 749.4C46.4444 749.4 59.84 747.135 59.84 744.34C59.84 741.545 46.4444 739.28 29.92 739.28C13.3956 739.28 0 741.545 0 744.34C0 747.135 13.3956 749.4 29.92 749.4Z" fill="#F9A826"/>
<path d="M9.82996 720.83C9.82996 720.83 26.89 720.31 32.04 716.64C37.19 712.97 58.29 708.64 59.57 714.48C60.85 720.32 85.22 743.7 65.95 743.85C46.68 744 21.18 740.85 16.04 737.72C10.9 734.59 9.82996 720.83 9.82996 720.83Z" fill="#A8A8A8"/>
<path opacity="0.2" d="M66.2899 741.81C47.0199 741.96 21.5199 738.81 16.3899 735.68C12.4799 733.3 10.9199 724.75 10.3899 720.81H9.81995C9.81995 720.81 10.8999 734.58 16.0299 737.7C21.1599 740.82 46.6699 743.99 65.9399 743.83C71.4999 743.83 73.42 741.83 73.32 738.83C72.55 740.67 70.4299 741.77 66.2899 741.81Z" fill="black"/>
<path d="M655.02 467.79C657.88 460.11 652.78 452.02 652.78 452.02L652.37 434.44C654.62 429.79 646.87 418.27 646.87 418.27C646.87 418.27 645.03 409.57 643.4 408.77C641.77 407.97 639.94 404.32 639.94 404.32C639.929 403.817 639.776 403.328 639.5 402.907C639.225 402.486 638.837 402.151 638.38 401.94C635.48 396.694 632.993 391.231 630.94 385.6C629.8 382.48 628.79 379.15 629.44 375.89C629.624 375.067 629.868 374.258 630.17 373.47C630.24 373.3 630.3 373.14 630.36 372.97C630.42 372.8 630.36 372.83 630.44 372.77L630.51 372.59C631.277 370.966 631.686 369.196 631.71 367.4C631.48 363.65 628.03 360.91 624.6 359.32C621.17 357.73 617.32 356.7 614.6 354.05C611.22 350.74 610.44 345.71 609.6 341.05C608.76 336.39 607.6 331.36 603.78 328.56C600.4 326.08 595.78 326.03 591.65 326.73C586.057 327.686 580.728 329.808 576.01 332.96C571.46 336.02 567.4 340.07 562.14 341.66C560.21 342.24 558.14 342.47 556.26 343.1C554.246 343.824 552.417 344.985 550.904 346.5C549.391 348.014 548.232 349.845 547.51 351.86V351.86C547.44 352.05 547.39 352.24 547.32 352.43C547.25 352.62 547.16 352.9 547.09 353.14C547.02 353.38 546.99 353.55 546.95 353.75C546.91 353.95 546.83 354.22 546.79 354.46C546.75 354.7 546.72 354.87 546.7 355.07C546.68 355.27 546.63 355.56 546.61 355.8C546.59 356.04 546.61 356.2 546.61 356.4C546.61 356.6 546.61 356.91 546.61 357.16C544.425 359.219 542.54 361.576 541.01 364.16C534.29 374.82 525.92 390.23 522.2 397.16L522.02 397.5V397.29C522.02 397.29 505.61 413.76 515.19 411.54C515.85 411.385 516.518 411.265 517.19 411.18L517.02 413.06V413.11C515.49 415.03 508.86 421.67 521.19 426.59C531.42 430.67 552.33 431.71 559.19 431.95L558.59 434.84C547.99 443.53 552.07 453.44 551.87 459.91C551.67 466.38 550.64 474.06 550.64 474.06C550.64 474.06 546.15 481.34 546.77 485.18C547.39 489.02 543.51 495.29 543.51 495.29C543.51 495.29 537.8 501.55 538.41 505.6C539.02 509.65 537.41 514.89 537.41 514.89C537.41 514.89 533.54 521.97 535.17 526.01C536.8 530.05 535.99 532.28 535.99 532.28C535.99 532.28 527.63 533.49 526.99 537.94C526.35 542.39 518.84 544 518.84 544C518.84 544 505.39 548.85 502.12 551.08C498.85 553.31 481.54 569.47 481.54 569.47C481.54 569.47 464.15 587.36 463.23 589.16C462.31 590.96 452.07 598.71 456.81 605.99C457.05 606.35 457.29 606.72 457.54 607.08C462.482 614.283 468.893 620.36 476.35 624.91C479.63 626.91 482.9 629.19 483.87 630.7C486.01 634.04 521.79 656.93 521.79 656.93C521.79 656.93 537.51 670.75 547.63 680.38L548.4 685.01C548.27 685.21 548.14 685.42 548.01 685.66C547.91 686.164 547.95 686.687 548.127 687.17C548.303 687.653 548.609 688.079 549.01 688.4L549.15 689.22C549.15 689.22 553.23 723.59 556.9 739.66C559.33 750.29 557.6 758.31 556.16 762.52C552.36 758.31 551.91 756.79 551.91 756.79C550.756 759.517 549.885 762.355 549.31 765.26C549.25 765.69 549.21 766.09 549.19 766.47C549.139 766.466 549.087 766.475 549.04 766.496C548.993 766.517 548.952 766.549 548.92 766.59L547.49 768.59C545.93 770.74 544.56 773.03 543.17 775.29C539.96 780.5 529.89 782.93 529.89 782.93C529.044 783.393 528.134 783.73 527.19 783.93C524.362 784.412 521.482 784.5 518.63 784.19C517.769 784.318 516.922 784.525 516.1 784.81C515.43 785.033 514.786 785.328 514.18 785.69C509.79 788.53 511.39 793.77 511.39 793.77L511.5 793.84L511.61 793.91L511.79 794.02L512.06 794.19L512.29 794.32L512.53 794.47L512.78 794.61L513.09 794.78L513.35 794.93L514.01 795.28L514.32 795.45L514.75 795.67L515.1 795.84L515.57 796.07L516.03 796.28C516.29 796.41 516.56 796.53 516.84 796.65L517.31 796.86L517.85 797.08L518.37 797.29L518.91 797.5L519.91 797.87L520.41 798.04L521.12 798.28L521.66 798.45L522.48 798.69L522.93 798.81C523.34 798.93 523.76 799.03 524.19 799.13L524.61 799.22C524.94 799.3 525.27 799.37 525.61 799.43L525.86 799.49H526.07C526.43 799.56 526.79 799.61 527.16 799.67H527.48L528.92 799.84H529.25C529.63 799.84 530.01 799.9 530.4 799.92H530.88H531.98H532.42C532.92 799.92 533.42 799.9 533.92 799.86H534.23L535.46 799.74L536 799.66L537.08 799.48L537.59 799.38C538.11 799.27 538.59 799.15 539.16 799.01C550.549 795.901 562.408 794.884 574.16 796.01C583.16 796.77 585.42 793.69 585.42 793.69C585.591 793.446 585.742 793.189 585.87 792.92C585.919 792.819 585.963 792.716 586 792.61C586.08 792.427 586.15 792.24 586.21 792.05C586.21 791.92 586.29 791.79 586.32 791.66C586.35 791.53 586.41 791.27 586.45 791.07C586.49 790.87 586.45 790.79 586.52 790.65C586.59 790.51 586.52 790.49 586.52 790.41C586.547 790.214 586.564 790.017 586.57 789.82C586.653 788.085 586.532 786.347 586.21 784.64C585.474 780.876 584.375 777.192 582.93 773.64L582.29 774.08C582.217 773.753 582.147 773.42 582.08 773.08C579.88 761.23 579.08 732.8 579.08 729.79C580.322 729.802 581.53 729.386 582.5 728.61C582.67 728.47 582.76 728.38 582.76 728.38C590.4 722.17 586.65 693.81 584.13 689.87C581.61 685.93 581.13 665.69 580.23 659.25C579.8 656.19 578.23 655.3 576.1 655.25C575.804 655.235 575.507 655.235 575.21 655.25C574.91 649.25 575.79 635.14 576.47 625.51C576.47 624.89 576.56 624.28 576.6 623.7L578.53 623.8L581.38 606.8C581.38 606.8 583.02 600.6 593.02 582.81C603.02 565.02 604.02 545.62 604.02 545.62C604.02 545.62 607.08 539.76 606.26 537.13C606.05 536.45 605.72 534.53 605.33 532.04C608.731 529.985 612.308 528.238 616.02 526.82C626.71 522.5 634.73 514.41 638.45 510.4L639.04 509.76C639.96 511.155 640.801 512.601 641.56 514.09C641.56 514.09 650.33 508.02 654.81 502.76C655.295 502.161 655.677 501.485 655.94 500.76C658.64 494.04 655.88 479.67 655.88 479.67C659.39 473.46 655.02 467.79 655.02 467.79Z" fill="url(#paint1_linear)"/>
<g opacity="0.1">
<path opacity="0.1" d="M610.89 508.69C610.48 509.44 607.54 511.2 603.96 513.14C603.63 510.53 603.39 508.56 603.34 507.95C603.13 505.72 607.89 495.73 607.89 495.73C607.89 495.73 617 483.51 616.79 481.67C616.58 479.83 620.31 474.55 620.31 474.55L628.57 461.16C628.113 462.181 627.951 463.308 628.101 464.416C628.251 465.524 628.708 466.568 629.42 467.43C631.91 470.69 629.83 477.21 629.83 477.21L630.34 485.43V486.25C630.05 486.54 628.72 487.81 625.78 490.46C623.07 492.9 623.55 493.65 623.86 493.85C623.24 494.95 624 495.14 624 495.14C624.24 495.14 624.48 495.12 624.72 495.08L624.06 495.69C619.02 500.41 611.63 507.36 610.89 508.69Z" fill="url(#paint2_linear)"/>
</g>
<path d="M556.29 357.16C553.82 359.74 556.63 363.36 554.71 366.16C553.62 367.73 551.22 368.72 549.86 370.16C547.21 373.04 549.21 376.72 550.49 380C555.17 391.94 548.15 405.55 533.49 413C539.828 415.809 546.93 416.39 553.64 414.65C560.2 412.9 565.25 408.81 566.57 404.17C567.57 400.88 566.71 397.38 568.4 394.23C571.03 389.32 579.08 386.37 581.46 381.41C583.32 377.52 581.29 373.32 578.92 369.56C575.941 364.862 572.551 360.438 568.79 356.34C566.49 353.83 566.49 352.84 562.79 353.51C560.389 354.252 558.173 355.496 556.29 357.16Z" fill="#985C7E"/>
<path d="M578.18 392.16C577.88 395.705 577.089 399.192 575.83 402.52C574.43 406.76 572.99 411.05 570.58 414.82C568.17 418.59 564.63 421.82 560.31 422.97C561.748 424.254 563.456 425.199 565.308 425.733C567.16 426.268 569.109 426.38 571.01 426.06C573.76 425.57 576.54 424.18 579.2 425.06C580.423 425.599 581.604 426.23 582.73 426.95C586.65 428.95 591.73 427.47 594.57 424.1C595.905 422.354 596.793 420.306 597.153 418.138C597.514 415.969 597.338 413.745 596.64 411.66C595.84 409.13 594.41 406.82 593.64 404.26C592.55 400.48 592.98 396.26 591.15 392.78C588.49 387.78 581.15 384.78 576.09 382.78C575.84 385.5 578.3 388.96 578.18 392.16Z" fill="#985C7E"/>
<path opacity="0.1" d="M571.25 382.83C570.947 386.365 570.156 389.842 568.9 393.16C567.51 397.41 566.07 401.7 563.65 405.46C561.23 409.22 557.71 412.46 553.39 413.61C554.824 414.896 556.531 415.842 558.382 416.377C560.233 416.912 562.18 417.023 564.08 416.7C566.83 416.22 569.61 414.82 572.27 415.7C573.495 416.231 574.676 416.86 575.8 417.58C579.72 419.58 584.8 418.1 587.64 414.73C588.978 412.985 589.866 410.938 590.227 408.768C590.588 406.599 590.411 404.374 589.71 402.29C588.91 399.76 587.48 397.45 586.71 394.89C585.62 391.11 586.05 386.89 584.22 383.41C581.56 378.41 574.17 375.41 569.16 373.41C568.91 376.16 571.37 379.58 571.25 382.83Z" fill="black"/>
<path d="M576.21 616.08C576.21 616.08 573.21 652.76 574.5 657.67C575.79 662.58 578.02 728.93 578.02 728.93C578.02 728.93 578.92 767.61 581.93 775.73C584.94 783.85 561.58 781.54 560.78 781.44C559.98 781.34 554.17 764.9 554.17 764.9C554.17 764.9 559.88 754.9 556.27 738.9C552.66 722.9 548.66 688.9 548.66 688.9L542.02 648.85C542.02 648.85 542.92 639.43 539.42 634.12C535.92 628.81 531.42 594.04 532.42 591.03C533.42 588.02 557.24 581.41 557.24 581.41L567.5 594.84L576.21 616.08Z" fill="#ECB4B6"/>
<path opacity="0.07" d="M532.75 598.7C532.75 598.7 532.75 598.76 532.75 598.79C532.75 598.99 532.75 599.2 532.75 599.41C532.82 600.07 532.89 600.77 532.97 601.49C534.22 613.1 537.09 630.49 539.48 634.12C541.87 637.75 542.21 643.31 542.18 646.45C542.18 646.81 542.18 647.14 542.18 647.45C542.18 648.34 542.1 648.87 542.1 648.87L547.19 679.7L547.41 681.01L548.72 688.96C548.72 688.96 552.72 723.04 556.34 738.96C558.102 746.148 557.944 753.673 555.88 760.78C555.78 761.11 555.68 761.43 555.58 761.72C555.221 762.82 554.77 763.887 554.23 764.91C554.23 764.91 555.05 767.23 556.12 770.14L556.86 772.14C557 772.5 557.13 772.85 557.26 773.21C558.81 777.3 560.45 781.39 560.85 781.44C561.64 781.54 585 783.84 581.99 775.73C581.597 774.548 581.296 773.338 581.09 772.11C578.8 759.7 578.09 728.93 578.09 728.93C578.09 728.93 575.89 662.59 574.58 657.67C573.72 654.4 574.76 637.06 575.58 625.83C575.97 620.2 576.31 616.11 576.31 616.11L567.59 594.87L557.33 581.44C557.33 581.44 540.23 586.19 534.4 589.44L534.23 589.53C533.521 589.849 532.923 590.371 532.51 591.03C532.26 591.81 532.38 594.72 532.75 598.7Z" fill="black"/>
<path opacity="0.05" d="M548.25 645.05C548.25 645.05 559.57 648.05 558.57 651.36L548.25 645.05Z" fill="black"/>
<path opacity="0.1" d="M554.27 764.9C554.27 764.9 555.5 768.37 556.9 772.14C558.5 772.9 559.72 773.37 559.72 773.37C559.72 773.37 564.08 769.32 558.32 763.37C557.39 762.37 556.6 761.56 555.92 760.79C555.509 762.212 554.956 763.589 554.27 764.9V764.9Z" fill="black"/>
<path d="M548.74 766.86C549.18 769.26 554.45 771.92 557.3 773.21C558.38 773.69 559.12 773.98 559.12 773.98C559.652 773.431 560.064 772.777 560.33 772.06C560.99 770.31 561.11 767.46 557.72 763.95C556.92 763.13 556.23 762.39 555.62 761.71C551.8 757.46 551.35 755.94 551.35 755.94C550.223 758.647 549.372 761.462 548.81 764.34C548.655 765.171 548.631 766.022 548.74 766.86Z" fill="#CC8294"/>
<path opacity="0.1" d="M548.74 766.86C549.18 769.26 554.45 771.92 557.3 773.21C558.85 777.3 560.49 781.39 560.89 781.44C561.68 781.54 585.04 783.84 582.03 775.73C581.637 774.548 581.336 773.338 581.13 772.11L574.65 776.68C571.35 779.03 566.39 777.28 566.39 777.28L560.33 772.06L558.82 770.77C557.906 770.693 557.009 770.478 556.16 770.13C554.085 769.22 552.288 767.778 550.95 765.95C549.8 764.73 549.15 764.39 548.81 764.34C548.655 765.171 548.631 766.022 548.74 766.86V766.86Z" fill="black"/>
<path d="M511.52 792.56C515.894 795.355 520.756 797.302 525.85 798.3C530.181 799.175 534.655 799.048 538.93 797.93C550.108 794.845 561.756 793.828 573.3 794.93C582.12 795.68 584.37 792.63 584.37 792.63C585.84 790.63 585.79 787.15 585.2 783.63C584.49 779.9 583.425 776.247 582.02 772.72C582.02 772.72 578.02 775.53 574.7 777.88C571.38 780.23 566.44 778.49 566.44 778.49L558.87 771.97C554.06 771.62 551 767.16 551 767.16C548.89 764.9 548.46 765.65 548.46 765.65L547.02 767.59C545.48 769.73 544.13 771.99 542.76 774.24C539.61 779.4 529.76 781.82 529.76 781.82C528.923 782.251 528.032 782.567 527.11 782.76C524.325 783.236 521.488 783.321 518.68 783.01C517.191 783.202 515.756 783.692 514.46 784.45C509.9 787.24 511.52 792.56 511.52 792.56Z" fill="#CC8294"/>
<path d="M557.23 777.01C557.661 777.01 558.01 776.661 558.01 776.23C558.01 775.799 557.661 775.45 557.23 775.45C556.799 775.45 556.45 775.799 556.45 776.23C556.45 776.661 556.799 777.01 557.23 777.01Z" fill="#4B4B5B"/>
<path d="M547.63 781.1C548.061 781.1 548.41 780.751 548.41 780.32C548.41 779.889 548.061 779.54 547.63 779.54C547.199 779.54 546.85 779.889 546.85 780.32C546.85 780.751 547.199 781.1 547.63 781.1Z" fill="#4B4B5B"/>
<path d="M551.42 786.92C551.851 786.92 552.2 786.571 552.2 786.14C552.2 785.709 551.851 785.36 551.42 785.36C550.989 785.36 550.64 785.709 550.64 786.14C550.64 786.571 550.989 786.92 551.42 786.92Z" fill="#4B4B5B"/>
<path d="M538.21 784.95C538.641 784.95 538.99 784.601 538.99 784.17C538.99 783.739 538.641 783.39 538.21 783.39C537.779 783.39 537.43 783.739 537.43 784.17C537.43 784.601 537.779 784.95 538.21 784.95Z" fill="#4B4B5B"/>
<path d="M552.98 779.54C553.411 779.54 553.76 779.191 553.76 778.76C553.76 778.329 553.411 777.98 552.98 777.98C552.549 777.98 552.2 778.329 552.2 778.76C552.2 779.191 552.549 779.54 552.98 779.54Z" fill="#4B4B5B"/>
<path d="M556.73 786.51C557.161 786.51 557.51 786.161 557.51 785.73C557.51 785.299 557.161 784.95 556.73 784.95C556.299 784.95 555.95 785.299 555.95 785.73C555.95 786.161 556.299 786.51 556.73 786.51Z" fill="#4B4B5B"/>
<path d="M542.98 783.38C543.411 783.38 543.76 783.031 543.76 782.6C543.76 782.169 543.411 781.82 542.98 781.82C542.549 781.82 542.2 782.169 542.2 782.6C542.2 783.031 542.549 783.38 542.98 783.38Z" fill="#4B4B5B"/>
<path d="M533.05 786.14C533.481 786.14 533.83 785.791 533.83 785.36C533.83 784.929 533.481 784.58 533.05 784.58C532.619 784.58 532.27 784.929 532.27 785.36C532.27 785.791 532.619 786.14 533.05 786.14Z" fill="#4B4B5B"/>
<path opacity="0.1" d="M511.52 792.56C511.52 792.56 524.95 801.79 538.93 797.93C550.108 794.845 561.756 793.828 573.3 794.93C582.12 795.68 584.37 792.63 584.37 792.63C585.019 791.661 585.408 790.542 585.5 789.38C585.5 789.15 585.5 788.92 585.56 788.69C585.62 787.015 585.499 785.339 585.2 783.69C583.36 785.06 579.56 786.69 571.85 786.98C558.52 787.4 540.93 790.81 540.93 790.81L523.93 790.11C523.93 790.11 514.41 788.05 514.45 784.5C509.9 787.24 511.52 792.56 511.52 792.56Z" fill="black"/>
<path d="M535.36 795.86C535.64 795.914 535.925 795.937 536.21 795.93C539.21 795.93 546.45 794.35 550.77 793.34C551.991 793.049 553.236 792.872 554.49 792.81C558.49 792.6 568.28 792.13 573.8 792.17H573.93C577.938 792.042 581.877 791.089 585.5 789.37C585.5 789.14 585.5 788.91 585.56 788.68C581.89 790.467 577.88 791.449 573.8 791.56C568.28 791.56 558.44 792 554.46 792.21C553.17 792.275 551.888 792.456 550.63 792.75C546.8 793.65 537.63 795.7 535.47 795.27L535.36 795.86Z" fill="#CC8294"/>
<path opacity="0.03" d="M542.22 647.43C542.22 648.32 542.14 648.85 542.14 648.85L547.23 679.68C548.14 680.55 549.02 681.38 549.85 682.19C552.41 684.503 554.787 687.011 556.96 689.69C559.96 694.35 570.59 691.95 570.39 691.5C570.19 691.05 565.83 669.1 565.83 669.1L562.38 660.23C562.38 660.23 558.78 662.48 555.24 658.73C553.01 656.36 548.02 651.73 544.63 648.63L542.24 646.45C542.24 646.81 542.23 647.16 542.22 647.43Z" fill="black"/>
<path opacity="0.05" d="M532.76 598.79C532.76 598.99 532.76 599.2 532.76 599.41C532.83 600.07 532.9 600.77 532.98 601.49C533.72 601.22 534.45 600.93 535.17 600.61L536.17 600.15C539.465 598.559 542.585 596.628 545.48 594.39L536.76 590.64L534.18 589.53C533.471 589.849 532.873 590.371 532.46 591.03C532.26 591.81 532.38 594.77 532.76 598.79Z" fill="black"/>
<path d="M457.9 606.41C458.14 606.77 458.37 607.13 458.62 607.49C463.469 614.617 469.77 620.639 477.11 625.16C480.34 627.16 483.55 629.41 484.51 630.91C486.61 634.21 521.79 656.91 521.79 656.91C521.79 656.91 538.16 671.41 548.05 680.98L549.31 682.2L549.92 682.8C550.65 683.51 551.31 684.18 551.92 684.8C552.8 685.69 553.53 686.47 554.09 687.12C554.3 687.36 554.49 687.58 554.65 687.78C554.836 688.003 555.01 688.237 555.17 688.48C558.17 693.14 568.8 690.73 568.6 690.28C568.4 689.83 564.02 667.9 564.02 667.9L560.56 659.03C559.871 659.408 559.107 659.631 558.323 659.682C557.539 659.734 556.753 659.614 556.02 659.33C555.03 658.932 554.144 658.313 553.43 657.52C551.2 655.16 546.2 650.52 542.81 647.43C540.81 645.59 539.37 644.29 539.37 644.29L528.09 631.52C528.09 631.52 513.66 612.73 502.84 608.07C502.84 608.07 515.03 603.07 523.73 601.75C527.042 601.397 530.293 600.61 533.4 599.41L534.4 598.94C537.693 597.346 540.813 595.416 543.71 593.18L535.02 589.44L489.18 569.73C488.9 569.73 486.24 569.91 484.29 570.04L482.22 570.18C482.22 570.18 465.13 587.92 464.22 589.73C463.31 591.54 453.24 599.16 457.9 606.41Z" fill="#ECB4B6"/>
<path opacity="0.03" d="M508.41 598.16C508.41 598.16 488.72 600.57 484.81 604.63C484.81 604.63 502.1 605.83 502.81 608.09C502.81 608.09 492.93 601.4 490.18 603.09L508.41 598.16Z" fill="black"/>
<path opacity="0.05" d="M549.31 682.21L549.92 682.81C550.65 683.52 551.31 684.19 551.92 684.81C552.8 685.7 553.53 686.48 554.09 687.13L556.64 683.83C555.775 683.091 554.795 682.496 553.74 682.07C553.043 681.754 552.283 681.603 551.519 681.627C550.754 681.651 550.005 681.851 549.33 682.21H549.31Z" fill="black"/>
<path d="M550.56 689.58C551.223 689.918 551.912 690.203 552.62 690.43L554.62 687.79L557.21 684.43C556.346 683.692 555.366 683.101 554.31 682.68C553.614 682.363 552.854 682.21 552.09 682.232C551.325 682.255 550.576 682.452 549.9 682.81C548.892 683.439 548.078 684.335 547.55 685.4C547.55 685.4 546.79 687.65 550.56 689.58Z" fill="#CC8294"/>
<path opacity="0.05" d="M550.15 689.16L550.56 689.57C551.223 689.908 551.912 690.193 552.62 690.42L554.62 687.78C554.806 688.003 554.98 688.237 555.14 688.48C558.14 693.14 568.77 690.73 568.57 690.28C568.37 689.83 564.02 667.9 564.02 667.9L560.56 659.03C559.871 659.408 559.107 659.631 558.323 659.682C557.539 659.734 556.753 659.614 556.02 659.33C555.22 660.15 555.08 661.18 556.02 662.48C557.984 665.471 559.157 668.912 559.43 672.48C560.78 676.2 556.68 680.76 554.32 682.68C553.927 683.007 553.502 683.291 553.05 683.53C552.548 683.832 552.147 684.278 551.9 684.81C551.177 686.2 550.591 687.657 550.15 689.16V689.16Z" fill="black"/>
<path d="M551.35 689.16L555.91 693.74C562.291 697.792 567.145 703.849 569.71 710.96C570.175 712.324 570.719 713.66 571.34 714.96C572.037 716.757 572.439 718.655 572.53 720.58C572.64 721.75 572.69 722.9 572.73 723.9C572.757 725.181 573.239 726.411 574.09 727.37L574.15 727.43C575.066 728.455 576.34 729.092 577.71 729.209C579.08 729.326 580.443 728.915 581.52 728.06C581.68 727.93 581.77 727.84 581.77 727.84C589.28 721.68 585.6 693.56 583.12 689.65C580.64 685.74 580.19 665.65 579.28 659.29C578.86 656.29 577.28 655.37 575.22 655.29C573.16 655.21 570.45 656.1 568.1 656.36H567.72C563.05 656.73 554.1 658.11 557.23 662.44C559.2 665.428 560.374 668.871 560.64 672.44C562.3 677.02 555.64 682.89 554.26 683.44C552.88 683.99 551.35 689.16 551.35 689.16Z" fill="#CC8294"/>
<path d="M557.94 687.66C558.675 687.66 559.27 687.065 559.27 686.33C559.27 685.595 558.675 685 557.94 685C557.205 685 556.61 685.595 556.61 686.33C556.61 687.065 557.205 687.66 557.94 687.66Z" fill="#4B4B5B"/>
<path d="M559.97 692.64C560.705 692.64 561.3 692.045 561.3 691.31C561.3 690.575 560.705 689.98 559.97 689.98C559.235 689.98 558.64 690.575 558.64 691.31C558.64 692.045 559.235 692.64 559.97 692.64Z" fill="#4B4B5B"/>
<path d="M566.21 700.66C566.945 700.66 567.54 700.065 567.54 699.33C567.54 698.595 566.945 698 566.21 698C565.475 698 564.88 698.595 564.88 699.33C564.88 700.065 565.475 700.66 566.21 700.66Z" fill="#4B4B5B"/>
<path d="M563.12 696.54C563.855 696.54 564.45 695.945 564.45 695.21C564.45 694.475 563.855 693.88 563.12 693.88C562.385 693.88 561.79 694.475 561.79 695.21C561.79 695.945 562.385 696.54 563.12 696.54Z" fill="#4B4B5B"/>
<path d="M568.8 705.41C569.535 705.41 570.13 704.815 570.13 704.08C570.13 703.345 569.535 702.75 568.8 702.75C568.065 702.75 567.47 703.345 567.47 704.08C567.47 704.815 568.065 705.41 568.8 705.41Z" fill="#4B4B5B"/>
<path opacity="0.1" d="M574.1 708.16C574.1 708.16 575.21 721.21 574.1 727.31C575.013 728.357 576.294 729.012 577.677 729.141C579.06 729.269 580.44 728.861 581.53 728C581.69 727.87 581.78 727.78 581.78 727.78C589.29 721.62 585.61 693.5 583.13 689.59C580.65 685.68 580.2 665.59 579.29 659.23C578.87 656.23 577.29 655.31 575.23 655.23C573.17 655.15 570.46 656.04 568.11 656.3C568.11 662.67 568.47 677.3 570.11 682.16C572.3 688.44 574.1 708.16 574.1 708.16Z" fill="black"/>
<path opacity="0.1" d="M577.41 681.61C578.81 686.54 580.91 700.06 580.72 707.28C580.57 712.58 581.18 722.91 581.52 728.02C581.68 727.89 581.77 727.8 581.77 727.8C589.28 721.64 585.6 693.52 583.12 689.61C580.64 685.7 580.19 665.61 579.28 659.25C578.86 656.25 577.28 655.33 575.22 655.25C575.5 661.75 576.3 677.71 577.41 681.61Z" fill="black"/>
<path d="M572.29 655.6C572.57 660.73 573.41 674.41 574.79 678.32C576.51 683.22 578.33 706.66 578.41 707.66H577.81C577.81 707.41 575.91 683.29 574.22 678.47C572.81 674.47 571.97 660.89 571.7 655.67L572.29 655.6Z" fill="#CC8294"/>
<path d="M567.89 403.02C567.89 403.02 558.17 404.75 552.66 406.79C547.15 408.83 546.34 409.94 546.34 409.94L540.63 410.84V404.73C540.63 404.73 520.17 406.24 518.11 405.41C518.063 405.39 518.019 405.363 517.98 405.33C516.98 404.33 518.58 413.25 517.08 415.15C515.58 417.05 509.08 423.63 521.19 428.51C533.3 433.39 560.77 433.89 560.77 433.89L568.59 418.46L567.89 403.02Z" fill="#FF718D"/>
<path d="M598.65 432.49L577.02 427.88C580.031 422.755 582.148 417.155 583.28 411.32C584.07 406.69 583.96 401.74 581.83 397.41C575.61 384.79 598.65 378.16 598.65 378.16C598.65 378.16 607.08 391.16 614.65 397.75C617.19 399.94 619.65 401.41 621.65 401.41C629.72 401.42 598.65 432.49 598.65 432.49Z" fill="#ECB4B6"/>
<path opacity="0.1" d="M482.21 571.99C482.21 571.99 491.62 594.24 500.21 594.64C505.4 594.88 521.4 597.08 533.33 598.79L534.4 598.94C537.693 597.346 540.813 595.416 543.71 593.18L535.02 589.44L489.18 569.73C488.9 569.73 486.24 569.91 484.29 570.04L482.21 571.99Z" fill="black"/>
<path opacity="0.1" d="M549.55 591.43C557.73 592.61 547.34 600.85 547.34 600.85C547.34 600.85 551.34 603.85 555.96 614.85C560.58 625.85 562.78 625.07 562.78 625.07L575.59 625.77C575.98 620.14 576.32 616.05 576.32 616.05L567.6 594.81L557.34 581.38C557.34 581.38 540.24 586.13 534.41 589.38L534.24 589.47C533.531 589.789 532.933 590.311 532.52 590.97C532.26 591.81 549.18 587.45 549.55 591.43Z" fill="black"/>
<path opacity="0.1" d="M598.65 432.49L577.02 427.88C580.031 422.755 582.148 417.155 583.28 411.32L590.05 417.85C593.339 417.878 596.564 416.936 599.32 415.14C600.514 414.339 601.58 413.361 602.48 412.24C607.29 406.24 613.09 398.41 613.09 398.41C613.09 398.41 613.77 398.1 614.7 397.76C617.24 399.95 619.7 401.42 621.7 401.42C629.72 401.42 598.65 432.49 598.65 432.49Z" fill="black"/>
<path d="M482.21 570.16C482.21 570.16 491.62 592.41 500.21 592.82C508.8 593.23 547.31 599.03 547.31 599.03C547.31 599.03 551.31 602.03 555.93 613.03C560.55 624.03 562.75 623.26 562.75 623.26L577.58 624.06L580.39 607.23C580.39 607.23 581.99 601.01 591.81 583.37C601.63 565.73 602.63 546.5 602.63 546.5C602.63 546.5 605.63 540.68 604.84 538.08C604.05 535.48 601.43 514.82 601.23 512.62C601.03 510.42 605.64 500.62 605.64 500.62C605.64 500.62 614.46 488.62 614.26 486.79C614.06 484.96 617.67 479.79 617.67 479.79L625.67 466.6C625.231 467.606 625.076 468.713 625.222 469.801C625.368 470.889 625.81 471.916 626.5 472.77C628.9 475.98 626.89 482.39 626.89 482.39L627.38 490.48L627.49 492.42C627.49 492.42 626.29 493.62 623.01 496.63C619.73 499.64 621.28 500.03 621.28 500.03C631.51 498.63 639.52 515.27 639.52 515.27C639.52 515.27 648.14 509.27 652.52 504.04C652.992 503.461 653.366 502.809 653.63 502.11C656.29 495.44 653.57 481.19 653.57 481.19C657.04 474.98 652.72 469.36 652.72 469.36C655.53 461.75 650.52 453.73 650.52 453.73L650.12 436.29C652.32 431.69 644.7 420.29 644.7 420.29C644.7 420.29 642.9 411.67 641.29 410.87C639.68 410.07 637.89 406.46 637.89 406.46C638.09 402.46 627.46 402.05 626.47 401.85C625.187 401.277 623.97 400.566 622.84 399.73C621.815 399.038 620.749 398.407 619.65 397.84C617.84 397.04 613.03 399.25 613.03 399.25C613.03 399.25 607.23 407.06 602.41 413.08C601.516 414.203 600.453 415.181 599.26 415.98C596.509 417.759 593.296 418.691 590.02 418.66L583.12 412.01L562.76 413.25L558.02 436.7C547.59 445.31 551.6 455.14 551.4 461.55C551.2 467.96 550.2 475.55 550.2 475.55C550.2 475.55 545.79 482.77 546.39 486.55C546.99 490.33 543.18 496.55 543.18 496.55C543.18 496.55 537.57 502.76 538.18 506.77C538.79 510.78 537.18 515.99 537.18 515.99C537.18 515.99 533.38 522.99 534.98 526.99C536.58 530.99 535.78 533.21 535.78 533.21C535.78 533.21 527.56 534.41 526.96 538.82C526.36 543.23 518.96 544.82 518.96 544.82C518.96 544.82 505.74 549.63 502.52 551.82C499.3 554.01 482.21 570.16 482.21 570.16Z" fill="#18AC30"/>
<path opacity="0.1" d="M650.57 472.16C650.57 472.16 635.57 473.97 633.73 476.16C631.89 478.35 648.73 478.57 648.73 478.57L650.57 472.16Z" fill="black"/>
<path opacity="0.1" d="M628.32 484.1C628.32 484.1 639.32 480.19 639.64 481.39C639.96 482.59 628.32 489.21 628.32 489.21V484.1Z" fill="black"/>
<path opacity="0.1" d="M623.71 462.75C621.8 465.76 606.02 485.16 606.02 485.16L623.02 460.35L623.71 462.75Z" fill="black"/>
<path opacity="0.1" d="M621.4 457.44C620.2 459.04 607.47 479.89 607.47 479.89L620.3 456.44L621.4 457.44Z" fill="black"/>
<path opacity="0.1" d="M648.02 432.49C648.02 432.49 643.11 425.57 638.3 429.98C633.49 434.39 648.02 432.49 648.02 432.49Z" fill="black"/>
<path opacity="0.1" d="M613.69 426.57C613.69 426.57 601.16 426.57 595.05 429.38C588.94 432.19 600.46 420.96 613.69 426.57Z" fill="black"/>
<path opacity="0.1" d="M599.31 417.16H601.16C601.16 417.16 605.47 415.56 606.57 412.24C607.67 408.92 616.34 411.95 616.34 411.95C616.34 411.95 617.59 412.89 616.49 411.35C615.39 409.81 620.3 404.94 622.49 401.73C622.661 401.483 622.789 401.209 622.87 400.92C621.847 400.222 620.781 399.587 619.68 399.02C617.87 398.22 613.06 400.43 613.06 400.43C613.06 400.43 607.26 408.25 602.44 414.26C601.552 415.382 600.496 416.36 599.31 417.16V417.16Z" fill="black"/>
<path d="M599.31 415.95H601.16C601.16 415.95 605.47 414.35 606.57 411.03C607.67 407.71 616.34 410.74 616.34 410.74C616.34 410.74 617.59 411.68 616.49 410.14C615.39 408.6 620.3 403.73 622.49 400.52C622.661 400.27 622.79 399.993 622.87 399.7C621.845 399.008 620.78 398.377 619.68 397.81C617.87 397.01 613.06 399.22 613.06 399.22C613.06 399.22 607.26 407.03 602.44 413.05C601.552 414.172 600.496 415.15 599.31 415.95V415.95Z" fill="#FF718D"/>
<path d="M584.52 429.84C585.255 429.84 585.85 429.245 585.85 428.51C585.85 427.775 585.255 427.18 584.52 427.18C583.785 427.18 583.19 427.775 583.19 428.51C583.19 429.245 583.785 429.84 584.52 429.84Z" fill="#E7C7CA"/>
<path d="M561.66 460.94C562.395 460.94 562.99 460.345 562.99 459.61C562.99 458.875 562.395 458.28 561.66 458.28C560.925 458.28 560.33 458.875 560.33 459.61C560.33 460.345 560.925 460.94 561.66 460.94Z" fill="#E7C7CA"/>
<path d="M569.91 441.31C570.645 441.31 571.24 440.715 571.24 439.98C571.24 439.245 570.645 438.65 569.91 438.65C569.175 438.65 568.58 439.245 568.58 439.98C568.58 440.715 569.175 441.31 569.91 441.31Z" fill="#E7C7CA"/>
<path d="M557.97 481.16C558.705 481.16 559.3 480.565 559.3 479.83C559.3 479.095 558.705 478.5 557.97 478.5C557.235 478.5 556.64 479.095 556.64 479.83C556.64 480.565 557.235 481.16 557.97 481.16Z" fill="#E7C7CA"/>
<path d="M541.03 516.04C541.765 516.04 542.36 515.445 542.36 514.71C542.36 513.975 541.765 513.38 541.03 513.38C540.295 513.38 539.7 513.975 539.7 514.71C539.7 515.445 540.295 516.04 541.03 516.04Z" fill="#E7C7CA"/>
<path d="M539.7 533.91C540.435 533.91 541.03 533.315 541.03 532.58C541.03 531.845 540.435 531.25 539.7 531.25C538.965 531.25 538.37 531.845 538.37 532.58C538.37 533.315 538.965 533.91 539.7 533.91Z" fill="#E7C7CA"/>
<path d="M520.29 403.02L522.99 411.74L531.51 411.14L539.12 403.02C539.12 403.02 539.62 401.56 540.4 399.39C542.32 394.02 545.95 384.27 547.95 381.27C550.75 377.07 552.56 359.63 552.56 359.63C552.56 359.63 549.48 352.63 540.69 366.63C534.08 377.19 525.85 392.47 522.2 399.37C521.02 401.66 520.29 403.02 520.29 403.02Z" fill="#ECB4B6"/>
<path d="M558.02 525.09C558.02 527.23 567.02 528.23 571.27 528.59L573.45 528.74C572.45 531 577.76 548.24 577.76 548.24C578.21 548.214 578.658 548.157 579.1 548.07C586.1 546.66 599.91 537.01 599.91 537.01C599.91 537.01 600.21 533.7 614.49 527.9C625 523.61 632.87 515.59 636.54 511.61C637.237 510.774 637.989 509.986 638.79 509.25L626.11 496.16C626.11 496.16 624.06 498.06 621.36 500.61C616.42 505.28 609.29 512.11 608.57 513.43C607.47 515.43 587.63 525.13 587.63 525.13C583.22 521.32 573.7 520.52 573.7 520.52C573.7 520.52 558.02 522.28 558.02 525.09Z" fill="#ECB4B6"/>
<path opacity="0.1" d="M581.52 479.89C580.92 481.09 553.76 499.13 549.15 499.43C544.54 499.73 553.46 490.81 553.76 490.71C554.06 490.61 581.52 479.89 581.52 479.89Z" fill="black"/>
<path opacity="0.1" d="M435.02 766.3L434.02 766.07L435.02 766.3Z" fill="black"/>
<path opacity="0.3" d="M514.26 784.51C515.554 783.747 516.99 783.257 518.48 783.07C521.288 783.381 524.126 783.293 526.91 782.81C526.244 785.22 526.034 787.733 526.29 790.22L523.74 790.12C523.74 790.12 514.22 788.05 514.26 784.51Z" fill="white"/>
<path opacity="0.1" d="M435.66 766.43L435.12 766.32L435.66 766.43Z" fill="black"/>
<path opacity="0.3" d="M572.53 720.54C572.64 721.71 572.69 722.86 572.73 723.86C572.757 725.141 573.239 726.371 574.09 727.33L574.15 727.39C574.473 725.027 574.62 722.644 574.59 720.26C574.38 720.57 573.48 720.6 572.53 720.54Z" fill="white"/>
<path opacity="0.1" d="M621.36 500.57C627.89 500.16 633.46 506.94 636.49 511.57C637.187 510.734 637.939 509.946 638.74 509.21L626.11 496.16C626.11 496.16 624.02 498.02 621.36 500.57Z" fill="black"/>
<path opacity="0.1" d="M621.3 498.83C631.53 497.43 639.54 514.07 639.54 514.07C639.54 514.07 648.16 508.07 652.54 502.84C653.012 502.257 653.386 501.602 653.65 500.9C651.27 495.18 644.7 485.65 627.37 489.28L627.48 491.22C627.48 491.22 626.28 492.42 623 495.42C619.72 498.42 621.3 498.83 621.3 498.83Z" fill="black"/>
<path d="M621.3 500.03C631.53 498.63 639.54 515.27 639.54 515.27C639.54 515.27 648.16 509.27 652.54 504.04C653.012 503.461 653.386 502.809 653.65 502.11C651.27 496.39 644.7 486.85 627.37 490.48L627.48 492.42C627.48 492.42 626.28 493.62 623 496.63C619.72 499.64 621.3 500.03 621.3 500.03Z" fill="#FF718D"/>
<path opacity="0.1" d="M621.3 500.03C631.53 498.63 639.54 515.27 639.54 515.27C639.54 515.27 648.16 509.27 652.54 504.04C653.012 503.461 653.386 502.809 653.65 502.11C651.27 496.39 644.7 486.85 627.37 490.48L627.48 492.42C627.48 492.42 626.28 493.62 623 496.63C619.72 499.64 621.3 500.03 621.3 500.03Z" fill="white"/>
<path opacity="0.1" d="M520.29 403.02L522.99 411.74L531.51 411.14L539.12 403.02C539.12 403.02 539.62 401.56 540.4 399.39C539.32 400 531.96 404.08 527.5 404.3C523.95 404.48 522.64 401.16 522.2 399.39C521.02 401.66 520.29 403.02 520.29 403.02Z" fill="black"/>
<path opacity="0.1" d="M517.63 406.08L518.19 405.43C520.19 403.11 521.99 401.32 521.99 401.32C522.195 402.879 522.79 404.362 523.72 405.63C524.163 406.2 524.74 406.651 525.399 406.944C526.059 407.237 526.78 407.363 527.5 407.31C530.097 406.986 532.624 406.24 534.98 405.1C537.98 403.76 540.53 402.32 540.53 402.32V404.73L540.58 407.13V412.64C540.58 412.64 542.68 427.27 523.24 419.46C523.24 419.46 524.45 414.09 517.06 415.11L517.63 406.08Z" fill="black"/>
<path d="M540.53 400.52L540.63 405.33V410.84C540.63 410.84 542.73 425.47 523.29 417.66C523.29 417.66 524.7 411.44 515.29 413.66C505.88 415.88 522.02 399.52 522.02 399.52C522.02 399.52 522.7 405.75 527.53 405.52C532.36 405.29 540.53 400.52 540.53 400.52Z" fill="#FF718D"/>
<path opacity="0.1" d="M540.53 400.52L540.63 405.33V410.84C540.63 410.84 542.73 425.47 523.29 417.66C523.29 417.66 524.7 411.44 515.29 413.66C505.88 415.88 522.02 399.52 522.02 399.52C522.02 399.52 522.7 405.75 527.53 405.52C532.36 405.29 540.53 400.52 540.53 400.52Z" fill="white"/>
<path opacity="0.1" d="M577.61 553.65C577.41 553.35 576.61 529.4 573.5 528.8C570.39 528.2 562.68 531.4 562.68 531.4L564.08 550.54L577.61 553.65Z" fill="black"/>
<path opacity="0.1" d="M573.4 528.74C572.4 531 577.71 548.24 577.71 548.24C578.16 548.214 578.608 548.157 579.05 548.07C578.56 540.94 577.52 528.62 575.3 528.2C573.928 528.064 572.542 528.197 571.22 528.59L573.4 528.74Z" fill="black"/>
<path d="M578.81 553.05C578.61 552.75 577.81 528.8 574.7 528.19C571.59 527.58 563.88 530.8 563.88 530.8L565.28 549.94L578.81 553.05Z" fill="#FF718D"/>
<path opacity="0.1" d="M578.81 553.05C578.61 552.75 577.81 528.8 574.7 528.19C571.59 527.58 563.88 530.8 563.88 530.8L565.28 549.94L578.81 553.05Z" fill="white"/>
<path d="M551.02 410.77C553.44 407.01 554.88 402.72 556.27 398.47C556.984 396.428 557.585 394.348 558.07 392.24C560.015 395.084 562.531 397.492 565.458 399.31C568.385 401.128 571.658 402.317 575.07 402.8C575.819 404.357 576.487 405.953 577.07 407.58C577.773 409.661 577.954 411.883 577.597 414.051C577.239 416.218 576.354 418.265 575.02 420.01C572.22 423.39 567.1 424.83 563.18 422.86C562.057 422.138 560.876 421.509 559.65 420.98C556.99 420.14 554.21 421.53 551.46 421.98C549.56 422.301 547.612 422.188 545.761 421.652C543.91 421.115 542.204 420.168 540.77 418.88C545.12 417.77 548.65 414.53 551.02 410.77Z" fill="#985C7E"/>
<path opacity="0.1" d="M578.81 404.64C592.534 404.64 603.66 393.514 603.66 379.79C603.66 366.066 592.534 354.94 578.81 354.94C565.086 354.94 553.96 366.066 553.96 379.79C553.96 393.514 565.086 404.64 578.81 404.64Z" fill="black"/>
<path d="M578.81 403.02C592.534 403.02 603.66 391.894 603.66 378.17C603.66 364.446 592.534 353.32 578.81 353.32C565.086 353.32 553.96 364.446 553.96 378.17C553.96 391.894 565.086 403.02 578.81 403.02Z" fill="#ECB4B6"/>
<path d="M560.42 370.41C557.5 368.41 553.2 370 550.12 368.23C548.652 367.267 547.559 365.831 547.02 364.16C544.33 357.06 548.57 348.16 555.77 345.75C557.65 345.12 559.65 344.9 561.55 344.32C566.72 342.74 570.71 338.73 575.19 335.7C579.818 332.574 585.057 330.468 590.56 329.52C594.64 328.82 599.16 328.87 602.49 331.33C606.24 334.11 607.44 339.11 608.21 343.72C608.98 348.33 609.76 353.31 613.07 356.6C615.72 359.22 619.5 360.25 622.88 361.83C626.26 363.41 629.65 366.12 629.88 369.83C630.05 372.74 628.22 375.38 627.65 378.24C627.01 381.47 628 384.78 629.12 387.87C632.251 396.528 636.408 404.78 641.5 412.45C635.362 415.888 628.72 418.338 621.82 419.71C618.98 420.28 615.99 420.65 613.24 419.76C609.76 418.65 607.16 415.65 605.48 412.4C604 409.511 603.109 406.356 602.86 403.12C602.37 396.67 604.39 389.75 601.53 383.95C600.996 382.761 600.123 381.755 599.02 381.06C597.76 380.32 596.23 380.23 594.84 379.79C592.44 379.04 590.51 377.27 588.67 375.55L582.05 369.39C580.565 367.839 578.822 366.557 576.9 365.6C573.38 364.11 569.23 364.96 565.9 366.83C562.97 368.47 559.59 370.93 556.63 369.35" fill="#985C7E"/>
<g opacity="0.1">
<path opacity="0.1" d="M558.42 369.85L556.66 369.35C557.203 369.644 557.804 369.814 558.42 369.85Z" fill="black"/>
<path opacity="0.1" d="M558.42 369.85L560.42 370.41C560.07 370.167 559.69 369.968 559.29 369.82C559.001 369.85 558.71 369.86 558.42 369.85Z" fill="black"/>
<path opacity="0.1" d="M622.6 416.47C619.76 417.03 616.78 417.4 614.02 416.52C610.54 415.4 607.94 412.41 606.26 409.15C604.78 406.261 603.889 403.106 603.64 399.87C603.15 393.42 605.17 386.51 602.32 380.7C601.798 379.521 600.947 378.518 599.87 377.81C598.61 377.07 597.09 376.98 595.69 376.55C593.29 375.79 591.36 374.02 589.52 372.31L582.9 366.16C581.414 364.609 579.672 363.327 577.75 362.37C574.23 360.88 570.08 361.73 566.75 363.6C564.66 364.77 562.35 366.35 560.11 366.6C560.509 366.75 560.889 366.948 561.24 367.19L559.24 366.63C558.624 366.594 558.023 366.424 557.48 366.13L559.24 366.63C559.529 366.66 559.821 366.66 560.11 366.63C557.29 365.55 553.65 366.63 550.94 365.05C549.461 364.086 548.359 362.641 547.82 360.96C547.055 358.891 546.825 356.662 547.15 354.48C545.945 357.586 545.899 361.022 547.02 364.16C547.562 365.837 548.663 367.278 550.14 368.24C552.84 369.8 556.49 368.74 559.31 369.83C561.54 369.59 563.86 368.01 565.95 366.83C569.29 364.96 573.44 364.11 576.95 365.6C578.872 366.557 580.614 367.839 582.1 369.39L588.72 375.55C590.56 377.27 592.49 379.04 594.89 379.79C596.28 380.23 597.81 380.32 599.07 381.06C600.147 381.766 600.995 382.77 601.51 383.95C604.37 389.75 602.35 396.67 602.84 403.12C603.089 406.356 603.98 409.511 605.46 412.4C607.14 415.65 609.74 418.65 613.22 419.76C615.97 420.65 618.96 420.28 621.79 419.71C628.694 418.339 635.339 415.889 641.48 412.45C641.02 411.76 640.57 411.06 640.13 410.36C634.597 413.197 628.698 415.253 622.6 416.47V416.47Z" fill="black"/>
<path opacity="0.1" d="M629.83 370.78C629.257 372.149 628.789 373.56 628.43 375C628.37 375.31 628.33 375.63 628.3 375.94C629.041 374.297 629.556 372.561 629.83 370.78V370.78Z" fill="black"/>
</g>
<path opacity="0.1" d="M575.18 418.1C572.38 421.47 567.26 422.91 563.34 420.94C562.216 420.22 561.035 419.591 559.81 419.06C557.15 418.22 554.37 419.61 551.62 420.06C548.408 420.583 545.116 419.868 542.41 418.06C541.925 418.249 541.431 418.412 540.93 418.55C542.366 419.835 544.072 420.779 545.923 421.314C547.773 421.849 549.72 421.961 551.62 421.64C554.37 421.15 557.15 419.76 559.81 420.64C561.033 421.179 562.214 421.81 563.34 422.53C567.26 424.53 572.34 423.05 575.18 419.68C577.167 417.169 578.134 414.002 577.89 410.81C577.794 413.468 576.844 416.025 575.18 418.1Z" fill="black"/>
</g>
<defs>
<linearGradient id="paint0_linear" x1="211" y1="8.15616e-06" x2="1080.5" y2="799.5" gradientUnits="userSpaceOnUse">
<stop offset="0.00472469" stop-color="#24FF00"/>
<stop offset="1" stop-color="#0009D7"/>
</linearGradient>
<linearGradient id="paint1_linear" x1="556.4" y1="800.11" x2="556.4" y2="326.35" gradientUnits="userSpaceOnUse">
<stop stop-color="#808080" stop-opacity="0.25"/>
<stop offset="0.54" stop-color="#808080" stop-opacity="0.12"/>
<stop offset="1" stop-color="#808080" stop-opacity="0.1"/>
</linearGradient>
<linearGradient id="paint2_linear" x1="17981.4" y1="28061.5" x2="18727.3" y2="28061.5" gradientUnits="userSpaceOnUse">
<stop stop-color="#808080" stop-opacity="0.25"/>
<stop offset="0.54" stop-color="#808080" stop-opacity="0.12"/>
<stop offset="1" stop-color="#808080" stop-opacity="0.1"/>
</linearGradient>
<clipPath id="clip0">
<rect width="1134.04" height="812.32" fill="white"/>
</clipPath>
</defs>
</svg>
